<svg width="128" height="128" viewBox="0 0 128 128" fill="none" xmlns="http://www.w3.org/2000/svg">
<path d="M11.5493 99.4874C7.33422 99.4874 3 102.865 3 108.777C3 114.182 6.81077 117.999 11.5493 117.999C15.4606 117.999 17.2039 115.374 17.2039 115.374V116.519C17.2039 117.059 17.7153 117.663 18.3483 117.663H21.1756V99.8913H17.2039V102.146C17.2039 102.146 15.446 99.4874 11.5493 99.4874ZM12.2568 103.121C15.7266 103.121 17.5468 106.173 17.5468 108.776C17.5468 111.675 15.3857 114.428 12.2641 114.428C9.65467 114.428 7.04074 112.315 7.04074 108.738C7.04074 105.508 9.29019 103.121 12.2568 103.121Z" fill="black"/>
<path d="M26.6956 117.663C26.0854 117.663 25.5513 117.225 25.5513 116.518V99.8911H29.5229V102.09C30.4229 100.738 32.1812 99.4818 34.88 99.4818C39.2911 99.4818 41.64 102.998 41.64 106.286V117.663H38.88C38.1563 117.663 37.6683 117.057 37.6683 116.451V107.161C37.6683 105.339 36.5516 103.125 33.969 103.125C31.1823 103.125 29.523 105.759 29.523 108.238V117.663L26.6956 117.663Z" fill="black"/>
<path d="M53.2182 99.4874C49.0032 99.4874 44.669 102.865 44.669 108.777C44.669 114.182 48.4798 117.999 53.2182 117.999C57.1296 117.999 58.8728 115.374 58.8728 115.374V116.519C58.8728 117.059 59.3842 117.663 60.0172 117.663H62.8445V91.0054H58.8728V102.146C58.8728 102.146 57.115 99.4874 53.2182 99.4874ZM53.9257 103.121C57.3956 103.121 59.2157 106.173 59.2157 108.776C59.2157 111.675 57.0546 114.428 53.9331 114.428C51.3236 114.428 48.7097 112.315 48.7097 108.738C48.7097 105.508 50.9591 103.121 53.9257 103.121Z" fill="black"/>
<path d="M68.3646 117.663C67.7544 117.663 67.2202 117.225 67.2202 116.518V99.8911H71.1919V102.853C71.8755 101.194 73.3507 99.6891 75.9714 99.6891C76.702 99.6891 77.3851 99.8238 77.3851 99.8238V103.93C77.3851 103.93 76.5321 103.593 75.5002 103.593C72.7135 103.593 71.1919 106.227 71.1919 108.707V117.663H68.3646Z" fill="black"/>
<path d="M101.484 117.663C100.874 117.663 100.34 117.225 100.34 116.518V99.8911H104.312V117.663L101.484 117.663Z" fill="black"/>
<path d="M115.957 99.4874C111.742 99.4874 107.408 102.865 107.408 108.777C107.408 114.182 111.219 117.999 115.957 117.999C119.869 117.999 121.612 115.374 121.612 115.374V116.519C121.612 117.059 122.123 117.663 122.756 117.663H125.584V91.0054H121.612V102.146C121.612 102.146 119.854 99.4874 115.957 99.4874ZM116.665 103.121C120.135 103.121 121.955 106.173 121.955 108.776C121.955 111.675 119.794 114.428 116.672 114.428C114.063 114.428 111.449 112.315 111.449 108.738C111.449 105.508 113.698 103.121 116.665 103.121Z" fill="black"/>
<path d="M102.298 96.0588C103.748 96.0588 104.924 94.883 104.924 93.4326C104.924 91.9823 103.748 90.8065 102.298 90.8065C100.847 90.8065 99.6717 91.9823 99.6717 93.4326C99.6717 94.883 100.847 96.0588 102.298 96.0588Z" fill="black"/>
<path d="M87.8597 99.4813C83.4454 99.4813 78.5956 102.776 78.5956 108.745C78.5956 114.185 82.7265 118 87.8501 118C94.1644 118 97.2476 112.924 97.2476 108.78C97.2476 103.695 93.2774 99.4813 87.8597 99.4813ZM87.8742 103.19C90.9268 103.19 93.2037 105.651 93.2037 108.757C93.2037 111.916 90.7866 114.355 87.8832 114.355C85.188 114.355 82.5681 112.161 82.5681 108.81C82.5681 105.402 85.0599 103.19 87.8742 103.19Z" fill="black"/>
<path d="M94.2076 31.6976L104.369 14.0944C104.943 13.1076 104.596 11.854 103.623 11.2806C102.649 10.7071 101.382 11.0405 100.822 12.0273L90.5269 29.8572C82.6721 26.2699 73.8306 24.2695 64.3221 24.2695C54.8138 24.2695 45.9721 26.2699 38.1174 29.8572L27.8222 12.0273C27.2487 11.0405 25.9952 10.7071 25.0083 11.2806C24.0215 11.854 23.6881 13.1076 24.2615 14.0944L34.4233 31.6976C16.9002 41.1926 5.03133 58.9292 3.07101 79.6928H125.573C123.613 58.929 111.744 41.1925 94.2076 31.6976ZM36.197 62.4898C33.3565 62.4898 31.0628 60.1827 31.0628 57.3555C31.0628 54.515 33.3698 52.2213 36.197 52.2213C39.0375 52.2213 41.3313 54.5284 41.3313 57.3555C41.3447 60.1827 39.0375 62.4898 36.197 62.4898ZM92.434 62.4898C89.5935 62.4898 87.2998 60.1827 87.2998 57.3555C87.2998 54.515 89.6069 52.2213 92.434 52.2213C95.2746 52.2213 97.5683 54.5284 97.5683 57.3555C97.5817 60.1827 95.2746 62.4898 92.434 62.4898Z" fill="#32DE84"/>
</svg>
