<svg width="128" height="128" viewBox="0 0 128 128" fill="none" xmlns="http://www.w3.org/2000/svg">
<g clip-path="url(#clip0_2_19)">
<path d="M60.1588 76.6682C60.1588 87.0147 54.7685 93.5265 46.1585 93.5265C37.5485 93.5265 32.1582 86.9785 32.1582 76.6682C32.1582 66.2856 37.5485 59.7738 46.1585 59.7738C54.7685 59.7738 60.1588 66.2856 60.1588 76.6682ZM72.1694 40.1662L68.4071 40.4194C66.2726 40.5641 65.3321 41.3238 65.3321 42.6985C65.3321 44.1456 66.5259 44.9415 68.19 44.9415C70.4691 44.9415 72.1694 43.4582 72.1694 41.4685V40.1662ZM126 63.5C126 97.8315 98.8315 125 64.5 125C30.1685 125 3 97.8315 3 63.5C3 29.1685 30.1685 2 64.5 2C98.8315 2 126 29.1685 126 63.5ZM78.7535 39.4065C78.7535 44.3988 81.5029 47.4376 85.9888 47.4376C89.7874 47.4376 92.175 45.3032 92.5729 42.2644H89.6065C89.2085 43.9285 87.9062 44.8329 85.9888 44.8329C83.4565 44.8329 81.9009 42.7709 81.9009 39.4065C81.9009 36.0782 83.4565 34.0885 85.9888 34.0885C88.0147 34.0885 89.2809 35.2462 89.6065 36.7294H92.5729C92.175 33.7629 89.8597 31.52 85.9888 31.52C81.5029 31.4838 78.7535 34.5226 78.7535 39.4065ZM37.4038 31.8094V47.1482H40.4426V37.7424C40.4426 35.7526 41.8535 34.1609 43.6985 34.1609C45.5074 34.1609 46.665 35.2462 46.665 36.9826V47.1482H49.6315V37.4529C49.6315 35.6079 50.8976 34.1609 52.8874 34.1609C54.8771 34.1609 55.8538 35.1738 55.8538 37.3082V47.1482H58.8926V36.5485C58.8926 33.365 57.0838 31.4838 53.9726 31.4838C51.8382 31.4838 50.0656 32.5691 49.3059 34.2332H49.0526C48.3653 32.5691 46.9182 31.4838 44.82 31.4838C42.7579 31.4838 41.2024 32.4968 40.5512 34.2332H40.3341V31.7732L37.4038 31.8094ZM65.5491 76.6682C65.5491 63.3191 58.0968 54.9262 46.1585 54.9262C34.2203 54.9262 26.7679 63.3191 26.7679 76.6682C26.7679 90.0174 34.2203 98.3741 46.1585 98.3741C58.0968 98.3741 65.5491 89.9812 65.5491 76.6682ZM67.4303 47.4015C69.4562 47.4015 71.1203 46.5332 72.0609 44.9776H72.3141V47.1482H75.2444V36.6571C75.2444 33.4374 73.0738 31.52 69.2029 31.52C65.6938 31.52 63.2338 33.2203 62.9082 35.7888H65.8385C66.1641 34.6674 67.3579 34.0524 69.0582 34.0524C71.1203 34.0524 72.2056 34.9929 72.2056 36.6932V38.0318L68.0453 38.285C64.3915 38.5021 62.3294 40.0938 62.3294 42.8794C62.2932 45.6288 64.4638 47.4015 67.4303 47.4015ZM100.604 85.7124C100.604 79.7432 97.1312 76.2703 88.3765 74.3529L83.7097 73.34C77.9576 72.0738 75.7147 69.7947 75.7147 66.5026C75.7147 62.2338 79.7665 59.6653 85.0121 59.6653C90.5109 59.6653 94.1285 62.4871 94.5988 67.1176H99.8444C99.5912 59.9909 93.5497 54.9624 85.1568 54.9624C76.4382 54.9624 70.3244 59.8462 70.3244 66.7559C70.3244 72.725 73.9782 76.5597 82.4074 78.4047L87.0741 79.4176C92.8985 80.6838 95.25 83.0353 95.25 86.5444C95.25 90.6685 91.0897 93.6712 85.41 93.6712C79.3685 93.6712 75.1721 90.9218 74.5571 86.3997H69.3115C69.8179 93.6712 75.9318 98.3741 85.1206 98.3741C94.4903 98.3741 100.604 93.4903 100.604 85.7124Z" fill="#1D1D1F"/>
</g>
<defs>
<clipPath id="clip0_2_19">
<rect width="123" height="123" fill="white" transform="translate(3 2)"/>
</clipPath>
</defs>
</svg>
