<svg width="150" height="127" viewBox="0 0 150 127" fill="none" xmlns="http://www.w3.org/2000/svg">
<path d="M50.5435 114.604C50.545 114.598 50.5443 114.592 50.5418 114.586C50.5392 114.58 50.5349 114.575 50.5294 114.572C50.5239 114.569 50.5175 114.567 50.5112 114.568C50.5049 114.569 50.4989 114.571 50.4942 114.576C49.0629 116.051 47.5121 116.995 45.6863 117.903C45.6344 117.929 45.6335 117.957 45.6837 117.987C47.1695 118.877 48.1727 120.474 47.9585 122.21C47.564 125.392 45.4073 126.739 42.3512 126.91C40.5413 127.011 38.7319 127.027 36.9229 126.958C32.381 126.784 28.471 126.183 27.4965 120.969C26.9449 118.014 27.5484 115.154 28.5164 112.364C29.1428 110.558 29.7531 108.746 30.3475 106.928C30.9782 105.002 31.1767 103.553 31.3065 101.336C31.3809 100.078 31.4799 98.8221 31.6037 97.5682C31.6071 97.5284 31.5889 97.5068 31.5492 97.5033C25.2644 96.978 19.4507 93.9441 16.7463 88.0436C13.349 80.6346 18.9823 73.2657 22.8208 67.5987C23.8927 66.0163 25.363 63.8242 25.3553 61.9161C25.3423 58.8135 22.7936 56.5604 19.7583 56.611C17.2239 56.6525 15.2332 58.1481 14.4857 60.6216C14.3854 60.952 14.2842 61.4781 14.1821 62.2002C13.6877 65.6699 11.7463 68.9166 8.0881 69.6585C6.62516 69.956 5.25739 69.8064 3.98478 69.2097C1.22198 67.9152 0.160465 64.8722 0.024207 62.0406C-0.333957 54.5797 3.29181 47.9503 10.276 44.9669C15.5719 42.7048 21.8982 42.5686 27.2551 44.9734C27.3468 45.0141 27.3974 44.9847 27.4069 44.8852C27.6158 42.7891 27.8637 40.6904 28.0973 38.5917C28.5333 34.6641 29.4205 30.8381 30.7589 27.1137C30.7736 27.073 30.7684 27.035 30.7433 26.9995C28.8166 24.2125 27.134 21.2832 25.6952 18.2117C24.5805 15.8328 23.6773 13.2555 23.5021 10.6353C23.4178 9.37972 23.7279 7.69997 24.3651 6.72066C25.3851 5.15247 27.8585 5.07335 29.5598 5.1836C35.0932 5.54031 40.5681 6.94506 45.8913 8.41856C45.9328 8.42981 45.9722 8.42549 46.0094 8.4056C51.7374 5.26662 57.9378 4.2432 64.3926 4.13554C68.3748 4.06896 72.2484 4.70756 76.0134 6.05136C76.0534 6.06545 76.0972 6.06312 76.1354 6.04487C80.7981 3.86705 85.9733 1.67624 91.0836 0.449189C92.441 0.123617 93.6933 -0.0540844 94.9871 0.0146618C97.5617 0.150857 98.5142 3.10176 98.5973 5.20435C98.6743 7.17335 98.4744 9.11468 97.9977 11.0283C97.0521 14.8271 95.7224 18.4741 94.0086 21.9694C93.9933 22.0002 93.9857 22.0342 93.9864 22.0686C93.9871 22.1029 93.996 22.1365 94.0125 22.1665C95.8561 25.552 97.3052 29.1069 98.3598 32.8313C98.6427 33.8292 99.141 35.6546 99.8547 38.3076C100.353 40.1547 101.014 41.7384 101.806 43.3987C102.998 45.8944 100.994 46.565 98.9905 46.1045C98.9446 46.0941 98.9338 46.1092 98.958 46.1499C99.4745 46.9917 100.266 48.3316 99.8405 49.3939C99.359 50.5963 97.7291 50.7235 96.5962 50.7273C96.5556 50.7273 96.5155 50.739 96.4807 50.7611C95.6385 51.2864 95.0727 52.2294 94.4952 53.0141C93.432 54.4582 92.2195 55.7588 90.8578 56.9158L90.8521 56.9208L90.8487 56.9276L90.8482 56.9352L90.8507 56.9424L90.8557 56.9481L90.8625 56.9515L90.8701 56.952L90.8773 56.9495C93.7387 55.8379 97.0452 55.8729 100 56.5526C102.952 57.231 104.491 58.4762 104.574 61.693C104.575 61.738 104.595 61.7721 104.633 61.7955C107.599 63.6019 109.963 65.9998 111.727 68.9892C111.752 69.0316 111.778 69.0316 111.803 68.9892C115.23 63.2781 120.78 59.7046 127.378 58.9951C139.824 57.6565 150.458 67.827 149.985 80.2636C149.499 93.0439 140.357 104.316 131.347 112.543C126.688 116.799 121.733 120.673 116.482 124.165C115.523 124.803 114.77 125.227 114.225 125.435C112.634 126.044 111.034 126.059 109.424 125.48C108.869 125.281 108.152 124.889 107.271 124.307C102.739 121.306 98.3304 117.945 94.0462 114.224C88.4947 109.402 83.483 103.999 79.538 97.873C79.5086 97.8272 79.4861 97.8302 79.4705 97.8821C78.7784 100.154 77.7762 102.278 76.4637 104.255C76.4378 104.294 76.4257 104.337 76.4274 104.384C76.6857 110.669 74.1694 115.275 68.4102 117.887C68.3531 117.913 68.3505 117.943 68.4025 117.978C70.5709 119.437 71.2704 121.457 70.1829 123.951C69.329 125.911 67.5499 126.731 65.4956 126.871C63.6615 126.996 61.4589 127.011 58.8877 126.916C56.91 126.842 54.8272 126.622 53.2038 125.661C49.5495 123.497 49.5807 118.183 50.5435 114.604ZM78.1858 6.89318L76.2016 7.79985C76.1601 7.81887 76.1177 7.82017 76.0744 7.80374C72.742 6.5395 69.2948 5.85896 65.7331 5.76211C58.9085 5.61683 52.1683 6.71288 46.2313 10.1671C46.1924 10.1895 46.1521 10.1947 46.1106 10.1826C42.6112 9.16137 39.0736 8.29751 35.498 7.59102C33.5671 7.20967 31.6201 6.95457 29.6571 6.82573C28.6008 6.75698 26.2753 6.63765 25.6965 7.69349C23.1167 12.4007 29.8141 22.8683 32.5666 26.7751C32.5916 26.8106 32.5964 26.8486 32.5808 26.8893C31.3506 30.1346 30.4738 33.4746 29.9504 36.9094C29.7722 38.0802 29.4932 40.4928 29.1134 44.1472C29.0113 45.1243 28.8794 45.9778 28.7176 46.7076C28.4606 47.8672 28.1168 48.9996 27.8624 50.1592C27.8235 50.3373 27.891 50.4 28.0648 50.3473C28.8383 50.1138 29.5654 49.8012 30.2463 49.4095C31.0171 48.9659 31.7957 49.4977 31.6166 50.3888C31.5223 50.861 31.3913 51.3634 31.2234 51.896C30.9561 52.5454 30.7476 53.2316 30.5979 53.9545C30.5896 53.9959 30.5976 54.0389 30.6201 54.0745C30.6426 54.11 30.6779 54.1354 30.7186 54.1452C31.2092 54.2658 31.5492 54.2386 32.1526 54.1543C33.558 53.9584 34.7129 54.9014 35.6148 55.8574C38.4218 58.8277 41.9865 60.8447 45.9173 61.9226C50.6383 63.2184 54.8493 63.867 59.9168 64.5622C60.1867 64.5998 60.3061 64.7646 60.1815 65.0279C60.1608 65.0711 60.1266 65.0949 60.079 65.0992C60.0089 65.1061 59.9146 65.11 59.7961 65.1109C56.4922 65.1481 53.408 64.966 50.5435 64.5648C50.502 64.5587 50.4735 64.5756 50.4579 64.6154L49.1875 67.9865C47.471 72.0793 45.2528 75.8669 42.5329 79.3491C39.6598 83.0264 37.2227 86.072 35.3657 89.9944C35.2861 90.1631 35.2554 90.3788 35.2735 90.6417C35.2761 90.6841 35.2679 90.7247 35.2489 90.7636C34.4063 92.4369 33.834 94.0959 33.532 95.7406C33.0804 98.1934 32.9896 100.696 32.817 102.933C32.6743 104.793 32.2603 106.417 31.6763 108.121C31.0405 109.978 30.4171 111.838 29.8064 113.702C29.1238 115.781 28.6903 117.879 29.0225 120.033C29.308 123.592 31.3908 124.881 34.722 125.196C35.7706 125.295 36.4402 123.84 36.5635 122.964C36.7235 122.354 36.6504 121.772 36.3441 121.221C36.3182 121.173 36.3286 121.163 36.3753 121.19C37.057 121.572 37.3823 122.166 37.3512 122.971C37.3693 123.774 37.1794 124.536 36.7815 125.256C36.7555 125.302 36.7689 125.326 36.8217 125.327C37.7785 125.362 38.7345 125.379 39.6896 125.378C41.3234 125.377 42.3888 124.736 42.5108 122.92C42.6475 122.166 42.3832 121.555 41.7179 121.086C41.712 121.081 41.7078 121.075 41.7061 121.068C41.7045 121.061 41.7055 121.053 41.7089 121.046C41.7123 121.04 41.718 121.035 41.7249 121.032C41.7318 121.029 41.7394 121.029 41.7465 121.031C42.6315 121.381 43.1302 121.994 43.2427 122.871C43.2989 123.697 43.1635 124.459 42.8365 125.156C42.8149 125.202 42.8292 125.222 42.8793 125.217C44.2575 125.086 45.4786 124.633 46.0094 123.234C46.2983 122.472 46.3935 121.785 46.2949 121.174C45.9562 120.136 44.9427 119.217 43.9902 118.885C41.4921 118.013 38.9876 117.641 36.3558 117.457C36.3502 117.457 36.3446 117.455 36.3405 117.452C36.3364 117.448 36.334 117.443 36.3338 117.437C36.3336 117.431 36.3357 117.426 36.3396 117.421C36.3435 117.417 36.3489 117.414 36.3545 117.414L38.4957 117.031C40.0469 116.978 41.5375 116.966 42.9676 116.995C43.2557 117 43.5239 116.961 43.7722 116.877C48.039 115.433 51.1418 112.537 51.8477 107.944C52.2526 106.225 52.1086 104.12 51.8503 102.397C51.7707 101.871 51.5813 101.028 51.2819 99.8693C50.8658 98.2617 50.4903 96.6451 50.1555 95.0194C50.1374 94.9321 50.143 94.8218 50.1724 94.6886C50.1811 94.6515 50.2001 94.6208 50.2295 94.5965C50.4017 94.4495 50.5539 94.4599 50.6863 94.6277C51.4338 95.5745 52.0549 96.6901 52.5498 97.9742C53.9007 102.491 54.3354 107.483 52.3318 111.908C52.3153 111.945 52.3274 111.965 52.3681 111.967C57.513 112.371 62.4447 111.614 67.1632 109.695C73.1806 107.247 76.7778 102.305 78.322 96.1154C78.3727 95.9144 78.3 95.8106 78.2105 95.6342C76.7501 93.0625 75.58 90.3334 74.7002 87.4469L74.3667 86.1563C74.3554 86.1122 74.3269 86.0936 74.281 86.1005C74.1184 86.1248 73.9605 86.1645 73.8074 86.2199C71.0134 87.2277 68.3505 88.0241 65.2465 88.0955C64.281 88.118 63.3155 88.1167 62.35 88.0916C56.038 87.9307 52.6393 84.2911 50.8628 78.5579C50.3255 76.1444 50.1702 73.7141 50.3969 71.2669C50.3971 71.2277 50.4128 71.1902 50.4407 71.1625C50.4686 71.1349 50.5063 71.1195 50.5455 71.1197C50.5847 71.1199 50.6223 71.1356 50.6499 71.1635C50.6775 71.1913 50.693 71.229 50.6928 71.2682C50.8935 73.7327 51.426 76.1393 52.2902 78.4879C52.8327 79.964 53.549 81.2611 54.4392 82.3792C56.4533 85.1173 59.1187 86.2328 62.424 86.4533C64.8541 86.6159 67.1718 86.4373 69.377 85.9176C71.0731 85.5181 73.3324 84.6193 74.8819 84.2197C75.8638 83.9664 76.8591 83.7878 77.8679 83.684C80.5787 83.4052 84.2928 82.9019 83.7399 79.1208C83.6076 78.2168 84.5886 78.0144 84.9792 77.2958C85.4326 76.6897 85.5013 75.9546 85.1856 75.0908C85.0104 74.6134 84.4822 74.0466 84.5004 73.5537C84.5886 71.2202 82.6577 69.9517 80.6579 69.3602C77.9431 68.5573 75.1466 69.0878 72.7913 70.6248C72.3397 70.9197 71.7695 71.3313 71.0809 71.8597C69.438 73.1192 67.1891 73.6198 65.2153 72.8338C65.1975 72.8265 65.182 72.8144 65.1707 72.7988C65.1595 72.7831 65.1529 72.7646 65.1516 72.7454C65.1504 72.7261 65.1547 72.707 65.1638 72.69C65.173 72.6731 65.1868 72.6591 65.2036 72.6496C65.3801 72.5523 65.5397 72.5887 65.7045 72.5757C68.0067 72.4084 69.2797 71.4109 70.9485 69.9439C71.5602 69.4069 72.4244 68.8435 73.5413 68.2538L75.1064 67.6376L77.3773 67.2213C77.4162 67.2143 77.431 67.1919 77.4214 67.1538L77.2839 66.609L76.5169 63.4143C76.5066 63.3719 76.4798 63.3555 76.4365 63.365C74.3809 63.8285 72.3064 64.183 70.2127 64.4286C70.0631 64.4459 69.9493 64.4057 69.8714 64.308C69.8446 64.2741 69.8264 64.2342 69.8184 64.1917C69.8103 64.1492 69.8126 64.1054 69.8251 64.0641C69.8376 64.0227 69.8599 63.9849 69.8901 63.954C69.9203 63.9231 69.9575 63.8999 69.9986 63.8864C72.3812 63.1012 74.7958 62.326 77.2424 61.5607C83.5855 59.5775 89.6912 57.1895 93.6297 51.4823C94.4083 50.3538 95.3284 49.1125 96.8519 49.093C97.1789 49.0878 98.5583 49.106 98.317 48.4821C98.0998 47.92 97.8104 47.3415 97.4488 46.7465C97.0971 46.0837 96.0525 44.3365 97.3878 44.0097C97.5496 43.9699 97.7421 43.9932 97.9653 44.0797C98.7456 44.3806 99.5307 44.5769 100.321 44.6686C100.349 44.672 100.379 44.6676 100.405 44.6559C100.432 44.6442 100.455 44.6257 100.472 44.6022C100.489 44.5787 100.499 44.551 100.502 44.5221C100.505 44.4932 100.5 44.4641 100.488 44.4377C99.6393 42.614 98.8659 40.8551 98.3273 38.8745C97.5526 36.0221 96.7909 33.1685 95.8955 30.3512C94.9014 27.5962 93.7231 24.8061 92.2048 22.2897C92.1802 22.2492 92.1662 22.203 92.1642 22.1554C92.1621 22.1078 92.1721 22.0603 92.1931 22.0174C93.4104 19.5537 94.4697 17.0093 95.3712 14.3839C96.155 12.0993 96.6615 10.0339 96.8908 8.18768C97.1425 6.16421 97.1945 3.99157 96.0174 2.22621C95.3115 1.16778 92.5682 1.71127 91.4521 1.98755C86.931 3.10824 82.415 4.95272 78.1858 6.89318ZM8.89526 47.4794C3.45402 50.7637 1.07145 56.7044 1.73717 62.911C1.86607 64.113 2.20347 65.1515 2.74937 66.0266C4.33905 68.5378 7.68062 68.8063 9.89319 67.1564C10.7847 66.491 11.5646 65.4066 11.9345 64.3676C12.3212 63.2807 12.5301 62.5478 12.5613 62.1691C12.7922 59.3608 14.0056 57.0027 16.5711 55.7082C21.7126 53.4733 27.0708 56.7122 27.0033 62.4596C26.6581 64.3547 25.7848 66.0396 24.7985 67.5598C22.2343 71.5108 18.7513 75.7341 17.6677 80.5152C17.1625 82.5499 17.2096 84.4567 17.8091 86.2354C19.8803 92.3759 25.6044 95.3774 31.7737 95.8859C31.8238 95.8893 31.8532 95.8664 31.8619 95.8171C32.1361 94.3713 32.5406 92.9561 33.0752 91.5717L33.9045 89.3355C33.9209 89.2897 33.9049 89.2624 33.8565 89.2538C30.3099 88.639 25.315 87.0163 24.744 82.8267C24.6471 82.1158 24.6904 81.2563 24.8738 80.248C25.9379 74.4215 30.2683 70.3953 32.8443 65.0318C34.0165 62.5906 34.5607 60.0107 34.4768 57.292C34.4759 57.2539 34.4647 57.2198 34.443 57.1895C34.0035 56.5677 33.4369 56.1008 32.743 55.7886C32.6983 55.7684 32.6483 55.763 32.6003 55.7731C31.7282 55.9573 30.6706 55.978 29.9037 55.5603C28.3218 54.6965 29.1523 52.9117 29.5831 51.599C29.6022 51.5411 29.584 51.5246 29.5286 51.5497C28.1829 52.1503 25.8847 52.2722 26.2636 50.0269C26.4505 48.9166 26.7736 47.8426 27.0617 46.753C27.0669 46.7353 27.0656 46.7162 27.058 46.6991C27.0504 46.682 27.037 46.6681 27.0202 46.6596C21.4985 43.8813 14.1276 44.3677 8.89526 47.4794ZM88.7685 61.6282C88.7832 62.3035 88.8931 62.8725 89.0981 63.3351C89.8395 65.0024 91.0819 65.4771 92.8251 64.7594C93.1405 64.6297 93.4545 64.8372 93.7049 65.0979C93.9273 65.3288 94.2067 65.4857 94.5433 65.5688C96.3626 66.0163 97.8394 65.2497 99.2448 64.1108C99.2791 64.0833 99.3221 64.0694 99.3655 64.0719C99.9365 64.1082 100.549 64.26 101.059 64.1575C102.069 63.9543 102.667 63.2733 102.855 62.1146C103.16 60.1257 102.357 58.8675 100.446 58.34C97.3268 57.4787 92.964 57.1856 90.2686 59.1909C89.4762 59.7807 88.9761 60.5931 88.7685 61.6282ZM26.3415 81.6281C25.9509 85.7996 31.5076 87.3017 34.6026 87.7154C34.6433 87.7206 34.674 87.7051 34.6948 87.6687C36.7996 83.9292 39.4794 80.689 42.0449 77.2738C44.9816 73.3643 47.2474 68.9464 48.8293 64.3261C48.8318 64.3187 48.8328 64.3109 48.832 64.3031C48.8313 64.2953 48.8288 64.2877 48.8249 64.281C48.8209 64.2742 48.8156 64.2683 48.8092 64.2638C48.8028 64.2593 48.7955 64.2562 48.7878 64.2548C47.7643 64.0602 46.7413 63.8397 45.7187 63.5933C42.1353 62.7311 38.9413 61.1188 36.1365 58.7564C36.1062 58.7313 36.0902 58.7382 36.0885 58.7771C35.912 62.5413 34.5079 65.919 32.4718 69.0683C29.9595 72.9544 26.7892 76.8367 26.3415 81.6281ZM88.4648 58.8861L88.4 58.7642L88.3955 58.7586L88.3893 58.7551L88.3822 58.7544L88.3753 58.7564L88.3584 58.7655C87.9395 58.9862 87.5257 59.2067 87.141 59.4141C86.7562 59.6215 86.4081 59.8117 86.1167 59.9738C85.8253 60.1359 85.5964 60.2666 85.4433 60.3584C85.2902 60.4502 85.2158 60.5013 85.2245 60.5088L85.2297 60.5192C85.23 60.531 85.3135 60.4989 85.4754 60.4247C85.6373 60.3506 85.8743 60.2358 86.1728 60.0871C86.4713 59.9383 86.8252 59.7586 87.2142 59.5582C87.6032 59.3579 88.0195 59.1409 88.4389 58.9198L88.4571 58.9108L88.4627 58.9063L88.4661 58.9001L88.4669 58.8929L88.4648 58.8861ZM103.714 64.273C103.682 64.2937 103.662 64.3192 103.654 64.3495C102.695 65.5791 101.393 65.9177 99.869 65.7594C99.8262 65.7552 99.7836 65.7658 99.7483 65.7893C97.8796 67.0721 96.2666 67.5935 93.9827 67.1058C93.6773 67.0401 93.3053 66.8442 92.8666 66.5182C92.8312 66.4914 92.7922 66.4832 92.7498 66.4936C91.6494 66.7556 90.4114 66.8295 89.4174 66.1576C88.5072 65.5437 87.8688 64.7243 87.502 63.6996C87.4085 63.4376 87.3748 63.0887 87.2528 62.7839L87.1684 61.8188C87.165 61.7808 87.1459 61.7695 87.1113 61.7851L86.5637 62.0329C83.8438 63.2374 81.5291 64.9647 79.6198 67.2148C79.6142 67.221 79.6105 67.2286 79.609 67.2367C79.6075 67.2449 79.6083 67.2533 79.6112 67.261C79.6142 67.2688 79.6192 67.2756 79.6257 67.2807C79.6323 67.2858 79.6401 67.289 79.6483 67.29C80.901 67.4604 82.0434 67.8439 83.0755 68.4405C84.9066 69.4367 86.1549 70.8557 86.2458 73.0141C86.2665 73.4824 86.591 73.9247 86.7298 74.2554C87.0889 75.1158 87.1702 75.9948 86.9738 76.8924C86.7549 77.8575 86.2726 78.634 85.5269 79.222C85.4965 79.2456 85.4725 79.2764 85.4569 79.3117C85.4413 79.347 85.4345 79.3857 85.4373 79.4244C85.6969 82.9564 82.7459 84.8164 79.6379 85.107C78.4518 85.2185 77.2683 85.3806 76.0861 85.5804C76.0616 85.5844 76.0382 85.5936 76.0174 85.6072C75.9966 85.6209 75.9789 85.6387 75.9655 85.6596C75.952 85.6805 75.9431 85.704 75.9393 85.7286C75.9355 85.7531 75.9369 85.7782 75.9434 85.8022L76.3444 87.2822C77.8224 92.0866 80.4113 96.7329 83.4674 100.694C83.4725 100.701 83.4757 100.709 83.4765 100.718C83.4774 100.73 83.4787 100.742 83.4804 100.754C83.483 100.773 83.4912 100.79 83.5051 100.806C84.3598 101.824 85.0359 102.66 85.5334 103.312C85.7765 103.631 85.9789 103.868 86.1407 104.024C86.4288 104.613 86.831 105.081 87.3475 105.429C89.7474 107.967 91.5849 109.835 92.8601 111.032C96.8843 114.809 101.745 118.522 106.512 121.868C108.505 123.266 110.009 124.467 112.089 124.296C113.025 124.22 114.549 123.736 115.235 122.96C115.262 122.929 115.299 122.909 115.34 122.903C115.672 122.858 115.816 122.644 116.025 122.504C120.647 119.426 125.075 116 129.309 112.225C133.238 108.722 136.96 104.86 140.091 100.69C141.534 98.7693 142.663 96.9067 143.871 95.0155C144.359 94.2515 144.688 93.2878 145.116 92.4978C145.196 92.3513 145.305 92.1295 145.368 91.9972C146.581 89.4488 147.46 86.7595 148.004 83.9292C148.061 83.6352 148.1 83.3619 148.123 83.1094C148.164 82.6541 148.32 82.1327 148.283 81.6255L148.369 80.3297L148.372 78.6474L148.315 77.6357C148.146 75.8664 147.736 74.1543 147.086 72.4992C140.935 57.3361 120.044 56.3347 112.594 70.9102C112.118 71.8441 111.358 71.7442 110.909 70.8648C109.351 67.8123 107.13 65.3452 104.245 63.4636C104.206 63.4376 104.175 63.445 104.153 63.4856L103.714 64.273ZM78.7749 65.6959C79.7119 64.666 80.7371 63.7308 81.8505 62.8902C81.9093 62.8453 81.902 62.8254 81.8284 62.8306C80.657 62.9145 79.4844 62.94 78.3104 62.9071C78.2818 62.9063 78.2534 62.9121 78.2275 62.924C78.2015 62.936 78.1786 62.9537 78.1607 62.976C78.1427 62.9982 78.1301 63.0242 78.1239 63.0521C78.1177 63.08 78.118 63.109 78.1248 63.1367L78.7633 65.6933L78.765 65.6966L78.7682 65.6985L78.772 65.6982L78.7749 65.6959ZM74.2512 106.996C68.7554 112.31 60.0076 114.105 52.6238 113.628C52.5805 113.625 52.5515 113.644 52.5368 113.685C51.7504 115.811 51.3533 118.384 51.7984 120.62C52.2318 122.803 53.1052 124.12 55.2944 124.798C55.942 124.999 57.5057 125.416 58.0767 124.977C58.8726 124.364 59.2494 123.507 59.207 122.406L59.1849 121.388C59.184 121.34 59.2009 121.333 59.2355 121.367C59.5548 121.689 59.7823 122.042 59.9181 122.427C60.0695 123.473 59.8917 124.419 59.3848 125.263C59.3808 125.269 59.3787 125.277 59.3786 125.285C59.3785 125.292 59.3803 125.3 59.384 125.307C59.3877 125.313 59.3931 125.319 59.3996 125.323C59.4061 125.327 59.4135 125.329 59.4211 125.329C60.4947 125.363 61.5705 125.378 62.6485 125.373C63.1347 125.37 63.5002 125.33 63.745 125.252C65.0116 124.85 65.7071 123.675 65.3178 122.356C65.1656 121.927 64.9367 121.553 64.6313 121.234C64.6272 121.229 64.6247 121.223 64.6243 121.217C64.624 121.211 64.6258 121.205 64.6294 121.2C64.6331 121.195 64.6383 121.192 64.6441 121.19C64.6499 121.189 64.656 121.19 64.6612 121.194C65.1647 121.468 65.5782 121.842 65.9018 122.317C66.369 123.276 66.3158 124.209 65.7422 125.116C65.7382 125.123 65.736 125.13 65.736 125.138C65.736 125.146 65.7381 125.153 65.7421 125.16C65.7461 125.167 65.7519 125.172 65.7587 125.176C65.7656 125.18 65.7733 125.181 65.7811 125.181C66.4663 125.138 67.0831 124.946 67.6316 124.605C68.7775 123.89 69.3783 122.035 68.8813 120.811C68.1637 119.409 66.648 118.756 65.2101 118.378C63.2636 117.864 61.2915 117.553 59.2939 117.444C59.2877 117.444 59.2816 117.442 59.277 117.438C59.2724 117.434 59.2696 117.428 59.2693 117.422C59.2689 117.415 59.271 117.409 59.2752 117.405C59.2793 117.4 59.2851 117.397 59.2913 117.397C61.41 117.04 63.5361 116.904 65.6695 116.99C65.9429 117.001 66.1959 116.968 66.4287 116.892C71.3599 115.27 74.4316 111.751 74.7625 106.494C74.7659 106.443 74.7504 106.436 74.7157 106.474L74.2512 106.996Z" fill="black"/>
<path d="M95.8955 30.3512L95.4218 30.5497L95.3465 30.4044C95.3414 30.3949 95.3336 30.3901 95.3232 30.3901C95.3119 30.3901 95.3003 30.3906 95.2881 30.3914L95.2811 30.3901L95.2766 30.3845L95.2768 30.3773L95.2817 30.372L95.5762 30.1995C95.6255 30.1709 95.639 30.1307 95.6165 30.0788C95.0628 28.8007 94.5125 27.5214 93.9658 26.2407C93.9346 26.1689 93.9195 26.1071 93.9204 26.0552C93.9204 26.0262 93.9137 25.9974 93.9009 25.9709C93.4649 25.0872 93.0267 24.2038 92.5863 23.3209C92.3904 22.9292 91.6221 22.3416 91.992 21.8241C92.1244 21.6382 92.1996 21.5249 92.2178 21.4842C92.364 21.1435 92.5245 20.8098 92.6992 20.4829C92.9095 20.0886 93.034 19.645 93.2352 19.2351C93.8633 17.9574 94.4135 16.4787 94.7081 15.6421C95.305 13.9472 95.815 12.2277 96.2381 10.4835C96.5261 9.29281 96.6455 8.02814 96.8077 6.78292C96.8614 6.37823 96.8419 5.64364 96.7494 4.57915C96.745 4.53678 96.7329 4.49744 96.713 4.46112C96.6386 4.32622 96.585 4.11738 96.5521 3.83462C96.5019 3.40138 96.2844 2.99755 95.8994 2.62313C95.8665 2.59113 95.847 2.55265 95.841 2.50769C95.8288 2.40824 95.7942 2.31701 95.7371 2.234C95.7129 2.19854 95.6796 2.17563 95.6372 2.16525C95.4581 2.11985 95.3647 1.9629 95.2259 1.89805C94.7249 1.66457 93.2949 1.84746 92.7369 1.96031C92.0136 2.10731 91.293 2.26556 90.5749 2.43505C90.3244 2.49471 90.0675 2.64907 89.7742 2.69706C89.7379 2.70297 89.7035 2.72014 89.6756 2.74635C89.503 2.91108 89.2772 2.84752 89.1033 2.89552C88.1214 3.16877 87.1611 3.50342 86.2224 3.89947C85.8734 4.04734 85.3763 4.12906 85.0584 4.30546C84.7911 4.45333 84.5436 4.52208 84.3161 4.5117C84.272 4.50997 84.23 4.51905 84.1902 4.53894C83.3493 4.95229 82.4946 5.33277 81.626 5.68039C80.4853 6.13567 79.4095 6.63505 78.2831 7.07088C78.2451 7.08472 78.226 7.07175 78.226 7.03197C78.2252 6.97836 78.2117 6.93209 78.1858 6.89318C82.415 4.95272 86.931 3.10824 91.4521 1.98755C92.5682 1.71127 95.3115 1.16778 96.0174 2.22621C97.1945 3.99157 97.1425 6.16421 96.8908 8.18768C96.6615 10.0339 96.155 12.0993 95.3712 14.3839C94.4697 17.0093 93.4104 19.5537 92.1931 22.0174C92.1721 22.0603 92.1621 22.1078 92.1642 22.1554C92.1662 22.203 92.1802 22.2492 92.2048 22.2897C93.7231 24.8061 94.9014 27.5962 95.8955 30.3512Z" fill="#F27E82"/>
<path d="M95.4218 30.5497C85.6696 35.3217 73.7892 32.0115 68.0806 22.7463C65.0259 17.7888 63.9578 11.5083 65.7331 5.76211C69.2948 5.85896 72.742 6.5395 76.0744 7.80374C76.1177 7.82017 76.1601 7.81887 76.2016 7.79985L78.1858 6.89318C78.2117 6.93209 78.2252 6.97836 78.226 7.03197C78.226 7.07175 78.2451 7.08472 78.2831 7.07088C79.4095 6.63505 80.4853 6.13567 81.626 5.68039C82.4946 5.33277 83.3493 4.95229 84.1902 4.53894C84.23 4.51905 84.272 4.50997 84.3161 4.5117C84.5436 4.52208 84.7911 4.45333 85.0584 4.30546C85.3763 4.12906 85.8734 4.04734 86.2224 3.89947C87.1611 3.50342 88.1214 3.16877 89.1033 2.89552C89.2772 2.84752 89.503 2.91108 89.6756 2.74635C89.7035 2.72014 89.7379 2.70297 89.7742 2.69706C90.0675 2.64907 90.3244 2.49471 90.5749 2.43505C91.293 2.26556 92.0136 2.10731 92.7369 1.96031C93.2949 1.84746 94.7249 1.66457 95.2259 1.89805C95.3647 1.9629 95.4581 2.11985 95.6372 2.16525C95.6796 2.17563 95.7129 2.19854 95.7371 2.234C95.7942 2.31701 95.8288 2.40824 95.841 2.50769C95.847 2.55265 95.8665 2.59113 95.8994 2.62313C96.2844 2.99755 96.5019 3.40138 96.5521 3.83462C96.585 4.11738 96.6386 4.32622 96.713 4.46112C96.7329 4.49744 96.745 4.53678 96.7494 4.57915C96.8419 5.64364 96.8614 6.37823 96.8077 6.78292C96.6455 8.02814 96.5261 9.29281 96.2381 10.4835C95.815 12.2277 95.305 13.9472 94.7081 15.6421C94.4135 16.4787 93.8633 17.9574 93.2352 19.2351C93.034 19.645 92.9095 20.0886 92.6992 20.4829C92.5245 20.8098 92.364 21.1435 92.2178 21.4842C92.1996 21.5249 92.1244 21.6382 91.992 21.8241C91.6221 22.3416 92.3904 22.9292 92.5863 23.3209C93.0267 24.2038 93.4649 25.0872 93.9009 25.9709C93.9137 25.9974 93.9204 26.0262 93.9204 26.0552C93.9195 26.1071 93.9346 26.1689 93.9658 26.2407C94.5125 27.5214 95.0628 28.8007 95.6165 30.0788C95.639 30.1307 95.6255 30.1709 95.5762 30.1995L95.2817 30.372L95.2768 30.3773L95.2766 30.3845L95.2811 30.3901L95.2881 30.3914C95.3003 30.3906 95.3119 30.3901 95.3232 30.3901C95.3336 30.3901 95.3414 30.3949 95.3465 30.4044L95.4218 30.5497ZM82.4838 9.94136C81.764 10.6012 81.6822 11.3068 82.2385 12.0582C82.4375 12.5356 82.6564 12.8741 82.8951 13.0739C83.7767 13.8123 84.5627 14.6399 85.253 15.5565C85.6813 16.1259 86.1485 16.5099 86.5585 17.1558C86.9141 17.7149 87.3333 18.1689 87.6771 18.7642C88.0379 19.3907 88.8607 20.5711 89.7639 20.3104C90.3521 20.1409 90.7743 19.7673 91.0304 19.1897C91.1654 18.8836 91.3955 18.456 91.7208 17.9068C92.3372 16.8666 92.7122 15.6525 93.2624 14.5448C93.3909 14.2853 93.3896 14.0181 93.5025 13.7445C93.6833 13.3 93.8412 12.8482 93.9762 12.389C94.0761 12.0479 94.0618 11.6016 94.2072 11.2242C94.3049 10.9682 94.3625 10.7633 94.3798 10.6094C94.577 8.91146 95.2414 4.99941 92.6058 4.85544C91.8765 4.81652 90.9992 5.22122 90.2492 5.43913C89.8832 5.5442 89.529 5.73357 89.15 5.85031C88.3779 6.09027 87.7096 6.46903 86.9868 6.78682C85.8448 7.28879 84.8741 7.97755 83.6997 8.65853C83.1296 8.98886 82.7243 9.41647 82.4838 9.94136Z" fill="#F9744B"/>
<path d="M82.2385 12.0582C84.6228 14.1431 86.6416 16.522 88.2948 19.1949C88.6842 19.8253 89.2642 20.3311 89.9883 19.9459C90.2418 19.811 90.523 19.4897 90.8318 18.9821C92.5604 16.1415 93.692 13.092 94.2266 9.8337C94.4485 8.48212 94.7678 5.32369 92.7083 5.07724C92.4263 5.04351 91.9989 5.12004 91.4262 5.30682C88.1858 6.36655 85.196 7.84136 82.4838 9.94136C82.7243 9.41647 83.1296 8.98886 83.6997 8.65853C84.8741 7.97755 85.8448 7.28879 86.9868 6.78682C87.7096 6.46903 88.3779 6.09027 89.15 5.85031C89.529 5.73357 89.8832 5.5442 90.2492 5.43913C90.9992 5.22122 91.8765 4.81652 92.6058 4.85544C95.2414 4.99941 94.577 8.91146 94.3798 10.6094C94.3625 10.7633 94.3049 10.9682 94.2072 11.2242C94.0618 11.6016 94.0761 12.0479 93.9762 12.389C93.8412 12.8482 93.6833 13.3 93.5025 13.7445C93.3896 14.0181 93.3909 14.2853 93.2624 14.5448C92.7122 15.6525 92.3372 16.8666 91.7208 17.9068C91.3955 18.456 91.1654 18.8836 91.0304 19.1897C90.7743 19.7673 90.3521 20.1409 89.7639 20.3104C88.8607 20.5711 88.0379 19.3907 87.6771 18.7642C87.3333 18.1689 86.9141 17.7149 86.5585 17.1558C86.1485 16.5099 85.6813 16.1259 85.253 15.5565C84.5627 14.6399 83.7767 13.8123 82.8951 13.0739C82.6564 12.8741 82.4375 12.5356 82.2385 12.0582Z" fill="#F27E82"/>
<path d="M82.2385 12.0582C81.6822 11.3068 81.764 10.6012 82.4838 9.94136C85.196 7.84136 88.1858 6.36655 91.4262 5.30682C91.9989 5.12004 92.4263 5.04351 92.7083 5.07724C94.7678 5.32369 94.4485 8.48212 94.2266 9.8337C93.692 13.092 92.5604 16.1415 90.8318 18.9821C90.523 19.4897 90.2418 19.811 89.9883 19.9459C89.2642 20.3311 88.6842 19.8253 88.2948 19.1949C86.6416 16.522 84.6228 14.1431 82.2385 12.0582ZM89.5705 7.26025C87.2 8.20454 85.0493 9.44414 83.1183 10.979C83.0991 10.9943 83.0835 11.0135 83.0725 11.0354C83.0616 11.0574 83.0556 11.0814 83.055 11.1059C83.0544 11.1304 83.0591 11.1548 83.069 11.1772C83.0788 11.1997 83.0934 11.2197 83.1118 11.2359C84.7236 12.654 86.1381 14.169 87.3553 15.7809L89.4641 18.7941C89.49 18.8312 89.5151 18.8308 89.5393 18.7928C91.2238 16.1666 92.3588 13.3194 92.9445 10.2514C93.0665 9.6106 93.7698 5.81658 92.1711 6.30688C91.2635 6.58446 90.3967 6.90225 89.5705 7.26025Z" fill="black"/>
<path d="M65.7331 5.76211C63.9578 11.5083 65.0259 17.7888 68.0806 22.7463C73.7892 32.0115 85.6696 35.3217 95.4218 30.5497L95.8955 30.3512C96.7909 33.1685 97.5526 36.0221 98.3273 38.8745C98.8659 40.8551 99.6393 42.614 100.488 44.4377C100.5 44.4641 100.505 44.4932 100.502 44.5221C100.499 44.551 100.489 44.5787 100.472 44.6022C100.455 44.6257 100.432 44.6442 100.405 44.6559C100.379 44.6676 100.349 44.672 100.321 44.6686C99.5307 44.5769 98.7456 44.3806 97.9653 44.0797C97.7421 43.9932 97.5496 43.9699 97.3878 44.0097C96.0525 44.3365 97.0971 46.0837 97.4488 46.7465C96.9777 46.7777 96.29 46.7063 95.8747 46.923C95.3089 47.217 94.8755 47.5888 94.5744 48.0385C91.748 52.2592 88.2637 54.9831 83.6815 56.9067C76.2483 60.0288 68.0573 62.016 59.9506 61.7229C55.3385 61.556 50.7966 60.9251 46.3247 59.8304C41.6634 58.6889 37.8105 56.5863 34.5663 53.1127C34.1459 52.6613 32.9961 51.6963 32.3174 51.8247C31.9566 51.8921 31.592 51.9159 31.2234 51.896C31.3913 51.3634 31.5223 50.861 31.6166 50.3888C31.7957 49.4977 31.0171 48.9659 30.2463 49.4095C29.5654 49.8012 28.8383 50.1138 28.0648 50.3473C27.891 50.4 27.8235 50.3373 27.8624 50.1592C28.1168 48.9996 28.4606 47.8672 28.7176 46.7076C28.8794 45.9778 29.0113 45.1243 29.1134 44.1472C29.4932 40.4928 29.7722 38.0802 29.9504 36.9094C30.4738 33.4746 31.3506 30.1346 32.5808 26.8893C32.5964 26.8486 32.5916 26.8106 32.5666 26.7751C29.8141 22.8683 23.1167 12.4007 25.6965 7.69349C26.2753 6.63765 28.6008 6.75698 29.6571 6.82573C31.6201 6.95457 33.5671 7.20967 35.498 7.59102C39.0736 8.29751 42.6112 9.16137 46.1106 10.1826C46.1521 10.1947 46.1924 10.1895 46.2313 10.1671C52.1683 6.71288 58.9085 5.61683 65.7331 5.76211ZM33.5762 23.6828C34.4002 24.618 35.28 24.7023 35.8536 23.4584C37.1552 20.6333 38.536 18.0923 40.5085 15.6719C41.2702 14.738 41.23 13.8703 40.1386 13.2451C37.0735 11.4914 33.5567 10.5056 30.0789 9.98935C28.8837 9.81295 28.0687 10.8908 28.0973 12.0063C28.2011 16.0533 30.9717 20.7241 33.5762 23.6828ZM52.0624 46.515C52.6823 46.4662 53.2829 46.2493 53.8299 45.8768C54.3768 45.5042 54.8594 44.9832 55.2502 44.3435C55.6409 43.7039 55.932 42.9581 56.107 42.1487C56.282 41.3393 56.3374 40.4822 56.27 39.6264C56.1339 37.8979 55.506 36.2794 54.5244 35.1268C53.5429 33.9742 52.2881 33.382 51.0361 33.4805C50.4162 33.5293 49.8156 33.7461 49.2686 34.1187C48.7217 34.4913 48.2391 35.0123 47.8484 35.652C47.4577 36.2916 47.1665 37.0374 46.9915 37.8468C46.8166 38.6562 46.7612 39.5132 46.8286 40.3691C46.9647 42.0976 47.5926 43.7161 48.5741 44.8687C49.5556 46.0213 50.8104 46.6135 52.0624 46.515ZM75.5722 39.2415C75.5615 39.2415 75.5511 39.2383 75.5423 39.2323C75.5334 39.2263 75.5266 39.2178 75.5227 39.2079C75.5187 39.1979 75.5179 39.187 75.5203 39.1766C75.5226 39.1662 75.5281 39.1567 75.5359 39.1494C77.0291 37.8238 78.7248 36.8428 80.6229 36.2063C80.6609 36.1936 80.6944 36.1697 80.7189 36.1376C80.8815 35.9188 80.8638 35.7182 80.6657 35.5357C80.6371 35.5098 80.6038 35.4951 80.5658 35.4916C77.1567 35.1401 73.9164 36.9976 72.2514 39.9108C72.0299 40.2982 71.9088 40.5974 71.8881 40.8084C71.8076 41.6191 72.6991 42.0874 73.4284 41.7579C75.5099 40.8153 77.6542 40.7034 79.8611 41.422C80.3075 41.5672 80.5411 41.0419 80.2128 40.7877C78.845 39.7275 77.2982 39.2121 75.5722 39.2415ZM64.6262 45.9761C65.3788 45.679 67.0892 44.6517 66.7829 43.6569C66.5831 43.0057 65.7136 42.6763 65.0894 42.5906C63.8657 42.4259 62.472 42.588 61.4131 43.2158C60.8533 43.5488 60.6435 43.9604 60.7837 44.4507C61.0575 45.4092 62.6212 45.9813 63.5088 46.1304C63.5512 46.1373 63.5703 46.162 63.5659 46.2044C63.5201 46.6523 63.4254 47.0483 63.2817 47.3925C62.8911 48.3199 61.6869 49.1436 60.6461 48.6377C60.1928 48.4181 59.7957 48.0895 59.4548 47.6519C59.2251 47.3562 58.9565 47.1318 58.6464 47.4794C58.6187 47.5114 58.6031 47.5486 58.5997 47.591C58.5893 47.731 58.5906 47.8205 58.6035 47.8595C59.5093 50.5652 62.9249 50.7092 64.1862 48.2058C64.2105 48.1574 64.239 48.1548 64.2719 48.198C66.0121 50.525 69.268 49.7895 69.7391 46.875C69.745 46.8378 69.7396 46.7994 69.7235 46.7647C69.624 46.5433 69.4471 46.4621 69.1928 46.5209C69.1533 46.5301 69.1184 46.5531 69.0941 46.5857C68.8242 46.9424 68.588 47.4003 68.3181 47.674C66.7531 49.2629 64.9376 47.8141 64.5781 46.0643C64.5695 46.0219 64.5855 45.9925 64.6262 45.9761ZM85.4972 48.4269C85.4804 48.209 85.3746 48.0001 85.1857 47.8121C84.9969 47.6241 84.7287 47.4608 84.3966 47.3313C84.0644 47.2019 83.6747 47.1089 83.2498 47.0577C82.8249 47.0065 82.373 46.9981 81.92 47.0329C81.0052 47.1033 80.1412 47.3456 79.5183 47.7065C78.8953 48.0674 78.5644 48.5174 78.5983 48.9575C78.6151 49.1754 78.7209 49.3843 78.9097 49.5723C79.0986 49.7603 79.3667 49.9236 79.6989 50.0531C80.0311 50.1825 80.4208 50.2755 80.8457 50.3267C81.2706 50.3779 81.7225 50.3863 82.1755 50.3515C83.0903 50.2811 83.9543 50.0388 84.5772 49.6779C85.2001 49.317 85.5311 48.867 85.4972 48.4269ZM50.3577 51.1522C50.3231 50.7132 49.926 50.3208 49.2538 50.0614C48.5816 49.8019 47.6893 49.6967 46.7732 49.7687C45.8571 49.8408 44.9922 50.0843 44.3689 50.4457C43.7456 50.807 43.4148 51.2566 43.4493 51.6956C43.4839 52.1346 43.881 52.527 44.5532 52.7864C45.2254 53.0459 46.1177 53.1511 47.0338 53.0791C47.9499 53.007 48.8148 52.7635 49.4381 52.4021C50.0615 52.0408 50.3922 51.5911 50.3577 51.1522Z" fill="white"/>
<path d="M87.3553 15.7809C88.6383 13.0994 89.3767 10.2591 89.5705 7.26025C90.3967 6.90225 91.2635 6.58446 92.1711 6.30688C93.7698 5.81658 93.0665 9.6106 92.9445 10.2514C92.3588 13.3194 91.2238 16.1666 89.5393 18.7928C89.5151 18.8308 89.49 18.8312 89.4641 18.7941L87.3553 15.7809Z" fill="#FF1D76"/>
<path d="M89.5705 7.26025C89.3767 10.2591 88.6383 13.0994 87.3553 15.7809C86.1381 14.169 84.7236 12.654 83.1118 11.2359C83.0934 11.2197 83.0788 11.1997 83.069 11.1772C83.0591 11.1548 83.0544 11.1304 83.055 11.1059C83.0556 11.0814 83.0616 11.0574 83.0725 11.0354C83.0835 11.0135 83.0991 10.9943 83.1183 10.979C85.0493 9.44414 87.2 8.20454 89.5705 7.26025Z" fill="#B31273"/>
<path d="M33.5762 23.6828C30.9717 20.7241 28.2011 16.0533 28.0973 12.0063C28.0687 10.8908 28.8837 9.81295 30.0789 9.98935C33.5567 10.5056 37.0735 11.4914 40.1386 13.2451C41.23 13.8703 41.2702 14.738 40.5085 15.6719C38.536 18.0923 37.1552 20.6333 35.8536 23.4584C35.28 24.7023 34.4002 24.618 33.5762 23.6828ZM36.3247 19.7812C37.3248 17.9462 38.491 16.2271 39.8233 14.6239C39.837 14.6073 39.8469 14.588 39.8523 14.5672C39.8577 14.5465 39.8586 14.5248 39.8547 14.5038C39.8509 14.4827 39.8425 14.4628 39.8301 14.4455C39.8177 14.4281 39.8016 14.4138 39.783 14.4034C37.5623 13.1374 35.168 12.2307 32.6003 11.6834C31.7551 11.4715 30.8925 11.3102 30.0127 11.1995C28.5943 11.0218 29.5909 14.1271 29.7869 14.7134C30.8302 17.8377 32.4441 20.6372 34.6286 23.1121C34.6623 23.151 34.6905 23.1471 34.7129 23.1004L36.3247 19.7812Z" fill="black"/>
<path d="M32.6003 11.6834C32.7603 11.7776 32.8473 11.8546 32.8611 11.9142C33.5039 14.7566 34.6584 17.3789 36.3247 19.7812L34.7129 23.1004C34.6905 23.1471 34.6623 23.151 34.6286 23.1121C32.4441 20.6372 30.8302 17.8377 29.7869 14.7134C29.5909 14.1271 28.5943 11.0218 30.0127 11.1995C30.8925 11.3102 31.7551 11.4715 32.6003 11.6834Z" fill="#FF1D76"/>
<path d="M32.6003 11.6834C35.168 12.2307 37.5623 13.1374 39.783 14.4034C39.8016 14.4138 39.8177 14.4281 39.8301 14.4455C39.8425 14.4628 39.8509 14.4827 39.8547 14.5038C39.8586 14.5248 39.8577 14.5465 39.8523 14.5672C39.8469 14.588 39.837 14.6073 39.8233 14.6239C38.491 16.2271 37.3248 17.9462 36.3247 19.7812C34.6584 17.3789 33.5039 14.7566 32.8611 11.9142C32.8473 11.8546 32.7603 11.7776 32.6003 11.6834Z" fill="#B31273"/>
<path d="M52.0624 46.515C50.8104 46.6135 49.5556 46.0213 48.5741 44.8687C47.5926 43.7161 46.9647 42.0976 46.8286 40.3691C46.7612 39.5132 46.8166 38.6562 46.9915 37.8468C47.1665 37.0374 47.4577 36.2916 47.8484 35.652C48.2391 35.0123 48.7217 34.4913 49.2686 34.1187C49.8156 33.7461 50.4162 33.5293 51.0361 33.4805C52.2881 33.382 53.5429 33.9742 54.5244 35.1268C55.506 36.2794 56.1339 37.8979 56.27 39.6264C56.3374 40.4822 56.282 41.3393 56.107 42.1487C55.932 42.9581 55.6409 43.7039 55.2502 44.3435C54.8594 44.9832 54.3768 45.5042 53.8299 45.8768C53.2829 46.2493 52.6823 46.4662 52.0624 46.515ZM52.8426 41.0601C53.2208 41.031 53.5657 40.7728 53.8016 40.3424C54.0374 39.9119 54.1448 39.3445 54.1002 38.7648C54.0781 38.4778 54.0194 38.1964 53.9273 37.9367C53.8352 37.6771 53.7116 37.4442 53.5636 37.2514C53.4156 37.0587 53.246 36.9098 53.0646 36.8132C52.8831 36.7167 52.6934 36.6744 52.5061 36.6888C52.128 36.7179 51.783 36.9761 51.5472 37.4065C51.3113 37.837 51.2039 38.4044 51.2485 38.9841C51.2706 39.2711 51.3294 39.5525 51.4214 39.8122C51.5135 40.0718 51.6371 40.3047 51.7851 40.4975C51.9331 40.6903 52.1027 40.8392 52.2842 40.9357C52.4656 41.0322 52.6554 41.0745 52.8426 41.0601Z" fill="black"/>
<path d="M75.5722 39.2415C77.2982 39.2121 78.845 39.7275 80.2128 40.7877C80.5411 41.0419 80.3075 41.5672 79.8611 41.422C77.6542 40.7034 75.5099 40.8153 73.4284 41.7579C72.6991 42.0874 71.8076 41.6191 71.8881 40.8084C71.9088 40.5974 72.0299 40.2982 72.2514 39.9108C73.9164 36.9976 77.1567 35.1401 80.5658 35.4916C80.6038 35.4951 80.6371 35.5098 80.6657 35.5357C80.8638 35.7182 80.8815 35.9188 80.7189 36.1376C80.6944 36.1697 80.6609 36.1936 80.6229 36.2063C78.7248 36.8428 77.0291 37.8238 75.5359 39.1494C75.5281 39.1567 75.5226 39.1662 75.5203 39.1766C75.5179 39.187 75.5187 39.1979 75.5227 39.2079C75.5266 39.2178 75.5334 39.2263 75.5423 39.2323C75.5511 39.2383 75.5615 39.2415 75.5722 39.2415Z" fill="black"/>
<path d="M52.8426 41.0601C52.6554 41.0745 52.4656 41.0322 52.2842 40.9357C52.1027 40.8392 51.9331 40.6903 51.7851 40.4975C51.6371 40.3047 51.5135 40.0718 51.4214 39.8122C51.3294 39.5525 51.2706 39.2711 51.2485 38.9841C51.2039 38.4044 51.3113 37.837 51.5472 37.4065C51.783 36.9761 52.128 36.7179 52.5061 36.6888C52.6934 36.6744 52.8831 36.7167 53.0646 36.8132C53.246 36.9098 53.4156 37.0587 53.5636 37.2514C53.7116 37.4442 53.8352 37.6771 53.9273 37.9367C54.0194 38.1964 54.0781 38.4778 54.1002 38.7648C54.1448 39.3445 54.0374 39.9119 53.8016 40.3424C53.5657 40.7728 53.2208 41.031 52.8426 41.0601Z" fill="white"/>
<path d="M64.5781 46.0643C64.9376 47.8141 66.7531 49.2629 68.3181 47.674C68.588 47.4003 68.8242 46.9424 69.0941 46.5857C69.1184 46.5531 69.1533 46.5301 69.1928 46.5209C69.4471 46.4621 69.624 46.5433 69.7235 46.7647C69.7396 46.7994 69.745 46.8378 69.7391 46.875C69.268 49.7895 66.0121 50.525 64.2719 48.198C64.239 48.1548 64.2105 48.1574 64.1862 48.2058C62.9249 50.7092 59.5093 50.5652 58.6035 47.8595C58.5906 47.8205 58.5893 47.731 58.5997 47.591C58.6031 47.5486 58.6187 47.5114 58.6464 47.4794C58.9565 47.1318 59.2251 47.3562 59.4548 47.6519C59.7957 48.0895 60.1928 48.4181 60.6461 48.6377C61.6869 49.1436 62.8911 48.3199 63.2817 47.3925C63.4254 47.0483 63.5201 46.6523 63.5659 46.2044C63.5703 46.162 63.5512 46.1373 63.5088 46.1304C62.6212 45.9813 61.0575 45.4092 60.7837 44.4507C60.6435 43.9604 60.8533 43.5488 61.4131 43.2158C62.472 42.588 63.8657 42.4259 65.0894 42.5906C65.7136 42.6763 66.5831 43.0057 66.7829 43.6569C67.0892 44.6517 65.3788 45.679 64.6262 45.9761C64.5855 45.9925 64.5695 46.0219 64.5781 46.0643ZM64.9223 43.5108C64.9185 43.4624 64.8841 43.4168 64.8213 43.3768C64.7584 43.3368 64.6682 43.303 64.5558 43.2774C64.4434 43.2518 64.3111 43.2349 64.1663 43.2276C64.0216 43.2204 63.8672 43.2229 63.7121 43.2351C63.3988 43.2598 63.1015 43.3222 62.8854 43.4088C62.6693 43.4953 62.5523 43.5988 62.56 43.6966C62.5638 43.745 62.5981 43.7905 62.661 43.8306C62.7239 43.8706 62.8141 43.9044 62.9264 43.93C63.0388 43.9556 63.1712 43.9725 63.3159 43.9797C63.4607 43.987 63.615 43.9844 63.7701 43.9722C64.0834 43.9476 64.3808 43.8851 64.5968 43.7986C64.8129 43.712 64.93 43.6085 64.9223 43.5108Z" fill="black"/>
<path d="M64.9223 43.5108C64.93 43.6085 64.8129 43.712 64.5968 43.7986C64.3808 43.8851 64.0834 43.9476 63.7701 43.9722C63.615 43.9844 63.4607 43.987 63.3159 43.9797C63.1712 43.9725 63.0388 43.9556 62.9264 43.93C62.8141 43.9044 62.7239 43.8706 62.661 43.8306C62.5981 43.7905 62.5638 43.745 62.56 43.6966C62.5523 43.5988 62.6693 43.4953 62.8854 43.4088C63.1015 43.3222 63.3988 43.2598 63.7121 43.2351C63.8672 43.2229 64.0216 43.2204 64.1663 43.2276C64.3111 43.2349 64.4434 43.2518 64.5558 43.2774C64.6682 43.303 64.7584 43.3368 64.8213 43.3768C64.8841 43.4168 64.9185 43.4624 64.9223 43.5108Z" fill="#B31273"/>
<path d="M33.0752 91.5717C32.3979 91.506 31.7347 91.4424 31.0859 91.381C24.7337 90.7792 18.5813 87.4768 17.6677 80.5152C18.7513 75.7341 22.2343 71.5108 24.7985 67.5598C25.7848 66.0396 26.6581 64.3547 27.0033 62.4596C27.3563 61.7453 27.6029 61.0315 27.743 60.3181C28.4606 56.6681 26.893 53.7483 23.6397 52.2527C21.2753 51.1658 18.7824 51.0508 16.1611 51.9077C15.5018 49.6153 14.0514 48.1963 11.8099 47.6506C10.9508 47.4414 9.97927 47.3843 8.89526 47.4794C14.1276 44.3677 21.4985 43.8813 27.0202 46.6596C27.037 46.6681 27.0504 46.682 27.058 46.6991C27.0656 46.7162 27.0669 46.7353 27.0617 46.753C26.7736 47.8426 26.4505 48.9166 26.2636 50.0269C25.8847 52.2722 28.1829 52.1503 29.5286 51.5497C29.584 51.5246 29.6022 51.5411 29.5831 51.599C29.1523 52.9117 28.3218 54.6965 29.9037 55.5603C30.6706 55.978 31.7282 55.9573 32.6003 55.7731C32.6483 55.763 32.6983 55.7684 32.743 55.7886C33.4369 56.1008 34.0035 56.5677 34.443 57.1895C34.4647 57.2198 34.4759 57.2539 34.4768 57.292C34.5607 60.0107 34.0165 62.5906 32.8443 65.0318C30.2683 70.3953 25.9379 74.4215 24.8738 80.248C24.6904 81.2563 24.6471 82.1158 24.744 82.8267C25.315 87.0163 30.3099 88.639 33.8565 89.2538C33.9049 89.2624 33.9209 89.2897 33.9045 89.3355L33.0752 91.5717Z" fill="white"/>
<path d="M97.4488 46.7465C97.8104 47.3415 98.0998 47.92 98.317 48.4821C98.5583 49.106 97.1789 49.0878 96.8519 49.093C95.3284 49.1125 94.4083 50.3538 93.6297 51.4823C89.6912 57.1895 83.5855 59.5775 77.2424 61.5607C74.7958 62.326 72.3812 63.1012 69.9986 63.8864C69.9575 63.8999 69.9203 63.9231 69.8901 63.954C69.8599 63.9849 69.8376 64.0227 69.8251 64.0641C69.8126 64.1054 69.8103 64.1492 69.8184 64.1917C69.8264 64.2342 69.8446 64.2741 69.8714 64.308C69.9493 64.4057 70.0631 64.4459 70.2127 64.4286C72.3064 64.183 74.3809 63.8285 76.4365 63.365C76.4798 63.3555 76.5066 63.3719 76.5169 63.4143L77.2839 66.609L75.1064 67.6376L73.5413 68.2538C73.1079 68.3601 72.1697 68.6208 70.7266 69.0359C69.4341 69.4077 67.8777 69.7134 66.0575 69.9529C60.2732 70.7139 54.6499 70.0584 49.1875 67.9865L50.4579 64.6154C50.4735 64.5756 50.502 64.5587 50.5435 64.5648C53.408 64.966 56.4922 65.1481 59.7961 65.1109C59.9146 65.11 60.0089 65.1061 60.079 65.0992C60.1266 65.0949 60.1608 65.0711 60.1815 65.0279C60.3061 64.7646 60.1867 64.5998 59.9168 64.5622C54.8493 63.867 50.6383 63.2184 45.9173 61.9226C41.9865 60.8447 38.4218 58.8277 35.6148 55.8574C34.7129 54.9014 33.558 53.9584 32.1526 54.1543C31.5492 54.2386 31.2092 54.2658 30.7186 54.1452C30.6779 54.1354 30.6426 54.11 30.6201 54.0745C30.5976 54.0389 30.5896 53.9959 30.5979 53.9545C30.7476 53.2316 30.9561 52.5454 31.2234 51.896C31.592 51.9159 31.9566 51.8921 32.3174 51.8247C32.9961 51.6963 34.1459 52.6613 34.5663 53.1127C37.8105 56.5863 41.6634 58.6889 46.3247 59.8304C50.7966 60.9251 55.3385 61.556 59.9506 61.7229C68.0573 62.016 76.2483 60.0288 83.6815 56.9067C88.2637 54.9831 91.748 52.2592 94.5744 48.0385C94.8755 47.5888 95.3089 47.217 95.8747 46.923C96.29 46.7063 96.9777 46.7777 97.4488 46.7465Z" fill="#B2B2D4"/>
<path d="M85.4972 48.4269C85.5311 48.867 85.2001 49.317 84.5772 49.6779C83.9543 50.0388 83.0903 50.2811 82.1755 50.3515C81.7225 50.3863 81.2706 50.3779 80.8457 50.3267C80.4208 50.2755 80.0311 50.1825 79.6989 50.0531C79.3667 49.9236 79.0986 49.7603 78.9097 49.5723C78.7209 49.3843 78.6151 49.1754 78.5983 48.9575C78.5644 48.5174 78.8953 48.0674 79.5183 47.7065C80.1412 47.3456 81.0052 47.1033 81.92 47.0329C82.373 46.9981 82.8249 47.0065 83.2498 47.0577C83.6747 47.1089 84.0644 47.2019 84.3966 47.3313C84.7287 47.4608 84.9969 47.6241 85.1857 47.8121C85.3746 48.0001 85.4804 48.209 85.4972 48.4269Z" fill="#F27E82"/>
<path d="M16.1611 51.9077C16.1507 51.9587 16.1563 51.9734 16.1779 51.9518C16.0681 51.9518 15.9573 51.9769 15.8457 52.027C12.9337 53.328 11.5542 55.5046 11.0819 58.5553C10.5784 61.8162 10.1501 65.6129 6.18178 66.3029C5.1194 66.488 3.97526 66.3959 2.74937 66.0266C2.20347 65.1515 1.86607 64.113 1.73717 62.911C1.07145 56.7044 3.45402 50.7637 8.89526 47.4794C9.97927 47.3843 10.9508 47.4414 11.8099 47.6506C14.0514 48.1963 15.5018 49.6153 16.1611 51.9077Z" fill="#F9744B"/>
<path d="M50.3577 51.1522C50.3922 51.5911 50.0615 52.0408 49.4381 52.4021C48.8148 52.7635 47.9499 53.007 47.0338 53.0791C46.1177 53.1511 45.2254 53.0459 44.5532 52.7864C43.881 52.527 43.4839 52.1346 43.4493 51.6956C43.4148 51.2566 43.7456 50.807 44.3689 50.4457C44.9922 50.0843 45.8571 49.8408 46.7732 49.7687C47.6893 49.6967 48.5816 49.8019 49.2538 50.0614C49.926 50.3208 50.3231 50.7132 50.3577 51.1522Z" fill="#F27E82"/>
<path d="M27.0033 62.4596C27.0708 56.7122 21.7126 53.4733 16.5711 55.7082C16.6352 54.4102 16.5041 53.1581 16.1779 51.9518C16.1563 51.9734 16.1507 51.9587 16.1611 51.9077C18.7824 51.0508 21.2753 51.1658 23.6397 52.2527C26.893 53.7483 28.4606 56.6681 27.743 60.3181C27.6029 61.0315 27.3563 61.7453 27.0033 62.4596Z" fill="#B2B2D4"/>
<path d="M16.1779 51.9518C16.5041 53.1581 16.6352 54.4102 16.5711 55.7082C14.0056 57.0027 12.7922 59.3608 12.5613 62.1691C12.5301 62.5478 12.3212 63.2807 11.9345 64.3676C11.5646 65.4066 10.7847 66.491 9.89319 67.1564C7.68062 68.8063 4.33905 68.5378 2.74937 66.0266C3.97526 66.3959 5.1194 66.488 6.18178 66.3029C10.1501 65.6129 10.5784 61.8162 11.0819 58.5553C11.5542 55.5046 12.9337 53.328 15.8457 52.027C15.9573 51.9769 16.0681 51.9518 16.1779 51.9518Z" fill="#AE5159"/>
<path d="M102.855 62.1146C101.925 62.6568 100.956 62.8155 99.9495 62.5906C99.9286 62.5861 99.9069 62.5861 99.8859 62.5906C99.8649 62.595 99.845 62.6039 99.8275 62.6166C98.169 63.8086 96.617 64.5791 94.5095 64.0122C94.083 63.8972 93.6976 63.6603 93.3533 63.3014C93.3393 63.287 93.3214 63.2768 93.3017 63.272C93.282 63.2672 93.2612 63.268 93.2417 63.2742C92.0958 63.6452 91.1303 63.7878 90.1233 63.1497C89.5255 62.7718 89.0739 62.2646 88.7685 61.6282C88.9761 60.5931 89.4762 59.7807 90.2686 59.1909C92.964 57.1856 97.3268 57.4787 100.446 58.34C102.357 58.8675 103.16 60.1257 102.855 62.1146Z" fill="white"/>
<path d="M88.4648 58.8861L88.4669 58.8929L88.4661 58.9001L88.4627 58.9063L88.4571 58.9108L88.4389 58.9198C88.0195 59.1409 87.6032 59.3579 87.2142 59.5582C86.8252 59.7586 86.4713 59.9383 86.1728 60.0871C85.8743 60.2358 85.6373 60.3506 85.4754 60.4247C85.3135 60.4989 85.23 60.531 85.2297 60.5192L85.2245 60.5088C85.2158 60.5013 85.2902 60.4502 85.4433 60.3584C85.5964 60.2666 85.8253 60.1359 86.1167 59.9738C86.4081 59.8117 86.7562 59.6215 87.141 59.4141C87.5257 59.2067 87.9395 58.9862 88.3584 58.7655L88.3753 58.7564L88.3822 58.7544L88.3893 58.7551L88.3955 58.7586L88.4 58.7642L88.4648 58.8861Z" fill="#B2B2D4"/>
<path d="M147.086 72.4992C147.028 72.5398 146.994 72.5515 146.986 72.5342C143.029 64.4416 133.456 60.1404 124.746 62.3909C119.668 63.7027 115.687 66.5788 112.803 71.0192C112.441 71.5769 111.897 71.9596 111.272 71.5964C111.091 71.4909 110.841 71.1969 110.523 70.7143C108.78 68.0726 106.527 65.9553 103.765 64.3625C103.737 64.346 103.72 64.3162 103.714 64.273L104.153 63.4856C104.175 63.445 104.206 63.4376 104.245 63.4636C107.13 65.3452 109.351 67.8123 110.909 70.8648C111.358 71.7442 112.118 71.8441 112.594 70.9102C120.044 56.3347 140.935 57.3361 147.086 72.4992Z" fill="#FF77AF"/>
<path d="M88.7685 61.6282C89.0739 62.2646 89.5255 62.7718 90.1233 63.1497C91.1303 63.7878 92.0958 63.6452 93.2417 63.2742C93.2612 63.268 93.282 63.2672 93.3017 63.272C93.3214 63.2768 93.3393 63.287 93.3533 63.3014C93.6976 63.6603 94.083 63.8972 94.5095 64.0122C96.617 64.5791 98.169 63.8086 99.8275 62.6166C99.845 62.6039 99.8649 62.595 99.8859 62.5906C99.9069 62.5861 99.9286 62.5861 99.9495 62.5906C100.956 62.8155 101.925 62.6568 102.855 62.1146C102.667 63.2733 102.069 63.9543 101.059 64.1575C100.549 64.26 99.9365 64.1082 99.3655 64.0719C99.3221 64.0694 99.2791 64.0833 99.2448 64.1108C97.8394 65.2497 96.3626 66.0163 94.5433 65.5688C94.2067 65.4857 93.9273 65.3288 93.7049 65.0979C93.4545 64.8372 93.1405 64.6297 92.8251 64.7594C91.0819 65.4771 89.8395 65.0024 89.0981 63.3351C88.8931 62.8725 88.7832 62.3035 88.7685 61.6282Z" fill="#B2B2D4"/>
<path d="M87.2528 62.7839C87.2511 62.9369 87.2359 63.0135 87.2074 63.0135C86.4288 63.3127 85.68 63.6538 84.9611 64.0369C84.9169 64.0611 84.8849 64.0537 84.865 64.0148C85.3504 63.2936 85.9166 62.633 86.5637 62.0329L87.1113 61.7851C87.1459 61.7695 87.165 61.7808 87.1684 61.8188L87.2528 62.7839Z" fill="#FF77AF"/>
<path d="M147.086 72.4992C147.736 74.1543 148.146 75.8664 148.315 77.6357C148.245 77.9625 148.264 78.2998 148.372 78.6474L148.369 80.3297C148.267 80.7595 148.238 81.1915 148.283 81.6255C148.32 82.1327 148.164 82.6541 148.123 83.1094C148.1 83.3619 148.061 83.6352 148.004 83.9292C147.46 86.7595 146.581 89.4488 145.368 91.9972C145.305 92.1295 145.196 92.3513 145.116 92.4978C144.688 93.2878 144.359 94.2515 143.871 95.0155C142.663 96.9067 141.534 98.7693 140.091 100.69C136.96 104.86 133.238 108.722 129.309 112.225C125.075 116 120.647 119.426 116.025 122.504C115.816 122.644 115.672 122.858 115.34 122.903C115.299 122.909 115.262 122.929 115.235 122.96C114.549 123.736 113.025 124.22 112.089 124.296C110.009 124.467 108.505 123.266 106.512 121.868C101.745 118.522 96.8843 114.809 92.8601 111.032C91.5849 109.835 89.7474 107.967 87.3475 105.429L86.1407 104.024C85.9789 103.868 85.7765 103.631 85.5334 103.312C85.0359 102.66 84.3598 101.824 83.5051 100.806C83.4912 100.79 83.483 100.773 83.4804 100.754C83.4787 100.742 83.4774 100.73 83.4765 100.718C83.4757 100.709 83.4725 100.701 83.4674 100.694C80.4113 96.7329 77.8224 92.0866 76.3444 87.2822L76.9789 87.2381C77.0108 87.2362 77.0424 87.2446 77.0691 87.2622C77.0957 87.2797 77.116 87.3054 77.1269 87.3354C79.4277 93.6626 83.8866 99.6033 88.4532 104.444C94.4823 110.838 101.355 116.409 108.689 121.248C109.052 121.487 109.485 121.741 109.988 122.011C110.066 122.052 110.138 122.016 110.227 122.052C111.352 122.498 112.479 122.616 113.608 122.405C115.016 122.142 115.772 121.555 117.266 120.553C125.275 115.176 132.631 108.974 138.965 101.709C139.161 101.484 139.335 101.222 139.537 100.99C139.545 100.98 139.55 100.967 139.55 100.954C139.55 100.941 139.546 100.928 139.538 100.918C139.529 100.908 139.518 100.901 139.505 100.899C139.492 100.896 139.479 100.899 139.468 100.906C135.626 103.16 131.163 104.46 126.694 104.553C117.462 104.742 107.607 103.959 99.2799 99.5592C92.7507 96.109 88.1231 90.9106 85.3971 83.9642C85.3833 83.9279 85.3819 83.8911 85.3932 83.854C85.6328 83.0619 85.7059 82.2542 85.6125 81.431C85.6101 81.4088 85.6128 81.3863 85.6205 81.3654C85.6281 81.3445 85.6405 81.3256 85.6566 81.3104C86.5884 80.4413 87.2619 79.7564 87.2697 78.3841C87.2723 77.848 87.1736 77.3507 86.9738 76.8924C87.1702 75.9948 87.0889 75.1158 86.7298 74.2554C86.591 73.9247 86.2665 73.4824 86.2458 73.0141C86.1549 70.8557 84.9066 69.4367 83.0755 68.4405C83.3688 66.9445 83.9372 65.5541 84.7807 64.2691C84.8032 64.2353 84.7958 64.2103 84.7586 64.1938L84.7132 64.1731C84.7098 64.1715 84.7068 64.169 84.7046 64.1659C84.7024 64.1628 84.701 64.1592 84.7006 64.1554C84.7002 64.1516 84.7008 64.1478 84.7023 64.1443C84.7039 64.1408 84.7063 64.1377 84.7093 64.1355L84.865 64.0148C84.8849 64.0537 84.9169 64.0611 84.9611 64.0369C85.68 63.6538 86.4288 63.3127 87.2074 63.0135C87.3462 63.8306 87.3514 64.3313 87.9315 64.9734C87.96 65.0054 87.9791 65.0417 87.9886 65.0823C88.0885 65.4948 88.7309 66.4586 89.006 66.7595C90.2349 68.1072 91.2951 68.076 92.9432 67.6078C92.9633 67.6023 92.9844 67.6021 93.0045 67.6074C93.0245 67.6126 93.0428 67.6231 93.0574 67.6376C94.8534 69.3913 97.6863 68.3316 99.3772 67.0578C99.4274 67.0198 99.4775 66.9917 99.5277 66.9735C99.6125 66.9415 99.6696 66.9277 99.699 66.932C101.681 67.2628 102.895 66.552 103.67 64.723C103.686 64.6841 103.687 64.6448 103.673 64.605C103.641 64.5151 103.634 64.4299 103.654 64.3495C103.662 64.3192 103.682 64.2937 103.714 64.273C103.72 64.3162 103.737 64.346 103.765 64.3625C106.527 65.9553 108.78 68.0726 110.523 70.7143C110.841 71.1969 111.091 71.4909 111.272 71.5964C111.897 71.9596 112.441 71.5769 112.803 71.0192C115.687 66.5788 119.668 63.7027 124.746 62.3909C133.456 60.1404 143.029 64.4416 146.986 72.5342C146.994 72.5515 147.028 72.5398 147.086 72.4992ZM116.481 72.769C116.52 76.585 124.974 73.568 126.83 73.0089C130.884 71.7909 135.018 71.4563 139.401 71.324C140.401 71.2929 141.847 70.9621 141.368 69.5534C141.057 68.6416 139.95 67.6519 139.146 67.0851C136.484 65.2108 133.239 64.0135 129.973 63.8812C125.048 63.6815 119.289 65.6855 117.009 70.4575C116.648 71.2107 116.472 71.9812 116.481 72.769Z" fill="#FF1D76"/>
<path d="M86.5637 62.0329C85.9166 62.633 85.3504 63.2936 84.865 64.0148L84.7093 64.1355C84.7063 64.1377 84.7039 64.1408 84.7023 64.1443C84.7008 64.1478 84.7002 64.1516 84.7006 64.1554C84.701 64.1592 84.7024 64.1628 84.7046 64.1659C84.7068 64.169 84.7098 64.1715 84.7132 64.1731L84.7586 64.1938C84.7958 64.2103 84.8032 64.2353 84.7807 64.2691C83.9372 65.5541 83.3688 66.9445 83.0755 68.4405C82.0434 67.8439 80.901 67.4604 79.6483 67.29C79.6401 67.289 79.6323 67.2858 79.6257 67.2807C79.6192 67.2756 79.6142 67.2688 79.6112 67.261C79.6083 67.2533 79.6075 67.2449 79.609 67.2367C79.6105 67.2286 79.6142 67.221 79.6198 67.2148C81.5291 64.9647 83.8438 63.2374 86.5637 62.0329Z" fill="#B31273"/>
<path d="M87.2528 62.7839C87.3748 63.0887 87.4085 63.4376 87.502 63.6996C87.8688 64.7243 88.5072 65.5437 89.4174 66.1576C90.4114 66.8295 91.6494 66.7556 92.7498 66.4936C92.7922 66.4832 92.8312 66.4914 92.8666 66.5182C93.3053 66.8442 93.6773 67.0401 93.9827 67.1058C96.2666 67.5935 97.8796 67.0721 99.7483 65.7893C99.7836 65.7658 99.8262 65.7552 99.869 65.7594C101.393 65.9177 102.695 65.5791 103.654 64.3495C103.634 64.4299 103.641 64.5151 103.673 64.605C103.687 64.6448 103.686 64.6841 103.67 64.723C102.895 66.552 101.681 67.2628 99.699 66.932C99.6696 66.9277 99.6125 66.9415 99.5277 66.9735C99.4775 66.9917 99.4274 67.0198 99.3772 67.0578C97.6863 68.3316 94.8534 69.3913 93.0574 67.6376C93.0428 67.6231 93.0245 67.6126 93.0045 67.6074C92.9844 67.6021 92.9633 67.6023 92.9432 67.6078C91.2951 68.076 90.2349 68.1072 89.006 66.7595C88.7309 66.4586 88.0885 65.4948 87.9886 65.0823C87.9791 65.0417 87.96 65.0054 87.9315 64.9734C87.3514 64.3313 87.3462 63.8306 87.2074 63.0135C87.2359 63.0135 87.2511 62.9369 87.2528 62.7839Z" fill="#B31273"/>
<path d="M78.7749 65.6959L78.772 65.6982L78.7682 65.6985L78.765 65.6966L78.7633 65.6933L78.1248 63.1367C78.118 63.109 78.1177 63.08 78.1239 63.0521C78.1301 63.0242 78.1427 62.9982 78.1607 62.976C78.1786 62.9537 78.2015 62.936 78.2275 62.924C78.2534 62.9121 78.2818 62.9063 78.3104 62.9071C79.4844 62.94 80.657 62.9145 81.8284 62.8306C81.902 62.8254 81.9093 62.8453 81.8505 62.8902C80.7371 63.7308 79.7119 64.666 78.7749 65.6959Z" fill="#B2B2D4"/>
<path d="M126.83 73.0089C124.974 73.568 116.52 76.585 116.481 72.769C116.472 71.9812 116.648 71.2107 117.009 70.4575C119.289 65.6855 125.048 63.6815 129.973 63.8812C133.239 64.0135 136.484 65.2108 139.146 67.0851C139.95 67.6519 141.057 68.6416 141.368 69.5534C141.847 70.9621 140.401 71.2929 139.401 71.324C135.018 71.4563 130.884 71.7909 126.83 73.0089Z" fill="#FF77AF"/>
<path d="M77.2839 66.609L77.4214 67.1538C77.431 67.1919 77.4162 67.2143 77.3773 67.2213L75.1064 67.6376L77.2839 66.609Z" fill="white"/>
<path d="M49.1875 67.9865C54.6499 70.0584 60.2732 70.7139 66.0575 69.9529C67.8777 69.7134 69.4341 69.4077 70.7266 69.0359C72.1697 68.6208 73.1079 68.3601 73.5413 68.2538C72.4244 68.8435 71.5602 69.4069 70.9485 69.9439C69.2797 71.4109 68.0067 72.4084 65.7045 72.5757C65.5397 72.5887 65.3801 72.5523 65.2036 72.6496C65.1868 72.6591 65.173 72.6731 65.1638 72.69C65.1547 72.707 65.1504 72.7261 65.1516 72.7454C65.1529 72.7646 65.1595 72.7831 65.1707 72.7988C65.182 72.8144 65.1975 72.8265 65.2153 72.8338C67.1891 73.6198 69.438 73.1192 71.0809 71.8597C71.7695 71.3313 72.3397 70.9197 72.7913 70.6248C75.1466 69.0878 77.9431 68.5573 80.6579 69.3602C82.6577 69.9517 84.5886 71.2202 84.5004 73.5537C84.4822 74.0466 85.0104 74.6134 85.1856 75.0908C85.5013 75.9546 85.4326 76.6897 84.9792 77.2958C84.2473 77.6391 83.5435 77.8583 82.8679 77.9535C82.8255 77.9595 82.8056 77.9837 82.8082 78.0261C82.8341 78.4541 82.8731 78.9107 82.7563 79.3011C81.9984 81.8331 78.1819 81.4193 76.1588 81.5153C74.8646 81.5767 73.6175 81.7985 72.4175 82.1807C70.9602 82.6438 69.2278 83.3507 67.8899 83.7113C65.2391 84.4247 62.5196 84.6244 59.7312 84.3105C57.8747 84.1021 56.1107 83.4584 54.4392 82.3792C53.549 81.2611 52.8327 79.964 52.2902 78.4879C51.426 76.1393 50.8935 73.7327 50.6928 71.2682C50.693 71.229 50.6775 71.1913 50.6499 71.1635C50.6223 71.1356 50.5847 71.1199 50.5455 71.1197C50.5063 71.1195 50.4686 71.1349 50.4407 71.1625C50.4128 71.1902 50.3971 71.2277 50.3969 71.2669C50.1702 73.7141 50.3255 76.1444 50.8628 78.5579C50.9078 80.2026 51.2668 81.8543 51.9399 83.5128C54.4769 89.7622 61.099 91.3668 67.0905 89.7298C67.6753 89.5698 68.9419 89.1366 70.8901 88.4301C71.5892 88.1768 72.8592 87.849 74.7002 87.4469C75.58 90.3334 76.7501 93.0625 78.2105 95.6342C76.6601 97.7675 74.8291 99.5605 72.7173 101.013C70.8136 102.322 69.0046 103.278 66.7725 103.873C64.428 104.499 62.0956 104.685 59.7754 104.432C58.3401 104.277 56.4766 103.806 55.5514 102.452C55.127 101.833 54.8688 100.75 54.4496 99.9717C54.0119 99.158 53.3786 98.4922 52.5498 97.9742C52.0549 96.6901 51.4338 95.5745 50.6863 94.6277C50.5539 94.4599 50.4017 94.4495 50.2295 94.5965C50.2001 94.6208 50.1811 94.6515 50.1724 94.6886C50.143 94.8218 50.1374 94.9321 50.1555 95.0194C50.4903 96.6451 50.8658 98.2617 51.2819 99.8693C51.5813 101.028 51.7707 101.871 51.8503 102.397C52.1086 104.12 52.2526 106.225 51.8477 107.944C51.0276 109.519 50.079 110.792 49.0019 111.761C47.2439 113.343 45.1568 114.598 42.7405 115.527C41.3961 116.044 39.9812 116.545 38.4957 117.031L36.3545 117.414C36.3489 117.414 36.3435 117.417 36.3396 117.421C36.3357 117.426 36.3336 117.431 36.3338 117.437C36.334 117.443 36.3364 117.448 36.3405 117.452C36.3446 117.455 36.3502 117.457 36.3558 117.457C38.9876 117.641 41.4921 118.013 43.9902 118.885C44.9427 119.217 45.9562 120.136 46.2949 121.174C45.916 121.748 45.412 122.155 44.7831 122.395C44.4249 122.531 43.9114 122.69 43.2427 122.871C43.1302 121.994 42.6315 121.381 41.7465 121.031C41.7394 121.029 41.7318 121.029 41.7249 121.032C41.718 121.035 41.7123 121.04 41.7089 121.046C41.7055 121.053 41.7045 121.061 41.7061 121.068C41.7078 121.075 41.712 121.081 41.7179 121.086C42.3832 121.555 42.6475 122.166 42.5108 122.92C40.8255 123.005 39.1506 123.026 37.4861 122.984C37.4861 122.984 37.4792 122.984 37.4757 122.987C37.4654 122.997 37.4554 123.006 37.4459 123.016C37.4251 123.038 37.4057 123.037 37.3875 123.015L37.3512 122.971C37.3823 122.166 37.057 121.572 36.3753 121.19C36.3286 121.163 36.3182 121.173 36.3441 121.221C36.6504 121.772 36.7235 122.354 36.5635 122.964C34.1783 122.89 31.2896 122.615 29.6143 120.68C29.4283 120.465 29.231 120.25 29.0225 120.033C28.6903 117.879 29.1238 115.781 29.8064 113.702C30.4171 111.838 31.0405 109.978 31.6763 108.121C32.2603 106.417 32.6743 104.793 32.817 102.933C32.9896 100.696 33.0804 98.1934 33.532 95.7406C33.834 94.0959 34.4063 92.4369 35.2489 90.7636C35.2679 90.7247 35.2761 90.6841 35.2735 90.6417C35.2554 90.3788 35.2861 90.1631 35.3657 89.9944C37.2227 86.072 39.6598 83.0264 42.5329 79.3491C45.2528 75.8669 47.471 72.0793 49.1875 67.9865Z" fill="white"/>
<path d="M86.9738 76.8924C87.1736 77.3507 87.2723 77.848 87.2697 78.3841C87.2619 79.7564 86.5884 80.4413 85.6566 81.3104C85.6405 81.3256 85.6281 81.3445 85.6205 81.3654C85.6128 81.3863 85.6101 81.4088 85.6125 81.431C85.7059 82.2542 85.6328 83.0619 85.3932 83.854C85.3819 83.8911 85.3833 83.9279 85.3971 83.9642C88.1231 90.9106 92.7507 96.109 99.2799 99.5592C107.607 103.959 117.462 104.742 126.694 104.553C131.163 104.46 135.626 103.16 139.468 100.906C139.479 100.899 139.492 100.896 139.505 100.899C139.518 100.901 139.529 100.908 139.538 100.918C139.546 100.928 139.55 100.941 139.55 100.954C139.55 100.967 139.545 100.98 139.537 100.99C139.335 101.222 139.161 101.484 138.965 101.709C132.631 108.974 125.275 115.176 117.266 120.553C115.772 121.555 115.016 122.142 113.608 122.405C112.479 122.616 111.352 122.498 110.227 122.052C110.138 122.016 110.066 122.052 109.988 122.011C109.485 121.741 109.052 121.487 108.689 121.248C101.355 116.409 94.4823 110.838 88.4532 104.444C83.8866 99.6033 79.4277 93.6626 77.1269 87.3354C77.116 87.3054 77.0957 87.2797 77.0691 87.2622C77.0424 87.2446 77.0108 87.2362 76.9789 87.2381L76.3444 87.2822L75.9434 85.8022C75.9369 85.7782 75.9355 85.7531 75.9393 85.7286C75.9431 85.704 75.952 85.6805 75.9655 85.6596C75.9789 85.6387 75.9966 85.6209 76.0174 85.6072C76.0382 85.5936 76.0616 85.5844 76.0861 85.5804C77.2683 85.3806 78.4518 85.2185 79.6379 85.107C82.7459 84.8164 85.6969 82.9564 85.4373 79.4244C85.4345 79.3857 85.4413 79.347 85.4569 79.3117C85.4725 79.2764 85.4965 79.2456 85.5269 79.222C86.2726 78.634 86.7549 77.8575 86.9738 76.8924Z" fill="#B31273"/>
<path d="M84.9792 77.2958C84.5886 78.0144 83.6076 78.2168 83.7399 79.1208C84.2928 82.9019 80.5787 83.4052 77.8679 83.684C76.8591 83.7878 75.8638 83.9664 74.8819 84.2197C73.3324 84.6193 71.0731 85.5181 69.377 85.9176C67.1718 86.4373 64.8541 86.6159 62.424 86.4533C59.1187 86.2328 56.4533 85.1173 54.4392 82.3792C56.1107 83.4584 57.8747 84.1021 59.7312 84.3105C62.5196 84.6244 65.2391 84.4247 67.8899 83.7113C69.2278 83.3507 70.9602 82.6438 72.4175 82.1807C73.6175 81.7985 74.8646 81.5767 76.1588 81.5153C78.1819 81.4193 81.9984 81.8331 82.7563 79.3011C82.8731 78.9107 82.8341 78.4541 82.8082 78.0261C82.8056 77.9837 82.8255 77.9595 82.8679 77.9535C83.5435 77.8583 84.2473 77.6391 84.9792 77.2958Z" fill="#B2B2D4"/>
<path d="M148.372 78.6474L148.315 77.6357C148.245 77.9625 148.264 78.2998 148.372 78.6474Z" fill="#B31273"/>
<path d="M50.8628 78.5579C52.6393 84.2911 56.038 87.9307 62.35 88.0916C63.3155 88.1167 64.281 88.118 65.2465 88.0955C68.3505 88.0241 71.0134 87.2277 73.8074 86.2199C73.9605 86.1645 74.1184 86.1248 74.281 86.1005C74.3269 86.0936 74.3554 86.1122 74.3667 86.1563L74.7002 87.4469C72.8592 87.849 71.5892 88.1768 70.8901 88.4301C68.9419 89.1366 67.6753 89.5698 67.0905 89.7298C61.099 91.3668 54.4769 89.7622 51.9399 83.5128C51.2668 81.8543 50.9078 80.2026 50.8628 78.5579Z" fill="#B2B2D4"/>
<path d="M148.283 81.6255L148.369 80.3297C148.267 80.7595 148.238 81.1915 148.283 81.6255Z" fill="#B31273"/>
<path d="M17.6677 80.5152C18.5813 87.4768 24.7337 90.7792 31.0859 91.381C31.7347 91.4424 32.3979 91.506 33.0752 91.5717C32.5406 92.9561 32.1361 94.3713 31.8619 95.8171C31.8532 95.8664 31.8238 95.8893 31.7737 95.8859C25.6044 95.3774 19.8803 92.3759 17.8091 86.2354C17.2096 84.4567 17.1625 82.5499 17.6677 80.5152Z" fill="#B2B2D4"/>
<path d="M78.2105 95.6342C78.3 95.8106 78.3727 95.9144 78.322 96.1154C76.7778 102.305 73.1806 107.247 67.1632 109.695C62.4447 111.614 57.513 112.371 52.3681 111.967C52.3274 111.965 52.3153 111.945 52.3318 111.908C54.3354 107.483 53.9007 102.491 52.5498 97.9742C53.3786 98.4922 54.0119 99.158 54.4496 99.9717C54.8688 100.75 55.127 101.833 55.5514 102.452C56.4766 103.806 58.3401 104.277 59.7754 104.432C62.0956 104.685 64.428 104.499 66.7725 103.873C69.0046 103.278 70.8136 102.322 72.7173 101.013C74.8291 99.5605 76.6601 97.7675 78.2105 95.6342Z" fill="#B2B2D4"/>
<path d="M87.3475 105.429L86.1407 104.024C86.4288 104.613 86.831 105.081 87.3475 105.429Z" fill="#B31273"/>
<path d="M68.8813 120.811C68.0183 121.812 67.0477 122.004 65.9018 122.317C65.5782 121.842 65.1647 121.468 64.6612 121.194C64.656 121.19 64.6499 121.189 64.6441 121.19C64.6383 121.192 64.6331 121.195 64.6294 121.2C64.6258 121.205 64.624 121.211 64.6243 121.217C64.6247 121.223 64.6272 121.229 64.6313 121.234C64.9367 121.553 65.1656 121.927 65.3178 122.356L59.9181 122.427C59.7823 122.042 59.5548 121.689 59.2355 121.367C59.2009 121.333 59.184 121.34 59.1849 121.388L59.207 122.406C57.5239 122.318 54.7961 122.099 53.9215 120.363C53.1493 118.832 53.3232 116.604 55.1335 115.878C56.5229 115.321 57.9287 114.933 59.351 114.715C60.9385 114.47 61.9637 114.295 62.4266 114.189C65.246 113.548 67.9413 112.361 70.5125 110.626C71.1423 110.201 71.9456 109.544 72.9223 108.656C73.5374 108.098 73.9804 107.545 74.2512 106.996L74.7157 106.474C74.7504 106.436 74.7659 106.443 74.7625 106.494C74.4316 111.751 71.3599 115.27 66.4287 116.892C66.1959 116.968 65.9429 117.001 65.6695 116.99C63.5361 116.904 61.41 117.04 59.2913 117.397C59.2851 117.397 59.2793 117.4 59.2752 117.405C59.271 117.409 59.2689 117.415 59.2693 117.422C59.2696 117.428 59.2724 117.434 59.277 117.438C59.2816 117.442 59.2877 117.444 59.2939 117.444C61.2915 117.553 63.2636 117.864 65.2101 118.378C66.648 118.756 68.1637 119.409 68.8813 120.811Z" fill="white"/>
<path d="M74.2512 106.996C73.9804 107.545 73.5374 108.098 72.9223 108.656C71.9456 109.544 71.1423 110.201 70.5125 110.626C67.9413 112.361 65.246 113.548 62.4266 114.189C61.9637 114.295 60.9385 114.47 59.351 114.715C57.9287 114.933 56.5229 115.321 55.1335 115.878C53.3232 116.604 53.1493 118.832 53.9215 120.363C54.7961 122.099 57.5239 122.318 59.207 122.406C59.2494 123.507 58.8726 124.364 58.0767 124.977C57.5057 125.416 55.942 124.999 55.2944 124.798C53.1052 124.12 52.2318 122.803 51.7984 120.62C51.3533 118.384 51.7504 115.811 52.5368 113.685C52.5515 113.644 52.5805 113.625 52.6238 113.628C60.0076 114.105 68.7554 112.31 74.2512 106.996Z" fill="#B2B2D4"/>
<path d="M51.8477 107.944C51.1418 112.537 48.039 115.433 43.7722 116.877C43.5239 116.961 43.2557 117 42.9676 116.995C41.5375 116.966 40.0469 116.978 38.4957 117.031C39.9812 116.545 41.3961 116.044 42.7405 115.527C45.1568 114.598 47.2439 113.343 49.0019 111.761C50.079 110.792 51.0276 109.519 51.8477 107.944Z" fill="#B2B2D4"/>
<path d="M29.0225 120.033C29.231 120.25 29.4283 120.465 29.6143 120.68C31.2896 122.615 34.1783 122.89 36.5635 122.964C36.4402 123.84 35.7706 125.295 34.722 125.196C31.3908 124.881 29.308 123.592 29.0225 120.033Z" fill="#B2B2D4"/>
<path d="M68.8813 120.811C69.3783 122.035 68.7775 123.89 67.6316 124.605C67.0831 124.946 66.4663 125.138 65.7811 125.181C65.7733 125.181 65.7656 125.18 65.7587 125.176C65.7519 125.172 65.7461 125.167 65.7421 125.16C65.7381 125.153 65.736 125.146 65.736 125.138C65.736 125.13 65.7382 125.123 65.7422 125.116C66.3158 124.209 66.369 123.276 65.9018 122.317C67.0477 122.004 68.0183 121.812 68.8813 120.811Z" fill="#B2B2D4"/>
<path d="M46.2949 121.174C46.3935 121.785 46.2983 122.472 46.0094 123.234C45.4786 124.633 44.2575 125.086 42.8793 125.217C42.8292 125.222 42.8149 125.202 42.8365 125.156C43.1635 124.459 43.2989 123.697 43.2427 122.871C43.9114 122.69 44.4249 122.531 44.7831 122.395C45.412 122.155 45.916 121.748 46.2949 121.174Z" fill="#B2B2D4"/>
<path d="M65.3178 122.356C65.7071 123.675 65.0116 124.85 63.745 125.252C63.5002 125.33 63.1347 125.37 62.6485 125.373C61.5705 125.378 60.4947 125.363 59.4211 125.329C59.4135 125.329 59.4061 125.327 59.3996 125.323C59.3931 125.319 59.3877 125.313 59.384 125.307C59.3803 125.3 59.3785 125.292 59.3786 125.285C59.3787 125.277 59.3808 125.269 59.3848 125.263C59.8917 124.419 60.0695 123.473 59.9181 122.427L65.3178 122.356Z" fill="#B2B2D4"/>
<path d="M42.5108 122.92C42.3888 124.736 41.3234 125.377 39.6896 125.378C38.7345 125.379 37.7785 125.362 36.8217 125.327C36.7689 125.326 36.7555 125.302 36.7815 125.256C37.1794 124.536 37.3693 123.774 37.3512 122.971L37.3875 123.015C37.4057 123.037 37.4251 123.038 37.4459 123.016C37.4554 123.006 37.4654 122.997 37.4757 122.987C37.4792 122.984 37.4861 122.984 37.4861 122.984C39.1506 123.026 40.8255 123.005 42.5108 122.92Z" fill="#B2B2D4"/>
</svg>
