<svg width="116" height="127" viewBox="0 0 116 127" fill="none" xmlns="http://www.w3.org/2000/svg">
<path d="M97.518 65.2753L97.8954 63.3036C100.788 61.8362 103.296 59.9275 105.419 57.5774C109.431 52.9668 110.054 47.2877 108.645 41.5195C108.506 40.9488 108.41 40.4262 108.359 39.9516C107.846 35.2335 107.258 30.9887 106.053 26.458L105.652 24.8089C105.46 24.0048 105.262 23.1981 105.059 22.3888C105.024 22.2525 105.074 22.1376 105.207 22.0441C105.718 21.6849 105.968 22.5134 106.132 22.8097C106.16 22.8612 106.187 22.8608 106.215 22.8084C108.415 18.3655 110.304 13.5793 111.351 8.72481C111.685 7.17396 112.211 4.08929 111.126 2.75212C110.195 1.93933 108.907 1.70336 107.61 1.61159C105.161 1.43986 102.653 1.73482 100.24 2.14777C97.0728 2.68876 93.9589 3.45217 90.8989 4.438C90.8578 4.45111 90.8508 4.47427 90.8779 4.50748C91.2069 4.91388 90.9211 5.38844 90.3693 5.15116C85.3851 3.01256 80.0999 1.83402 74.5136 1.61553C67.8014 1.34285 60.6135 2.39554 54.4125 5.14329C53.8895 5.37664 53.4609 4.88635 53.8974 4.5219C53.9384 4.48782 53.9336 4.46247 53.8829 4.44587C49.7533 3.08248 45.5298 2.16656 41.2123 1.69812C39.2711 1.48705 34.8723 1.20127 33.5184 2.98154C32.3099 5.03317 33.5577 9.59528 34.2406 11.8396C35.408 15.6781 36.8493 19.3217 38.5646 22.7703C38.5917 22.8236 38.6201 22.8245 38.6498 22.773C38.8386 22.4465 38.9552 21.8723 39.4494 21.9707C39.6608 22.0799 39.7395 22.2416 39.6853 22.4557C39.1916 24.4064 38.7092 26.3593 38.2382 28.3143C37.3666 31.9365 36.8699 35.56 36.4688 39.2582C36.3377 40.4721 36.0677 41.7909 35.8436 42.8003C34.6679 48.1149 35.7544 53.5121 39.3812 57.6416C41.4757 59.9506 43.96 61.8301 46.8339 63.28L47.2245 65.2464C39.144 61.4683 32.8171 54.9188 33.7897 45.2662C33.9339 43.8434 34.1549 42.4726 34.4529 41.1538C34.6137 40.4424 34.7273 39.8131 34.7937 39.266C35.3992 34.3172 36.0782 29.4522 37.7847 24.725C37.7914 24.7059 37.7941 24.6856 37.7928 24.6654C37.7914 24.6451 37.786 24.6253 37.7769 24.607C36.1682 21.5061 34.774 18.307 33.5944 15.0095C32.4947 11.9366 31.5038 8.48228 31.4802 5.25079C31.4645 3.20702 32.1421 1.30614 34.2733 0.612649C36.4688 -0.100508 39.0378 -0.0703555 41.2581 0.134153C46.1812 0.586431 51.1069 1.80823 55.7717 3.42464C55.8128 3.43862 55.8529 3.436 55.8923 3.41677C62.1431 0.362255 68.8893 -0.251267 75.7195 0.13022C80.2703 0.384544 84.7844 1.39266 88.8804 3.42726C88.9197 3.44649 88.9594 3.44911 88.9996 3.43512C93.5111 1.86723 98.2611 0.682128 103.014 0.177412C105.378 -0.0742901 108.303 -0.180476 110.744 0.714903C114.188 1.97735 113.421 6.79771 112.814 9.46943C111.621 14.7119 109.485 19.8679 107.013 24.6201C106.983 24.6769 106.979 24.7354 107 24.7958C108.595 29.2648 109.355 34.0012 109.879 38.7049C110.055 40.2859 110.423 41.8066 110.708 43.3654C112.595 53.7179 106.536 61.1366 97.518 65.2753Z" fill="black"/>
<path d="M111.126 2.75212C111.119 2.87622 111.062 2.93128 110.955 2.9173C108.494 2.58825 105.994 3.25683 103.803 4.34754C103.047 4.72335 102.29 5.15858 101.533 5.65325C100.647 6.23269 99.8484 6.87025 99.138 7.56593C98.6417 8.1611 98.2891 8.73967 98.0803 9.30163C97.5521 10.5234 98.3411 11.6522 99.0397 12.5803C100.124 14.0197 101.33 15.8634 102.656 18.1112C103.469 19.4903 104.019 20.4565 104.305 21.0097C104.472 21.3305 104.641 21.5699 104.813 21.7281C104.847 21.7596 104.888 21.7723 104.934 21.7661C104.972 21.7618 105 21.7727 105.015 21.7989C105.032 21.826 105.031 21.8667 105.014 21.9208C104.79 22.6261 105.081 23.1151 105.203 23.6854C105.286 24.0752 105.385 24.4628 105.502 24.8482C105.511 24.8814 105.531 24.8884 105.561 24.8692L105.652 24.8089L106.053 26.458C101.953 28.5958 97.6552 29.3933 93.1585 28.8505C80.0946 27.2721 71.4596 14.7106 74.4861 1.88033C74.4878 1.87247 74.5031 1.83139 74.532 1.7571C74.5538 1.70117 74.5477 1.65398 74.5136 1.61553C80.0999 1.83402 85.3851 3.01256 90.3693 5.15116C90.9211 5.38844 91.2069 4.91388 90.8779 4.50748C90.8508 4.47427 90.8578 4.45111 90.8989 4.438C93.9589 3.45217 97.0728 2.68876 100.24 2.14777C102.653 1.73482 105.161 1.43986 107.61 1.61159C108.907 1.70336 110.195 1.93933 111.126 2.75212ZM85.6481 24.4143C86.5499 24.8534 91.2908 26.7766 91.9461 25.7973C91.9697 25.7615 91.9789 25.7222 91.9736 25.6793C91.9466 25.4678 91.8815 25.2699 91.7784 25.0855C90.794 23.3445 88.4478 20.6479 86.1895 20.9442C84.9666 21.1054 84.0307 22.6668 84.7804 23.7745C84.9264 23.9913 85.2156 24.2045 85.6481 24.4143Z" fill="#FF6F04"/>
<path d="M74.5136 1.61553C74.5477 1.65398 74.5538 1.70117 74.532 1.7571C74.5031 1.83139 74.4878 1.87247 74.4861 1.88033C71.4596 14.7106 80.0946 27.2721 93.1585 28.8505C97.6552 29.3933 101.953 28.5958 106.053 26.458C107.258 30.9887 107.846 35.2335 108.359 39.9516C108.41 40.4262 108.506 40.9488 108.645 41.5195C110.054 47.2877 109.431 52.9668 105.419 57.5774L105.306 57.5498C105.267 57.5402 105.229 57.545 105.194 57.5643C102.92 58.8018 100.557 59.8746 98.1039 60.7826C98.3083 55.274 97.5743 49.089 94.5282 44.3669C96.5126 41.652 95.2976 37.8594 92.6749 36.1171C89.655 34.1114 84.3505 34.2857 82.2599 37.6391C81.3752 39.0576 81.366 41.0017 82.8078 42.0518C84.0622 42.9655 85.6848 43.4925 87.685 44.2883C89.3417 47.5919 89.9276 51.4657 90.077 55.0656C90.1863 57.6683 90.1849 60.4073 90.0731 63.2826C78.2583 66.1248 66.4566 66.1322 54.6681 63.3049C54.4584 58.3718 54.4217 53.1647 55.5646 48.3378C55.9071 46.8931 56.4052 45.549 57.0588 44.3053C59.2097 43.4689 61.0067 42.9091 62.2021 41.8971C63.459 40.8326 63.3542 38.9409 62.5455 37.6378C62.0124 36.7813 61.2256 36.1049 60.1849 35.6085C57.3996 34.2818 53.8489 34.5636 51.4817 36.6113C49.2915 38.507 48.5221 41.8171 50.2326 44.3263C47.2022 49.0995 46.3843 55.2832 46.6439 60.8351C44.1823 59.9192 41.8078 58.8481 39.5201 57.6219C39.4887 57.6053 39.4424 57.6119 39.3812 57.6416C35.7544 53.5121 34.6679 48.1149 35.8436 42.8003C36.0677 41.7909 36.3377 40.4721 36.4688 39.2582C36.8699 35.56 37.3666 31.9365 38.2382 28.3143C38.7092 26.3593 39.1916 24.4064 39.6853 22.4557C39.7395 22.2416 39.6608 22.0799 39.4494 21.9707C39.4441 21.8719 39.4603 21.7797 39.4979 21.694C39.7827 21.6468 39.9981 21.4957 40.144 21.2405C42.0039 17.9945 43.7603 15.155 45.7788 12.225C46.8103 10.7279 47.2416 9.3829 45.8876 7.89891C45.5346 7.51174 44.9828 7.03718 44.2322 6.47522C42.1516 4.72029 39.7731 3.5684 37.0966 3.01955C35.9423 2.78271 34.7496 2.77004 33.5184 2.98154C34.8723 1.20127 39.2711 1.48705 41.2123 1.69812C45.5298 2.16656 49.7533 3.08248 53.8829 4.44587C53.9336 4.46247 53.9384 4.48782 53.8974 4.5219C53.4609 4.88635 53.8895 5.37664 54.4125 5.14329C60.6135 2.39554 67.8014 1.34285 74.5136 1.61553ZM52.9235 25.9323C54.2198 26.5013 57.9265 24.9793 59.2097 24.3762C60.5309 23.7562 60.4745 22.1214 59.4666 21.344C57.1322 19.5441 53.5042 23.7103 52.7688 25.5574C52.7408 25.6277 52.7412 25.7063 52.7701 25.7763C52.799 25.8463 52.854 25.9023 52.9235 25.9323ZM66.8813 40.9375C70.723 39.3656 74.5844 39.464 78.4353 40.9257C78.5358 40.9633 78.5462 40.9458 78.4667 40.8732C76.6474 39.2136 73.8635 38.6092 71.478 38.8898C69.7592 39.0917 68.2139 39.7524 66.842 40.8719C66.8347 40.8776 66.8298 40.8856 66.8281 40.8945C66.8264 40.9035 66.8281 40.9127 66.8329 40.9207C66.8377 40.9286 66.8451 40.9346 66.854 40.9377C66.8629 40.9408 66.8726 40.9407 66.8813 40.9375ZM69.4503 43.4532C70.152 44.0178 70.9362 44.443 71.803 44.7288C71.8241 44.7357 71.8434 44.7469 71.8596 44.7616C71.8759 44.7763 71.8888 44.7941 71.8974 44.814C72.0888 45.2527 72.2185 45.7098 72.2867 46.1852C72.2909 46.2169 72.3058 46.2462 72.3291 46.268C72.3524 46.2898 72.3825 46.3029 72.4145 46.3051C72.4465 46.3072 72.4784 46.2983 72.5047 46.2798C72.5311 46.2613 72.5504 46.2344 72.5593 46.2036C72.7048 45.712 72.7219 44.8231 73.3235 44.6068C74.3865 44.224 75.6867 43.4112 76.2686 42.4149C76.8794 41.3675 76.2424 40.8995 75.2869 40.6635C73.3034 40.1723 71.3443 40.1784 69.4097 40.6818C67.42 41.201 68.5616 42.7348 69.4503 43.4532ZM98.0881 47.2458C98.0868 47.4686 98.2061 47.5591 98.4263 47.508C100.597 47.0085 102.744 46.1944 104.785 45.3056C104.786 45.3047 104.787 45.3033 104.788 45.3018C104.788 45.3002 104.788 45.2985 104.788 45.2969C104.787 45.2953 104.786 45.2939 104.785 45.2929C104.784 45.2918 104.782 45.2912 104.781 45.2911C102.517 45.7526 100.251 46.2927 98.1222 47.196C98.1121 47.2003 98.1035 47.2073 98.0975 47.2161C98.0914 47.225 98.0882 47.2353 98.0881 47.2458ZM46.5115 47.6089L46.6596 47.1343C46.6602 47.1325 46.6605 47.1306 46.6603 47.1287C46.6602 47.1268 46.6597 47.125 46.6588 47.1233C46.658 47.1215 46.6568 47.12 46.6554 47.1188C46.6539 47.1175 46.6522 47.1166 46.6504 47.116L46.0776 46.9364C44.486 46.4375 42.9513 45.9854 41.8107 45.6793C40.67 45.3733 40.0168 45.2384 39.9946 45.3043L39.9933 45.3069C39.9819 45.3394 40.1262 45.4204 40.418 45.5453C40.7097 45.6701 41.1433 45.8363 41.6938 46.0344C42.2443 46.2325 42.9009 46.4586 43.6262 46.6998C44.3514 46.9409 45.131 47.1924 45.9204 47.4398L46.4931 47.6181C46.4949 47.6187 46.4969 47.6189 46.4988 47.6188C46.5007 47.6187 46.5025 47.6182 46.5042 47.6173C46.5059 47.6165 46.5075 47.6153 46.5087 47.6138C46.5099 47.6124 46.5109 47.6107 46.5115 47.6089ZM66.7882 49.0654C66.4946 49.6317 67.0111 50.2269 67.538 49.8913C67.6123 49.8441 67.7158 49.7095 67.8486 49.4875C68.0915 49.0846 68.4048 48.8045 68.7884 48.6472C70.415 47.9825 71.2473 50.1915 73.2304 49.4521C73.7468 49.2607 74.355 48.718 74.899 48.5764C75.8754 48.3208 76.5989 48.9539 77.0603 49.7707C77.3356 50.2583 78.434 49.8506 77.8979 48.9631C77.3146 47.9943 76.4207 47.3756 75.2909 47.3546C73.988 47.3297 72.8267 48.9736 71.6877 48.2605C70.9563 47.8016 70.2892 47.3611 69.3913 47.3664C68.2851 47.3729 67.2929 48.0926 66.7882 49.0654ZM40.0077 50.0473C41.7422 50.1757 43.4256 50.2627 45.0579 50.3082C45.5298 50.3213 45.9981 50.2924 46.463 50.2216C46.5792 50.2033 46.6447 50.1452 46.6596 50.0473C46.6672 49.9955 46.6541 49.9429 46.6232 49.9007C46.5923 49.8585 46.5461 49.8302 46.4945 49.8218C46.0296 49.7484 45.559 49.7182 45.0828 49.7313C43.3623 49.7785 41.6439 49.872 39.9278 50.0119C39.9243 50.0124 39.921 50.0139 39.9184 50.0163C39.9159 50.0187 39.9141 50.0218 39.9134 50.0253C39.9126 50.0287 39.913 50.0323 39.9144 50.0356C39.9158 50.0388 39.9182 50.0415 39.9212 50.0433C39.9396 50.0521 39.9588 50.0547 39.9789 50.0512C39.9862 50.05 39.9929 50.049 39.9981 50.0483C40.0032 50.0476 40.0066 50.0472 40.0077 50.0473ZM98.2454 50.2203C98.5862 50.2745 98.923 50.299 99.256 50.2937C101.085 50.264 102.912 50.1806 104.737 50.0433C104.749 50.0425 104.756 50.0381 104.758 50.0302C104.761 50.0232 104.762 50.0176 104.761 50.0132C104.758 50.0071 104.751 50.0031 104.739 50.0014C102.648 49.8441 100.423 49.637 98.3319 49.8008C98.1995 49.8113 98.0724 49.8926 98.0776 50.0302C98.0792 50.0765 98.0968 50.1207 98.1274 50.1554C98.158 50.1901 98.1997 50.213 98.2454 50.2203ZM46.6793 52.8933L46.5429 52.4581C46.5411 52.4523 46.5371 52.4473 46.5317 52.4444C46.5263 52.4415 46.52 52.4407 46.5141 52.4424L46.501 52.4463C45.6304 52.7192 44.7701 52.9955 43.9696 53.2593C43.1691 53.5232 42.4439 53.7695 41.8357 53.984C41.2274 54.1986 40.7481 54.3772 40.4249 54.5097C40.1018 54.6422 39.9413 54.726 39.9527 54.7562L39.9566 54.7693C39.978 54.8307 40.6951 54.6712 41.9505 54.3258C43.2059 53.9805 44.8968 53.4775 46.6517 52.9274L46.6635 52.9235C46.6666 52.9226 46.6694 52.9211 46.6719 52.9191C46.6743 52.9171 46.6763 52.9146 46.6778 52.9118C46.6793 52.909 46.6802 52.9059 46.6804 52.9027C46.6807 52.8995 46.6803 52.8964 46.6793 52.8933ZM98.1956 52.9169C98.7854 53.1765 99.3901 53.3889 100.01 53.5541C101.594 53.9749 103.158 54.4036 104.724 54.7588C104.885 54.7955 104.889 54.7829 104.736 54.7208C103.156 54.0846 101.534 53.4833 99.8681 52.9169C99.3892 52.7544 98.9016 52.6237 98.4053 52.525C98.2389 52.4909 98.096 52.5171 98.075 52.7072C98.07 52.7505 98.079 52.7942 98.1007 52.832C98.1224 52.8697 98.1557 52.8995 98.1956 52.9169Z" fill="white"/>
<path d="M111.126 2.75212C112.211 4.08929 111.685 7.17396 111.351 8.72481C110.304 13.5793 108.415 18.3655 106.215 22.8084C106.187 22.8608 106.16 22.8612 106.132 22.8097C105.968 22.5134 105.718 21.6849 105.207 22.0441C105.074 22.1376 105.024 22.2525 105.059 22.3888C105.262 23.1981 105.46 24.0048 105.652 24.8089L105.561 24.8692C105.531 24.8884 105.511 24.8814 105.502 24.8482C105.385 24.4628 105.286 24.0752 105.203 23.6854C105.081 23.1151 104.79 22.6261 105.014 21.9208C105.031 21.8667 105.032 21.826 105.015 21.7989C105 21.7727 104.972 21.7618 104.934 21.7661C104.888 21.7723 104.847 21.7596 104.813 21.7281C104.641 21.5699 104.472 21.3305 104.305 21.0097C104.019 20.4565 103.469 19.4903 102.656 18.1112C101.33 15.8634 100.124 14.0197 99.0397 12.5803C98.3411 11.6522 97.5521 10.5234 98.0803 9.30163C97.9745 10.2481 98.2223 11.1291 98.8234 11.9445C100.901 14.7644 102.645 17.731 104.706 21.323C104.857 21.5879 105.084 21.705 105.386 21.6744C105.426 21.6701 105.463 21.6515 105.49 21.6219C105.697 21.3921 105.855 21.1867 105.966 21.0058C108.052 17.5567 109.409 13.3538 110.24 9.42748C110.49 8.24587 110.638 6.9961 110.684 5.67816C110.739 4.05782 109.231 3.89133 108.015 4.01719C105.365 4.29249 102.306 5.21408 100.143 6.84228C99.8034 7.09748 99.4683 7.3387 99.138 7.56593C99.8484 6.87025 100.647 6.23269 101.533 5.65325C102.29 5.15858 103.047 4.72335 103.803 4.34754C105.994 3.25683 108.494 2.58825 110.955 2.9173C111.062 2.93128 111.119 2.87622 111.126 2.75212Z" fill="#CD5B15"/>
<path d="M44.2322 6.47522C42.336 5.38363 40.3319 4.64032 38.2199 4.24529C37.1792 4.05127 36.3443 3.91624 35.4189 4.06569C34.0413 4.28855 34.082 5.28094 34.1514 6.46211C34.1768 6.89734 34.2248 7.33083 34.2956 7.76257C34.9204 11.5739 36.0279 15.2372 37.6183 18.7523C37.845 19.2504 38.8975 21.483 39.4979 21.694C39.4603 21.7797 39.4441 21.8719 39.4494 21.9707C38.9552 21.8723 38.8386 22.4465 38.6498 22.773C38.6201 22.8245 38.5917 22.8236 38.5646 22.7703C36.8493 19.3217 35.408 15.6781 34.2406 11.8396C33.5577 9.59528 32.3099 5.03317 33.5184 2.98154C34.7496 2.77004 35.9423 2.78271 37.0966 3.01955C39.7731 3.5684 42.1516 4.72029 44.2322 6.47522Z" fill="#CDC5D0"/>
<path d="M44.2322 6.47522C44.9828 7.03718 45.5346 7.51174 45.8876 7.89891C47.2416 9.3829 46.8103 10.7279 45.7788 12.225C43.7603 15.155 42.0039 17.9945 40.144 21.2405C39.9981 21.4957 39.7827 21.6468 39.4979 21.694C38.8975 21.483 37.845 19.2504 37.6183 18.7523C36.0279 15.2372 34.9204 11.5739 34.2956 7.76257C34.2248 7.33083 34.1768 6.89734 34.1514 6.46211C34.082 5.28094 34.0413 4.28855 35.4189 4.06569C36.3443 3.91624 37.1792 4.05127 38.2199 4.24529C40.3319 4.64032 42.336 5.38363 44.2322 6.47522ZM45.0264 10.9836C46.5233 8.82706 42.2412 7.10054 40.9278 6.59189C39.4166 6.00589 37.2539 5.27045 35.6234 5.38582C35.4661 5.39631 35.3892 5.48064 35.3927 5.63883C35.411 6.44638 35.4779 7.21197 35.5932 7.93561C36.2564 12.0953 37.4466 16.3834 39.5136 20.0763C39.5184 20.085 39.5255 20.0923 39.5341 20.0973C39.5427 20.1023 39.5525 20.1048 39.5625 20.1047C39.5724 20.1045 39.5821 20.1017 39.5906 20.0965C39.5991 20.0913 39.606 20.0838 39.6106 20.075C41.1992 16.9252 43.0045 13.8948 45.0264 10.9836Z" fill="black"/>
<path d="M98.0803 9.30163C98.2891 8.73967 98.6417 8.1611 99.138 7.56593C99.4683 7.3387 99.8034 7.09748 100.143 6.84228C102.306 5.21408 105.365 4.29249 108.015 4.01719C109.231 3.89133 110.739 4.05782 110.684 5.67816C110.638 6.9961 110.49 8.24587 110.24 9.42748C109.409 13.3538 108.052 17.5567 105.966 21.0058C105.855 21.1867 105.697 21.3921 105.49 21.6219C105.463 21.6515 105.426 21.6701 105.386 21.6744C105.084 21.705 104.857 21.5879 104.706 21.323C102.645 17.731 100.901 14.7644 98.8234 11.9445C98.2223 11.1291 97.9745 10.2481 98.0803 9.30163ZM109.274 5.39893C108.763 5.3561 108.264 5.3797 107.774 5.46972C105.167 5.9469 102.285 6.9157 100.226 8.64353C98.9833 9.68705 99.4867 10.568 100.286 11.7505C102.098 14.4239 103.729 17.1966 105.182 20.0685C105.187 20.0792 105.196 20.0883 105.206 20.0946C105.216 20.101 105.228 20.1044 105.24 20.1045C105.252 20.1047 105.264 20.1015 105.275 20.0954C105.285 20.0893 105.294 20.0804 105.3 20.0698C107.314 16.3742 108.487 12.2303 109.19 8.1008C109.336 7.24169 109.4 6.37864 109.381 5.51167C109.381 5.48305 109.369 5.45565 109.349 5.43482C109.33 5.41398 109.303 5.40119 109.274 5.39893Z" fill="black"/>
<path d="M40.9278 6.59189C42.2412 7.10054 46.5233 8.82706 45.0264 10.9836C43.0045 13.8948 41.1992 16.9252 39.6106 20.075C39.606 20.0838 39.5991 20.0913 39.5906 20.0965C39.5821 20.1017 39.5724 20.1045 39.5625 20.1047C39.5525 20.1048 39.5427 20.1023 39.5341 20.0973C39.5255 20.0923 39.5184 20.085 39.5136 20.0763C37.4466 16.3834 36.2564 12.0953 35.5932 7.93561C35.4779 7.21197 35.411 6.44638 35.3927 5.63883C35.3892 5.48064 35.4661 5.39631 35.6234 5.38582C37.2539 5.27045 39.4166 6.00589 40.9278 6.59189Z" fill="#FE8081"/>
<path d="M109.274 5.39893C109.303 5.40119 109.33 5.41398 109.349 5.43482C109.369 5.45565 109.381 5.48305 109.381 5.51167C109.4 6.37864 109.336 7.24169 109.19 8.1008C108.487 12.2303 107.314 16.3742 105.3 20.0698C105.294 20.0804 105.285 20.0893 105.275 20.0954C105.264 20.1015 105.252 20.1047 105.24 20.1045C105.228 20.1044 105.216 20.101 105.206 20.0946C105.196 20.0883 105.187 20.0792 105.182 20.0685C103.729 17.1966 102.098 14.4239 100.286 11.7505C99.4867 10.568 98.9833 9.68705 100.226 8.64353C102.285 6.9157 105.167 5.9469 107.774 5.46972C108.264 5.3797 108.763 5.3561 109.274 5.39893Z" fill="#FE8081"/>
<path d="M52.9235 25.9323C52.854 25.9023 52.799 25.8463 52.7701 25.7763C52.7412 25.7063 52.7408 25.6277 52.7688 25.5574C53.5042 23.7103 57.1322 19.5441 59.4666 21.344C60.4745 22.1214 60.5309 23.7562 59.2097 24.3762C57.9265 24.9793 54.2198 26.5013 52.9235 25.9323Z" fill="black"/>
<path d="M84.7804 23.7745C84.0307 22.6668 84.9666 21.1054 86.1895 20.9442C88.4478 20.6479 90.794 23.3445 91.7784 25.0855C91.8815 25.2699 91.9466 25.4678 91.9736 25.6793C91.9789 25.7222 91.9697 25.7615 91.9461 25.7973C91.2908 26.7766 86.5499 24.8534 85.6481 24.4143C85.2156 24.2045 84.9264 23.9913 84.7804 23.7745Z" fill="black"/>
<path d="M57.0588 44.3053C57.5071 43.4938 56.6551 43.0691 56.0024 42.9026C53.955 42.3821 51.4935 42.4608 50.2326 44.3263C48.5221 41.8171 49.2915 38.507 51.4817 36.6113C53.8489 34.5636 57.3996 34.2818 60.1849 35.6085C61.2256 36.1049 62.0124 36.7813 62.5455 37.6378C63.3542 38.9409 63.459 40.8326 62.2021 41.8971C61.0067 42.9091 59.2097 43.4689 57.0588 44.3053ZM58.9515 41.3629C59.4611 41.3093 59.9274 41.045 60.2479 40.6282C60.5685 40.2113 60.7169 39.676 60.6606 39.1401C60.6327 38.8747 60.5554 38.6171 60.433 38.3821C60.3107 38.1471 60.1458 37.9392 59.9476 37.7703C59.7495 37.6014 59.522 37.4748 59.2782 37.3977C59.0345 37.3207 58.7791 37.2947 58.5268 37.3212C58.0172 37.3748 57.5508 37.6391 57.2303 38.0559C56.9098 38.4728 56.7614 39.0081 56.8177 39.544C56.8456 39.8094 56.9229 40.067 57.0453 40.302C57.1676 40.537 57.3325 40.7449 57.5307 40.9138C57.7288 41.0827 57.9563 41.2093 58.2 41.2864C58.4438 41.3634 58.6992 41.3894 58.9515 41.3629ZM53.5462 41.2372C53.8802 41.2097 54.189 41.0438 54.4048 40.7759C54.6205 40.508 54.7255 40.1601 54.6966 39.8088C54.6823 39.6348 54.6355 39.4652 54.5591 39.3097C54.4826 39.1541 54.3778 39.0157 54.2507 38.9023C54.1237 38.7889 53.9769 38.7027 53.8186 38.6487C53.6603 38.5947 53.4938 38.5739 53.3284 38.5875C52.9944 38.6149 52.6856 38.7809 52.4699 39.0487C52.2541 39.3166 52.1491 39.6645 52.178 40.0159C52.1923 40.1898 52.2391 40.3594 52.3156 40.515C52.3921 40.6705 52.4968 40.8089 52.6239 40.9223C52.7509 41.0357 52.8978 41.1219 53.056 41.1759C53.2143 41.23 53.3808 41.2508 53.5462 41.2372Z" fill="black"/>
<path d="M94.5282 44.3669C93.2935 42.4569 90.6131 42.3402 88.6759 42.9262C88.0363 43.1202 87.238 43.4951 87.685 44.2883C85.6848 43.4925 84.0622 42.9655 82.8078 42.0518C81.366 41.0017 81.3752 39.0576 82.2599 37.6391C84.3505 34.2857 89.655 34.1114 92.6749 36.1171C95.2976 37.8594 96.5126 41.652 94.5282 44.3669ZM85.8549 41.362C86.1076 41.3881 86.3633 41.3617 86.6072 41.2843C86.8512 41.2069 87.0787 41.0801 87.2768 40.911C87.4749 40.7419 87.6396 40.5339 87.7616 40.2988C87.8837 40.0637 87.9606 39.8062 87.988 39.541C88.0433 39.0052 87.8937 38.4705 87.5719 38.0544C87.2502 37.6383 86.7827 37.3749 86.2723 37.3222C86.0196 37.296 85.764 37.3224 85.52 37.3998C85.2761 37.4772 85.0485 37.604 84.8505 37.7731C84.6524 37.9422 84.4876 38.1502 84.3656 38.3853C84.2436 38.6204 84.1667 38.8779 84.1393 39.1432C84.0839 39.6789 84.2336 40.2136 84.5553 40.6297C84.8771 41.0458 85.3445 41.3092 85.8549 41.362ZM91.2381 41.2355C91.5716 41.2676 91.905 41.159 92.1647 40.9336C92.4245 40.7082 92.5894 40.3844 92.6232 40.0335C92.657 39.6825 92.5569 39.3332 92.3449 39.0623C92.1329 38.7915 91.8264 38.6213 91.4929 38.5891C91.1593 38.557 90.826 38.6656 90.5662 38.891C90.3065 39.1165 90.1415 39.4403 90.1078 39.7912C90.074 40.1421 90.1741 40.4914 90.3861 40.7623C90.598 41.0332 90.9045 41.2034 91.2381 41.2355Z" fill="black"/>
<path d="M58.9515 41.3629C58.6992 41.3894 58.4438 41.3634 58.2 41.2864C57.9563 41.2093 57.7288 41.0827 57.5307 40.9138C57.3325 40.7449 57.1676 40.537 57.0453 40.302C56.9229 40.067 56.8456 39.8094 56.8177 39.544C56.7614 39.0081 56.9098 38.4728 57.2303 38.0559C57.5508 37.6391 58.0172 37.3748 58.5268 37.3212C58.7791 37.2947 59.0345 37.3207 59.2782 37.3977C59.522 37.4748 59.7495 37.6014 59.9476 37.7703C60.1458 37.9392 60.3107 38.1471 60.433 38.3821C60.5554 38.6171 60.6327 38.8747 60.6606 39.1401C60.7169 39.676 60.5685 40.2113 60.2479 40.6282C59.9274 41.045 59.4611 41.3093 58.9515 41.3629Z" fill="white"/>
<path d="M85.8549 41.362C85.3445 41.3092 84.8771 41.0458 84.5553 40.6297C84.2336 40.2136 84.0839 39.6789 84.1393 39.1432C84.1667 38.8779 84.2436 38.6204 84.3656 38.3853C84.4876 38.1502 84.6524 37.9422 84.8505 37.7731C85.0485 37.604 85.2761 37.4772 85.52 37.3998C85.764 37.3224 86.0196 37.296 86.2723 37.3222C86.7827 37.3749 87.2502 37.6383 87.5719 38.0544C87.8937 38.4705 88.0433 39.0052 87.988 39.541C87.9606 39.8062 87.8837 40.0637 87.7616 40.2988C87.6396 40.5339 87.4749 40.7419 87.2768 40.911C87.0787 41.0801 86.8512 41.2069 86.6072 41.2843C86.3633 41.3617 86.1076 41.3881 85.8549 41.362Z" fill="white"/>
<path d="M53.5462 41.2372C53.3808 41.2508 53.2143 41.23 53.056 41.1759C52.8978 41.1219 52.7509 41.0357 52.6239 40.9223C52.4968 40.8089 52.3921 40.6705 52.3156 40.515C52.2391 40.3594 52.1923 40.1898 52.178 40.0159C52.1491 39.6645 52.2541 39.3166 52.4699 39.0487C52.6856 38.7809 52.9944 38.6149 53.3284 38.5875C53.4938 38.5739 53.6603 38.5947 53.8186 38.6487C53.9769 38.7027 54.1237 38.7889 54.2507 38.9023C54.3778 39.0157 54.4826 39.1541 54.5591 39.3097C54.6355 39.4652 54.6823 39.6348 54.6966 39.8088C54.7255 40.1601 54.6205 40.508 54.4048 40.7759C54.189 41.0438 53.8802 41.2097 53.5462 41.2372Z" fill="white"/>
<path d="M91.2381 41.2355C90.9045 41.2034 90.598 41.0332 90.3861 40.7623C90.1741 40.4914 90.074 40.1421 90.1078 39.7912C90.1415 39.4403 90.3065 39.1165 90.5662 38.891C90.826 38.6656 91.1593 38.557 91.4929 38.5891C91.8264 38.6213 92.1329 38.7915 92.3449 39.0623C92.5569 39.3332 92.657 39.6825 92.6232 40.0335C92.5894 40.3844 92.4245 40.7082 92.1647 40.9336C91.905 41.159 91.5716 41.2676 91.2381 41.2355Z" fill="white"/>
<path d="M78.4353 40.9257C74.5844 39.464 70.723 39.3656 66.8813 40.9375C66.8726 40.9407 66.8629 40.9408 66.854 40.9377C66.8451 40.9346 66.8377 40.9286 66.8329 40.9207C66.8281 40.9127 66.8264 40.9035 66.8281 40.8945C66.8298 40.8856 66.8347 40.8776 66.842 40.8719C68.2139 39.7524 69.7592 39.0917 71.478 38.8898C73.8635 38.6092 76.6474 39.2136 78.4667 40.8732C78.5462 40.9458 78.5358 40.9633 78.4353 40.9257Z" fill="black"/>
<path d="M69.4503 43.4532C68.5616 42.7348 67.42 41.201 69.4097 40.6818C71.3443 40.1784 73.3034 40.1723 75.2869 40.6635C76.2424 40.8995 76.8794 41.3675 76.2686 42.4149C75.6867 43.4112 74.3865 44.224 73.3235 44.6068C72.7219 44.8231 72.7048 45.712 72.5593 46.2036C72.5504 46.2344 72.5311 46.2613 72.5047 46.2798C72.4784 46.2983 72.4465 46.3072 72.4145 46.3051C72.3825 46.3029 72.3524 46.2898 72.3291 46.268C72.3058 46.2462 72.2909 46.2169 72.2867 46.1852C72.2185 45.7098 72.0888 45.2527 71.8974 44.814C71.8888 44.7941 71.8759 44.7763 71.8596 44.7616C71.8434 44.7469 71.8241 44.7357 71.803 44.7288C70.9362 44.443 70.152 44.0178 69.4503 43.4532Z" fill="black"/>
<path d="M57.0588 44.3053C56.4052 45.549 55.9071 46.8931 55.5646 48.3378C54.4217 53.1647 54.4584 58.3718 54.6681 63.3049L54.7231 66.4643C54.7179 67 54.6025 67.4637 54.3771 67.8552C52.4005 69.0967 48.1224 67.2954 47.2245 65.2464L46.8339 63.28L46.6439 60.8351C46.3843 55.2832 47.2022 49.0995 50.2326 44.3263C51.4935 42.4608 53.955 42.3821 56.0024 42.9026C56.6551 43.0691 57.5071 43.4938 57.0588 44.3053ZM48.8183 65.5283C50.081 66.5456 51.5145 67.0818 53.1188 67.1368C53.4072 67.146 53.5422 66.9939 53.5461 66.7042C53.6339 59.3222 52.5382 51.0829 55.8267 44.1231C55.8503 44.0724 55.8355 44.0396 55.7822 44.0248C54.44 43.6538 52.1882 43.5476 51.2904 44.848C49.6598 47.2091 48.741 50.1902 48.2613 53.0572C47.7143 56.3232 47.6099 59.6032 47.948 62.8972C48.0306 63.6943 48.1512 64.9921 48.8183 65.5283Z" fill="#27AFD6"/>
<path d="M94.5282 44.3669C97.5743 49.089 98.3083 55.274 98.1039 60.7826L97.8954 63.3036L97.518 65.2753C96.5402 67.2928 92.4206 69.081 90.4034 67.8788C90.1439 67.5109 90.0163 67.0451 90.0207 66.4814L90.0731 63.2826C90.1849 60.4073 90.1863 57.6683 90.077 55.0656C89.9276 51.4657 89.3417 47.5919 87.685 44.2883C87.238 43.4951 88.0363 43.1202 88.6759 42.9262C90.6131 42.3402 93.2935 42.4569 94.5282 44.3669ZM91.3642 67.0818C92.7994 67.2587 94.5295 66.5928 95.7131 65.7118C96.3462 65.2425 96.5716 64.5621 96.6712 63.8162C97.2217 59.6998 97.0623 55.6127 96.1928 51.5549C95.7673 49.5675 95.0643 47.6854 94.0839 45.9086C93.7178 45.2435 93.4631 44.8345 93.3197 44.6816C92.2817 43.5725 90.2828 43.6485 88.9524 44.0182C88.9438 44.0206 88.9359 44.0249 88.9291 44.0306C88.9223 44.0364 88.9168 44.0436 88.9131 44.0517C88.9094 44.0598 88.9074 44.0687 88.9074 44.0776C88.9074 44.0865 88.9094 44.0953 88.9131 44.1034C90.7324 48.1189 91.2541 52.5958 91.2921 56.9665C91.3165 59.7509 91.2776 62.5345 91.1754 65.3172C91.1544 65.8744 91.182 66.3935 91.2187 66.9271C91.2248 67.0188 91.2733 67.0704 91.3642 67.0818Z" fill="#27AFD6"/>
<path d="M48.8183 65.5283C48.1512 64.9921 48.0306 63.6943 47.948 62.8972C47.6099 59.6032 47.7143 56.3232 48.2613 53.0572C48.741 50.1902 49.6598 47.2091 51.2904 44.848C52.1882 43.5476 54.44 43.6538 55.7822 44.0248C55.8355 44.0396 55.8503 44.0724 55.8267 44.1231C52.5382 51.0829 53.6339 59.3222 53.5461 66.7042C53.5422 66.9939 53.4072 67.146 53.1188 67.1368C51.5145 67.0818 50.081 66.5456 48.8183 65.5283ZM50.8801 49.4836C50.9496 50.0761 51.6062 50.3619 52.0833 50.0774C53.0834 49.4823 53.242 46.239 53.2512 45.0696C53.2521 44.9175 53.1734 44.8279 53.0153 44.8009C52.9961 44.7976 52.9766 44.7989 52.9581 44.8046C52.9397 44.8103 52.9229 44.8202 52.9091 44.8336C51.8028 45.9322 50.6887 47.8711 50.8801 49.4836ZM50.7844 53.5986C51.542 54.0457 52.1069 53.482 52.2052 52.7426C52.2668 52.2759 52.0715 51.2822 51.4686 51.2547C50.5183 51.2114 49.9849 53.1267 50.7844 53.5986Z" fill="#67E9FF"/>
<path d="M91.3642 67.0818C91.2733 67.0704 91.2248 67.0188 91.2187 66.9271C91.182 66.3935 91.1544 65.8744 91.1754 65.3172C91.2776 62.5345 91.3165 59.7509 91.2921 56.9665C91.2541 52.5958 90.7324 48.1189 88.9131 44.1034C88.9094 44.0953 88.9074 44.0865 88.9074 44.0776C88.9074 44.0687 88.9094 44.0598 88.9131 44.0517C88.9168 44.0436 88.9223 44.0364 88.9291 44.0306C88.9359 44.0249 88.9438 44.0206 88.9524 44.0182C90.2828 43.6485 92.2817 43.5725 93.3197 44.6816C93.4631 44.8345 93.7178 45.2435 94.0839 45.9086C95.0643 47.6854 95.7673 49.5675 96.1928 51.5549C97.0623 55.6127 97.2217 59.6998 96.6712 63.8162C96.5716 64.5621 96.3462 65.2425 95.7131 65.7118C94.5295 66.5928 92.7994 67.2587 91.3642 67.0818ZM92.9724 50.1718C93.616 50.2662 93.9817 49.6068 93.9083 49.0405C93.7003 47.4429 93.024 46.0528 91.8793 44.8703C91.8532 44.8432 91.8202 44.8237 91.7839 44.814C91.7475 44.8042 91.7091 44.8046 91.6729 44.8152C91.6366 44.8257 91.6039 44.8459 91.5781 44.8736C91.5524 44.9014 91.5346 44.9356 91.5267 44.9726C91.4441 45.3764 91.4887 45.7028 91.5385 46.2468C91.6093 47.0229 91.7521 49.9909 92.9724 50.1718ZM92.9921 53.5947C93.595 53.9814 94.291 53.6039 94.3421 52.9038C94.3893 52.2676 94.1835 51.7738 93.7248 51.4225C92.6447 50.5966 92.0693 53.0022 92.9921 53.5947Z" fill="#67E9FF"/>
<path d="M52.0833 50.0774C51.6062 50.3619 50.9496 50.0761 50.8801 49.4836C50.6887 47.8711 51.8028 45.9322 52.9091 44.8336C52.9229 44.8202 52.9397 44.8103 52.9581 44.8046C52.9766 44.7989 52.9961 44.7976 53.0153 44.8009C53.1734 44.8279 53.2521 44.9175 53.2512 45.0696C53.242 46.239 53.0834 49.4823 52.0833 50.0774Z" fill="white"/>
<path d="M92.9724 50.1718C91.7521 49.9909 91.6093 47.0229 91.5385 46.2468C91.4887 45.7028 91.4441 45.3764 91.5267 44.9726C91.5346 44.9356 91.5524 44.9014 91.5781 44.8736C91.6039 44.8459 91.6366 44.8257 91.6729 44.8152C91.7091 44.8046 91.7475 44.8042 91.7839 44.814C91.8202 44.8237 91.8532 44.8432 91.8793 44.8703C93.024 46.0528 93.7003 47.4429 93.9083 49.0405C93.9817 49.6068 93.616 50.2662 92.9724 50.1718Z" fill="white"/>
<path d="M98.0881 47.2458C98.0882 47.2353 98.0914 47.225 98.0975 47.2161C98.1035 47.2073 98.1121 47.2003 98.1222 47.196C100.251 46.2927 102.517 45.7526 104.781 45.2911C104.782 45.2912 104.784 45.2918 104.785 45.2929C104.786 45.2939 104.787 45.2953 104.788 45.2969C104.788 45.2985 104.788 45.3002 104.788 45.3018C104.787 45.3033 104.786 45.3047 104.785 45.3056C102.744 46.1944 100.597 47.0085 98.4263 47.508C98.2061 47.5591 98.0868 47.4686 98.0881 47.2458Z" fill="black"/>
<path d="M46.5115 47.6089C46.5109 47.6107 46.5099 47.6124 46.5087 47.6138C46.5075 47.6153 46.5059 47.6165 46.5042 47.6173C46.5025 47.6182 46.5007 47.6187 46.4988 47.6188C46.4969 47.6189 46.4949 47.6187 46.4931 47.6181L45.9204 47.4398C45.131 47.1924 44.3514 46.9409 43.6262 46.6998C42.9009 46.4586 42.2443 46.2325 41.6938 46.0344C41.1433 45.8363 40.7097 45.6701 40.418 45.5453C40.1262 45.4204 39.9819 45.3394 39.9933 45.3069L39.9946 45.3043C40.0168 45.2384 40.67 45.3733 41.8107 45.6793C42.9513 45.9854 44.486 46.4375 46.0776 46.9364L46.6504 47.116C46.6522 47.1166 46.6539 47.1175 46.6554 47.1188C46.6568 47.12 46.658 47.1215 46.6588 47.1233C46.6597 47.125 46.6602 47.1268 46.6603 47.1287C46.6605 47.1306 46.6602 47.1325 46.6596 47.1343L46.5115 47.6089Z" fill="black"/>
<path d="M67.538 49.8913C67.0111 50.2269 66.4946 49.6317 66.7882 49.0654C67.2929 48.0926 68.2851 47.3729 69.3913 47.3664C70.2892 47.3611 70.9563 47.8016 71.6877 48.2605C72.8267 48.9736 73.988 47.3297 75.2909 47.3546C76.4207 47.3756 77.3146 47.9943 77.8979 48.9631C78.434 49.8506 77.3356 50.2583 77.0603 49.7707C76.5989 48.9539 75.8754 48.3208 74.899 48.5764C74.355 48.718 73.7468 49.2607 73.2304 49.4521C71.2473 50.1915 70.415 47.9825 68.7884 48.6472C68.4048 48.8045 68.0915 49.0846 67.8486 49.4875C67.7158 49.7095 67.6123 49.8441 67.538 49.8913Z" fill="black"/>
<path d="M40.0077 50.0473C40.0066 50.0472 40.0032 50.0476 39.9981 50.0483C39.9929 50.049 39.9862 50.05 39.9789 50.0512C39.9588 50.0547 39.9396 50.0521 39.9212 50.0433C39.9182 50.0415 39.9158 50.0388 39.9144 50.0356C39.913 50.0323 39.9126 50.0287 39.9134 50.0253C39.9141 50.0218 39.9159 50.0187 39.9184 50.0163C39.921 50.0139 39.9243 50.0124 39.9278 50.0119C41.6439 49.872 43.3623 49.7785 45.0828 49.7313C45.559 49.7182 46.0296 49.7484 46.4945 49.8218C46.5461 49.8302 46.5923 49.8585 46.6232 49.9007C46.6541 49.9429 46.6672 49.9955 46.6596 50.0473C46.6447 50.1452 46.5792 50.2033 46.463 50.2216C45.9981 50.2924 45.5298 50.3213 45.0579 50.3082C43.4256 50.2627 41.7422 50.1757 40.0077 50.0473Z" fill="black"/>
<path d="M98.2454 50.2203C98.1997 50.213 98.158 50.1901 98.1274 50.1554C98.0968 50.1207 98.0792 50.0765 98.0776 50.0302C98.0724 49.8926 98.1995 49.8113 98.3319 49.8008C100.423 49.637 102.648 49.8441 104.739 50.0014C104.751 50.0031 104.758 50.0071 104.761 50.0132C104.762 50.0176 104.761 50.0232 104.758 50.0302C104.756 50.0381 104.749 50.0425 104.737 50.0433C102.912 50.1806 101.085 50.264 99.256 50.2937C98.923 50.299 98.5862 50.2745 98.2454 50.2203Z" fill="black"/>
<path d="M50.7844 53.5986C49.9849 53.1267 50.5183 51.2114 51.4686 51.2547C52.0715 51.2822 52.2668 52.2759 52.2052 52.7426C52.1069 53.482 51.542 54.0457 50.7844 53.5986Z" fill="white"/>
<path d="M92.9921 53.5947C92.0693 53.0022 92.6447 50.5966 93.7248 51.4225C94.1835 51.7738 94.3893 52.2676 94.3421 52.9038C94.291 53.6039 93.595 53.9814 92.9921 53.5947Z" fill="white"/>
<path d="M46.6793 52.8933C46.6803 52.8964 46.6807 52.8995 46.6804 52.9027C46.6802 52.9059 46.6793 52.909 46.6778 52.9118C46.6763 52.9146 46.6743 52.9171 46.6719 52.9191C46.6694 52.9211 46.6666 52.9226 46.6635 52.9235L46.6517 52.9274C44.8968 53.4775 43.2059 53.9805 41.9505 54.3258C40.6951 54.6712 39.978 54.8307 39.9566 54.7693L39.9527 54.7562C39.9413 54.726 40.1018 54.6422 40.4249 54.5097C40.7481 54.3772 41.2274 54.1986 41.8357 53.984C42.4439 53.7695 43.1691 53.5232 43.9696 53.2593C44.7701 52.9955 45.6304 52.7192 46.501 52.4463L46.5141 52.4424C46.52 52.4407 46.5263 52.4415 46.5317 52.4444C46.5371 52.4473 46.5411 52.4523 46.5429 52.4581L46.6793 52.8933Z" fill="black"/>
<path d="M98.1956 52.9169C98.1557 52.8995 98.1224 52.8697 98.1007 52.832C98.079 52.7942 98.07 52.7505 98.075 52.7072C98.096 52.5171 98.2389 52.4909 98.4053 52.525C98.9016 52.6237 99.3892 52.7544 99.8681 52.9169C101.534 53.4833 103.156 54.0846 104.736 54.7208C104.889 54.7829 104.885 54.7955 104.724 54.7588C103.158 54.4036 101.594 53.9749 100.01 53.5541C99.3901 53.3889 98.7854 53.1765 98.1956 52.9169Z" fill="black"/>
<path d="M105.419 57.5774C103.296 59.9275 100.788 61.8362 97.8954 63.3036L98.1039 60.7826C100.557 59.8746 102.92 58.8018 105.194 57.5643C105.229 57.545 105.267 57.5402 105.306 57.5498L105.419 57.5774Z" fill="#CDC5D0"/>
<path d="M39.3812 57.6416C39.4424 57.6119 39.4887 57.6053 39.5201 57.6219C41.8078 58.8481 44.1823 59.9192 46.6439 60.8351L46.8339 63.28C43.96 61.8301 41.4757 59.9506 39.3812 57.6416Z" fill="#CDC5D0"/>
<path d="M54.6681 63.3049C66.4566 66.1322 78.2583 66.1248 90.0731 63.2826L90.0207 66.4814C86.5324 67.4838 83.0341 68.3254 79.5258 69.0062C78.8494 69.1373 78.9451 69.8584 79.6817 69.7915C82.5959 69.5284 85.4804 69.0696 88.3351 68.415C88.3779 68.4045 88.4076 68.4198 88.4242 68.4609L89.7572 71.7487C79.1168 76.6583 65.6007 76.5599 54.9918 71.754L56.3156 68.436C56.3314 68.3958 56.3606 68.3805 56.4035 68.3901C59.2923 69.0403 62.2099 69.5061 65.1564 69.7876C65.7633 69.8452 65.8065 69.1216 65.1734 69.0023C61.6721 68.3433 58.1886 67.4973 54.7231 66.4643L54.6681 63.3049Z" fill="#CDC5D0"/>
<path d="M54.7231 66.4643C58.1886 67.4973 61.6721 68.3433 65.1734 69.0023C65.8065 69.1216 65.7633 69.8452 65.1564 69.7876C62.2099 69.5061 59.2923 69.0403 56.4035 68.3901C56.3606 68.3805 56.3314 68.3958 56.3156 68.436L54.9918 71.754C53.765 74.6223 52.7055 77.2224 51.8133 79.5541C49.8407 84.7154 48.4998 90.047 48.0018 95.7496C47.969 96.1298 47.7147 96.3815 47.3451 96.1416C47.3084 96.118 47.2831 96.0852 47.2691 96.0433L47.2062 95.8637C47.1878 95.8086 47.1524 95.7942 47.1 95.8204L41.6881 98.5734C41.6496 98.5935 41.6413 98.6219 41.6631 98.6586C43.139 101.141 43.7096 103.837 43.3749 106.748C43.3474 106.984 43.2622 107.161 42.9975 107.131C42.6056 107.087 42.6252 106.821 42.6265 106.501C42.6409 103.964 41.9083 101.245 40.283 99.2984C39.1518 97.9415 36.8554 97.6571 35.2577 98.0621C30.4552 99.2774 29.6898 105.474 30.5929 109.414C30.9284 110.878 31.4889 112.162 32.2745 113.268C33.8605 115.565 36.2722 116.868 39.0522 116.7C41.5714 116.548 44.1037 116.037 46.501 115.437C50.552 114.425 54.682 113.267 58.8912 111.963C58.9392 111.949 58.9406 111.929 58.8951 111.906C58.4862 111.695 58.6146 111.097 59.0511 111.127C62.6451 111.38 66.2456 112.244 69.896 112.388C73.4943 112.531 77.0756 112.314 80.6399 111.738C81.9532 111.526 83.5488 111.325 85.4266 111.132C85.9719 111.076 86.3677 111.629 85.8041 111.898C85.7976 111.901 85.7921 111.905 85.7883 111.911C85.7846 111.917 85.7828 111.924 85.7833 111.931C85.7837 111.938 85.7863 111.945 85.7908 111.951C85.7952 111.956 85.8012 111.96 85.808 111.962C89.4833 113.09 93.1808 114.134 96.9006 115.094C99.6361 115.799 102.533 116.482 105.283 116.687C108.358 116.915 110.769 115.752 112.518 113.198C113.178 112.248 113.672 111.17 114.002 109.963C114.842 106.878 114.69 102.391 112.431 99.8594C110.845 98.0818 108.532 97.4827 106.23 98.1775C103.195 99.0939 102.036 103.898 102.117 106.589C102.137 107.231 101.428 107.367 101.364 106.754C101.055 103.818 101.619 101.121 103.056 98.6612C103.082 98.6158 103.071 98.5813 103.024 98.5577L97.6123 95.8099C97.5599 95.7837 97.5298 95.7994 97.5219 95.8571C97.4808 96.1289 97.3249 96.253 97.054 96.2294C96.9764 96.2229 96.9038 96.1886 96.8494 96.1328C96.795 96.0769 96.7625 96.0033 96.7577 95.9253C96.2177 87.4854 93.1467 79.6747 89.7572 71.7487L88.4242 68.4609C88.4076 68.4198 88.3779 68.4045 88.3351 68.415C85.4804 69.0696 82.5959 69.5284 79.6817 69.7915C78.9451 69.8584 78.8494 69.1373 79.5258 69.0062C83.0341 68.3254 86.5324 67.4838 90.0207 66.4814C90.0163 67.0451 90.1439 67.5109 90.4034 67.8788L89.9761 68.0047C89.9263 68.0187 89.9114 68.0497 89.9315 68.0977C90.7311 70.0598 91.8714 72.8189 93.3525 76.3751C95.7157 82.0476 97.6635 87.8249 97.6451 94.0467C97.6451 94.0878 97.6635 94.1175 97.7002 94.1358L104.136 97.4014C104.171 97.4189 104.206 97.418 104.241 97.3988C106.897 95.9109 110.05 95.9843 112.476 97.8262C116.117 100.59 116.572 106.28 115.477 110.355C114.206 115.086 110.515 118.558 105.384 118.221C102.811 118.053 100.091 117.476 97.6517 116.874C92.8623 115.694 88.1319 114.277 83.4134 112.844C83.3705 112.832 83.3277 112.831 83.2849 112.84C82.1393 113.116 81.3682 113.282 80.9715 113.339C74.6329 114.239 67.9456 114.293 61.6725 112.89C61.4943 112.85 61.3178 112.856 61.143 112.909C55.6105 114.575 50.0622 116.258 44.413 117.488C40.0877 118.429 35.8986 119.027 32.3361 115.753C32.3089 115.728 32.2743 115.712 32.2378 115.709L31.3636 115.626C31.3172 115.622 31.302 115.642 31.3177 115.685C33.0596 120.444 29.8523 124.327 25.5283 125.761C23.5526 126.416 21.5314 126.803 19.4649 126.924C13.5981 127.265 5.41139 126.642 1.80693 121.219C0.455579 119.187 -0.148659 116.351 0.0309093 113.961C0.33849 109.853 2.14466 106.631 5.44941 104.297C9.49034 101.442 14.6716 100.751 19.4898 100.995C22.7404 101.159 26.0517 101.356 29.4237 101.586C29.4638 101.589 29.5037 101.578 29.5374 101.556C29.5712 101.534 29.5971 101.502 29.6111 101.464C31.2954 96.9216 36.301 94.9473 40.5084 97.4211C40.5504 97.4456 40.5923 97.4464 40.6342 97.4237C42.7157 96.2928 44.8268 95.2209 46.9676 94.2079C47.0104 94.1878 47.0318 94.1546 47.0318 94.1083C47.0502 90.4674 47.6483 86.8588 48.8262 83.2825C50.5301 78.1095 52.7557 73.1239 54.8122 68.0873C54.8306 68.0409 54.8162 68.0095 54.769 67.9929L54.3771 67.8552C54.6025 67.4637 54.7179 67 54.7231 66.4643ZM13.699 102.806L13.3071 102.9C7.50199 103.839 2.27616 107.462 1.72304 113.762C1.59634 115.308 1.77285 116.82 2.25257 118.297C4.7141 125.874 16.9457 126.187 23.0471 124.853C25.0158 124.421 26.9871 123.687 28.4826 122.361C30.2547 120.789 30.9114 118.447 30.0384 116.242C28.7028 112.867 24.4626 111.861 21.2632 111.63C19.0677 111.333 16.8736 111.177 14.6913 110.801C13.4317 110.595 11.6098 109.914 11.8234 108.375C11.9099 107.764 12.6754 107.884 12.6256 108.358C12.5364 109.182 13.2482 109.537 13.8629 109.669C15.2435 109.966 16.6215 110.154 17.9969 110.232C22.182 110.449 27.0212 110.531 30.0882 113.809C30.3019 114.037 30.5168 114.062 30.8039 114.019C30.8537 114.011 30.8655 113.985 30.8393 113.942C29.9226 112.457 29.307 110.898 28.9925 109.264C28.6062 107.175 28.6386 105.143 29.0895 103.168C29.0991 103.124 29.0812 103.1 29.0357 103.098C25.8419 102.883 22.6525 102.694 19.4675 102.53C17.5311 102.43 15.6083 102.522 13.699 102.806Z" fill="black"/>
<path d="M89.7572 71.7487C93.1467 79.6747 96.2177 87.4854 96.7577 95.9253C96.7625 96.0033 96.795 96.0769 96.8494 96.1328C96.9038 96.1886 96.9764 96.2229 97.054 96.2294C97.3249 96.253 97.4808 96.1289 97.5219 95.8571C97.5298 95.7994 97.5599 95.7837 97.6123 95.8099L103.024 98.5577C103.071 98.5813 103.082 98.6158 103.056 98.6612C101.619 101.121 101.055 103.818 101.364 106.754C101.428 107.367 102.137 107.231 102.117 106.589C102.036 103.898 103.195 99.0939 106.23 98.1775C108.532 97.4827 110.845 98.0818 112.431 99.8594C114.69 102.391 114.842 106.878 114.002 109.963C113.672 111.17 113.178 112.248 112.518 113.198C111.319 114.023 110.154 114.519 109.022 114.684C105.034 115.264 102.361 112.293 101.683 108.657C101.673 108.603 101.645 108.591 101.6 108.622C100.041 109.673 97.6385 111.056 95.6908 110.346C93.3473 109.49 93.7916 106.488 94.3408 104.685C94.7349 103.392 95.136 102.102 95.544 100.815C95.6681 100.424 95.7275 100.041 95.7223 99.6641C95.7217 99.634 95.7135 99.6045 95.6985 99.5784C95.6834 99.5523 95.662 99.5304 95.6362 99.5148C95.6104 99.4993 95.5811 99.4905 95.551 99.4893C95.5209 99.4881 95.491 99.4946 95.4641 99.5081C95.16 99.6619 94.8913 99.8236 94.658 99.9932C93.6815 100.706 87.7505 104.64 86.8566 104.25C85.9561 103.857 87.2918 100.601 87.5578 99.9329C88.7663 96.9006 90.0036 93.9235 91.0063 90.7654C91.6945 88.5971 92.2554 86.2269 91.7652 83.9734L91.9133 82.3884C91.9192 82.3214 91.9018 82.2545 91.8641 82.1989C91.8264 82.1432 91.7706 82.1023 91.7063 82.083C91.4952 82.0187 91.3642 82.1551 91.3222 82.3596C90.2317 87.6597 86.5892 103.018 79.3672 103.046C79.3078 103.046 79.2973 103.024 79.3357 102.98L80.151 102.032C81.7667 101.69 83.0787 100.871 84.0871 99.5737C85.1208 98.2452 85.9845 96.8128 86.6783 95.2764C87.9637 92.4299 88.9738 89.5287 89.7087 86.573C89.7629 86.3536 89.7528 86.3505 89.6786 86.5638C88.4085 90.1807 86.8199 93.8959 84.7005 97.1432C83.8315 98.4751 82.5168 100.219 80.9807 100.809L81.3647 100.106C81.3669 100.102 81.3674 100.097 81.3663 100.092C81.3652 100.087 81.3624 100.083 81.3586 100.08C81.3547 100.077 81.3499 100.076 81.3451 100.076C81.3402 100.076 81.3356 100.078 81.3319 100.081L80.3292 101.013C78.7861 101.285 77.5663 100.821 76.6697 99.6209L77.5518 97.6584C77.5534 97.6551 77.5538 97.6513 77.553 97.6477C77.5521 97.6442 77.55 97.641 77.547 97.6388C77.5441 97.6366 77.5404 97.6356 77.5368 97.6358C77.5331 97.636 77.5296 97.6375 77.5269 97.64C76.855 98.2483 76.2437 98.9116 75.6932 99.63C75.6897 99.6345 75.6849 99.6377 75.6795 99.6395C75.6741 99.6412 75.6684 99.6413 75.6629 99.6398C75.6575 99.6382 75.6526 99.6351 75.6489 99.6308C75.6452 99.6265 75.6428 99.6212 75.6421 99.6156C75.4508 97.973 75.7195 96.2635 76.0996 94.6655C77.3185 89.5475 79.3803 84.6852 80.5403 79.5594C80.5475 79.5264 80.5481 79.4922 80.542 79.459C80.5358 79.4257 80.5231 79.3941 80.5045 79.366C80.4859 79.3378 80.4618 79.3137 80.4337 79.2952C80.4057 79.2766 80.3741 79.2639 80.341 79.2579C80.0238 79.2015 80.0121 79.347 79.8941 79.6118C77.7734 84.385 75.7234 89.4282 74.4179 94.5422C73.9819 96.2543 73.8102 97.8839 73.9028 99.4308C73.9587 100.352 74.2056 101.241 74.6434 102.099C74.528 103.125 74.0706 105.778 72.9132 106.065C70.6182 106.633 70.3717 103.758 70.0546 102.214C71.4727 99.6196 70.8384 96.316 70.0886 93.5761C68.7504 88.6836 66.8276 83.9956 64.7724 79.3798C64.7583 79.3487 64.7381 79.3207 64.7129 79.2977C64.6878 79.2747 64.6582 79.257 64.626 79.2458C64.5939 79.2347 64.5598 79.2302 64.5259 79.2327C64.492 79.2352 64.459 79.2447 64.429 79.2605C64.2664 79.3453 64.2079 79.4851 64.2533 79.68C65.6165 85.4587 68.1016 90.9384 69.0794 96.7866C69.2271 97.6675 69.2445 98.6023 69.1318 99.5907C69.1239 99.6598 69.099 99.6667 69.0571 99.6117C68.5197 98.902 67.9229 98.247 67.2667 97.6466C67.2629 97.6433 67.2582 97.6414 67.2532 97.6411C67.2482 97.6409 67.2433 97.6423 67.2392 97.6452C67.2351 97.648 67.2321 97.6522 67.2307 97.6569C67.2293 97.6617 67.2295 97.6668 67.2313 97.6715L68.1108 99.6235C67.2964 100.744 66.1023 101.225 64.5286 101.068L63.4367 100.061C63.4322 100.057 63.4264 100.055 63.4203 100.055C63.4143 100.055 63.4084 100.057 63.4036 100.06C63.3988 100.064 63.3954 100.069 63.3941 100.075C63.3927 100.081 63.3934 100.087 63.3961 100.093L63.7854 100.802C62.0736 100.073 60.6358 98.1434 59.6816 96.5742C57.7784 93.445 56.2894 89.9867 55.094 86.5297C55.0844 86.5009 55.0705 86.4991 55.0521 86.5245C55.0407 86.5419 55.039 86.5655 55.0469 86.5953C55.8211 89.5484 56.8342 92.4163 58.0864 95.199C59.0262 97.2874 60.3867 99.7297 62.2243 101.048C62.8465 101.495 63.6377 101.818 64.598 102.019L65.4356 102.987C65.488 103.049 65.474 103.078 65.3937 103.075C58.1428 102.889 54.5685 87.7332 53.4465 82.3517C53.4058 82.1551 53.3167 82.0266 53.1004 82.0712C53.0316 82.0858 52.9703 82.1247 52.9277 82.1808C52.8851 82.2368 52.8641 82.3063 52.8685 82.3766L52.9576 83.816C52.6395 85.5308 52.7365 87.3097 53.2486 89.1529C54.343 93.0923 55.8045 96.5218 57.241 100.169C57.6146 101.118 58.2948 102.792 58.1611 103.792C58.0549 104.588 57.1977 104.201 56.756 103.99C54.4466 102.886 52.2585 101.577 50.192 100.064C49.8866 99.8398 49.5668 99.6707 49.2404 99.5107C49.2137 99.4977 49.1841 99.4917 49.1544 99.4931C49.1247 99.4946 49.0959 99.5035 49.0705 99.519C49.0452 99.5346 49.0242 99.5563 49.0094 99.5821C48.9947 99.6079 48.9866 99.637 48.9861 99.6667C48.9774 100.077 49.0399 100.485 49.1736 100.892C49.8735 103.025 51.487 106.855 50.483 109.01C49.07 112.041 44.8862 109.879 43.1062 108.607C43.0599 108.574 43.032 108.585 43.0224 108.64C42.3631 112.177 40.0221 114.92 36.1542 114.736C34.9274 114.678 33.6341 114.189 32.2745 113.268C31.4889 112.162 30.9284 110.878 30.5929 109.414C29.6898 105.474 30.4552 99.2774 35.2577 98.0621C36.8554 97.6571 39.1518 97.9415 40.283 99.2984C41.9083 101.245 42.6409 103.964 42.6265 106.501C42.6252 106.821 42.6056 107.087 42.9975 107.131C43.2622 107.161 43.3474 106.984 43.3749 106.748C43.7096 103.837 43.139 101.141 41.6631 98.6586C41.6413 98.6219 41.6496 98.5935 41.6881 98.5734L47.1 95.8204C47.1524 95.7942 47.1878 95.8086 47.2062 95.8637L47.2691 96.0433C47.2831 96.0852 47.3084 96.118 47.3451 96.1416C47.7147 96.3815 47.969 96.1298 48.0018 95.7496C48.4998 90.047 49.8407 84.7154 51.8133 79.5541C52.7055 77.2224 53.765 74.6223 54.9918 71.754C65.6007 76.5599 79.1168 76.6583 89.7572 71.7487ZM35.8272 104.996C36.2064 104.998 36.5713 104.833 36.8416 104.535C37.1118 104.238 37.2653 103.833 37.2683 103.41C37.2712 102.987 37.1234 102.58 36.8573 102.279C36.5913 101.978 36.2287 101.808 35.8495 101.805C35.4702 101.802 35.1053 101.968 34.8351 102.265C34.5648 102.562 34.4113 102.967 34.4084 103.39C34.4054 103.813 34.5532 104.22 34.8193 104.521C35.0854 104.822 35.4479 104.993 35.8272 104.996ZM108.922 104.996C109.302 104.991 109.663 104.819 109.928 104.516C110.192 104.214 110.338 103.807 110.333 103.384C110.33 103.175 110.291 102.968 110.216 102.775C110.142 102.583 110.035 102.409 109.9 102.262C109.766 102.116 109.606 102 109.432 101.922C109.258 101.844 109.071 101.805 108.883 101.808C108.504 101.812 108.142 101.985 107.878 102.287C107.613 102.589 107.468 102.996 107.473 103.419C107.476 103.628 107.515 103.835 107.589 104.028C107.663 104.22 107.771 104.395 107.906 104.541C108.04 104.688 108.199 104.803 108.374 104.881C108.548 104.959 108.735 104.998 108.922 104.996ZM39.4023 105.844C39.5708 105.844 39.7377 105.807 39.8935 105.736C40.0493 105.664 40.191 105.559 40.3104 105.426C40.4298 105.293 40.5246 105.135 40.5893 104.961C40.6541 104.788 40.6876 104.601 40.688 104.413C40.6883 104.225 40.6554 104.039 40.5913 103.865C40.5271 103.691 40.4328 103.533 40.3139 103.399C40.195 103.266 40.0537 103.16 39.8982 103.088C39.7426 103.016 39.5758 102.978 39.4073 102.978C39.2388 102.978 39.0719 103.015 38.916 103.086C38.7602 103.158 38.6186 103.263 38.4992 103.396C38.3798 103.529 38.285 103.687 38.2202 103.861C38.1554 104.034 38.1219 104.221 38.1216 104.409C38.1213 104.597 38.1541 104.783 38.2183 104.957C38.2825 105.131 38.3767 105.289 38.4957 105.423C38.6146 105.556 38.7559 105.662 38.9114 105.734C39.067 105.806 39.2338 105.844 39.4023 105.844ZM105.34 105.848C105.681 105.847 106.007 105.694 106.247 105.424C106.487 105.154 106.621 104.789 106.62 104.408C106.618 104.027 106.482 103.663 106.24 103.394C105.998 103.126 105.671 102.976 105.33 102.977C104.989 102.978 104.663 103.13 104.423 103.401C104.183 103.671 104.049 104.036 104.051 104.417C104.052 104.798 104.189 105.162 104.43 105.431C104.672 105.699 104.999 105.849 105.34 105.848ZM32.6374 106.433C32.8063 106.432 32.9734 106.395 33.1293 106.322C33.2852 106.25 33.4268 106.144 33.5459 106.011C33.6651 105.877 33.7595 105.719 33.8238 105.544C33.8882 105.37 33.9211 105.183 33.9208 104.995C33.9204 104.806 33.8868 104.62 33.8219 104.446C33.757 104.272 33.662 104.114 33.5424 103.98C33.4228 103.847 33.2808 103.742 33.1247 103.67C32.9686 103.598 32.8013 103.561 32.6324 103.562C32.4636 103.562 32.2965 103.599 32.1406 103.672C31.9847 103.744 31.8431 103.85 31.724 103.984C31.6048 104.117 31.5104 104.276 31.4461 104.45C31.3817 104.624 31.3488 104.811 31.3491 104.999C31.3495 105.188 31.383 105.374 31.448 105.548C31.5129 105.723 31.6079 105.881 31.7275 106.014C31.8471 106.147 31.9891 106.252 32.1452 106.324C32.3013 106.396 32.4686 106.433 32.6374 106.433ZM112.127 106.43C112.296 106.427 112.462 106.387 112.617 106.313C112.771 106.238 112.911 106.131 113.028 105.995C113.145 105.86 113.237 105.701 113.299 105.526C113.361 105.351 113.391 105.164 113.388 104.976C113.382 104.595 113.241 104.233 112.996 103.968C112.751 103.702 112.423 103.556 112.082 103.562C111.914 103.564 111.748 103.604 111.593 103.679C111.439 103.753 111.299 103.861 111.182 103.996C111.065 104.131 110.973 104.291 110.911 104.466C110.849 104.641 110.819 104.828 110.822 105.016C110.828 105.396 110.969 105.759 111.214 106.024C111.458 106.289 111.787 106.435 112.127 106.43ZM36.1235 113.429C37.0527 113.432 37.9453 113.024 38.6049 112.293C39.2645 111.563 39.6371 110.57 39.6407 109.533C39.6443 108.497 39.2787 107.502 38.6242 106.766C37.9697 106.031 37.08 105.616 36.1508 105.613C35.2216 105.61 34.3291 106.019 33.6695 106.749C33.0099 107.48 32.6373 108.472 32.6337 109.509C32.63 110.545 32.9957 111.541 33.6502 112.276C34.3046 113.011 35.1943 113.426 36.1235 113.429ZM108.595 113.428C109.054 113.429 109.51 113.328 109.935 113.133C110.361 112.937 110.747 112.65 111.073 112.288C111.399 111.926 111.658 111.495 111.834 111.022C112.011 110.548 112.103 110.04 112.104 109.527C112.104 109.014 112.015 108.506 111.84 108.032C111.664 107.558 111.407 107.126 111.083 106.763C110.758 106.4 110.372 106.111 109.948 105.914C109.523 105.717 109.068 105.615 108.608 105.615C108.148 105.614 107.693 105.714 107.267 105.91C106.842 106.105 106.456 106.392 106.13 106.754C105.804 107.117 105.545 107.547 105.368 108.021C105.192 108.494 105.1 109.002 105.099 109.515C105.098 110.028 105.188 110.536 105.363 111.011C105.538 111.485 105.796 111.916 106.12 112.279C106.445 112.643 106.83 112.931 107.255 113.128C107.679 113.325 108.135 113.427 108.595 113.428Z" fill="white"/>
<path d="M70.0546 102.214C69.2402 103.505 68.1361 104.304 66.7424 104.612C60.2583 106.041 56.5358 97.8616 54.9407 93.0648C53.9489 90.082 53.2879 86.999 52.9576 83.816L52.8685 82.3766C52.8641 82.3063 52.8851 82.2368 52.9277 82.1808C52.9703 82.1247 53.0316 82.0858 53.1004 82.0712C53.3167 82.0266 53.4058 82.1551 53.4465 82.3517C54.5685 87.7332 58.1428 102.889 65.3937 103.075C65.474 103.078 65.488 103.049 65.4356 102.987L64.598 102.019L63.7854 100.802L63.3961 100.093C63.3934 100.087 63.3927 100.081 63.3941 100.075C63.3954 100.069 63.3988 100.064 63.4036 100.06C63.4084 100.057 63.4143 100.055 63.4203 100.055C63.4264 100.055 63.4322 100.057 63.4367 100.061L64.5286 101.068C65.0415 101.527 65.5287 101.872 65.99 102.103L67.0871 102.602C67.1299 102.622 67.1723 102.62 67.2142 102.597C67.7752 102.291 68.223 101.865 68.5577 101.319C68.5822 101.278 68.5879 101.236 68.5748 101.191L68.2654 100.116L68.1108 99.6235L67.2313 97.6715C67.2295 97.6668 67.2293 97.6617 67.2307 97.6569C67.2321 97.6522 67.2351 97.648 67.2392 97.6452C67.2433 97.6423 67.2482 97.6409 67.2532 97.6411C67.2582 97.6414 67.2629 97.6433 67.2667 97.6466C67.9229 98.247 68.5197 98.902 69.0571 99.6117C69.099 99.6667 69.1239 99.6598 69.1318 99.5907C69.2445 98.6023 69.2271 97.6675 69.0794 96.7866C68.1016 90.9384 65.6165 85.4587 64.2533 79.68C64.2079 79.4851 64.2664 79.3453 64.429 79.2605C64.459 79.2447 64.492 79.2352 64.5259 79.2327C64.5598 79.2302 64.5939 79.2347 64.626 79.2458C64.6582 79.257 64.6878 79.2747 64.7129 79.2977C64.7381 79.3207 64.7583 79.3487 64.7724 79.3798C66.8276 83.9956 68.7504 88.6836 70.0886 93.5761C70.8384 96.316 71.4727 99.6196 70.0546 102.214Z" fill="black"/>
<path d="M76.6697 99.6209L76.4849 100.181L76.1952 101.204C76.1894 101.226 76.1881 101.248 76.1912 101.27C76.1944 101.292 76.202 101.313 76.2136 101.332C76.5553 101.883 77.0153 102.307 77.5938 102.605C77.6305 102.623 77.6681 102.624 77.7065 102.607L78.7511 102.125C79.2789 101.849 79.805 101.478 80.3292 101.013L81.3319 100.081C81.3356 100.078 81.3402 100.076 81.3451 100.076C81.3499 100.076 81.3547 100.077 81.3586 100.08C81.3624 100.083 81.3652 100.087 81.3663 100.092C81.3674 100.097 81.3669 100.102 81.3647 100.106L80.9807 100.809L80.151 102.032L79.3357 102.98C79.2973 103.024 79.3078 103.046 79.3672 103.046C86.5892 103.018 90.2317 87.6597 91.3222 82.3596C91.3642 82.1551 91.4952 82.0187 91.7063 82.083C91.7706 82.1023 91.8264 82.1432 91.8641 82.1989C91.9018 82.2545 91.9192 82.3214 91.9133 82.3884L91.7652 83.9734C91.1217 90.3052 89.2644 96.9059 85.1317 101.899C82.4552 105.133 77.2071 106.211 74.6434 102.099C74.2056 101.241 73.9587 100.352 73.9028 99.4308C73.8102 97.8839 73.9819 96.2543 74.4179 94.5422C75.7234 89.4282 77.7734 84.385 79.8941 79.6118C80.0121 79.347 80.0238 79.2015 80.341 79.2579C80.3741 79.2639 80.4057 79.2766 80.4337 79.2952C80.4618 79.3137 80.4859 79.3378 80.5045 79.366C80.5231 79.3941 80.5358 79.4257 80.542 79.459C80.5481 79.4922 80.5475 79.5264 80.5403 79.5594C79.3803 84.6852 77.3185 89.5475 76.0996 94.6655C75.7195 96.2635 75.4508 97.973 75.6421 99.6156C75.6428 99.6212 75.6452 99.6265 75.6489 99.6308C75.6526 99.6351 75.6575 99.6382 75.6629 99.6398C75.6684 99.6413 75.6741 99.6412 75.6795 99.6395C75.6849 99.6377 75.6897 99.6345 75.6932 99.63C76.2437 98.9116 76.855 98.2483 77.5269 97.64C77.5296 97.6375 77.5331 97.636 77.5368 97.6358C77.5404 97.6356 77.5441 97.6366 77.547 97.6388C77.55 97.641 77.5521 97.6442 77.553 97.6477C77.5538 97.6513 77.5534 97.6551 77.5518 97.6584L76.6697 99.6209Z" fill="black"/>
<path d="M52.9576 83.816C53.2879 86.999 53.9489 90.082 54.9407 93.0648C56.5358 97.8616 60.2583 106.041 66.7424 104.612C68.1361 104.304 69.2402 103.505 70.0546 102.214C70.3717 103.758 70.6182 106.633 72.9132 106.065C74.0706 105.778 74.528 103.125 74.6434 102.099C77.2071 106.211 82.4552 105.133 85.1317 101.899C89.2644 96.9059 91.1217 90.3052 91.7652 83.9734C92.2554 86.2269 91.6945 88.5971 91.0063 90.7654C90.0036 93.9235 88.7663 96.9006 87.5578 99.9329C87.2918 100.601 85.9561 103.857 86.8566 104.25C87.7505 104.64 93.6815 100.706 94.658 99.9932C94.8913 99.8236 95.16 99.6619 95.4641 99.5081C95.491 99.4946 95.5209 99.4881 95.551 99.4893C95.5811 99.4905 95.6104 99.4993 95.6362 99.5148C95.662 99.5304 95.6834 99.5523 95.6985 99.5784C95.7135 99.6045 95.7217 99.634 95.7223 99.6641C95.7275 100.041 95.6681 100.424 95.544 100.815C95.136 102.102 94.7349 103.392 94.3408 104.685C93.7916 106.488 93.3473 109.49 95.6908 110.346C97.6385 111.056 100.041 109.673 101.6 108.622C101.645 108.591 101.673 108.603 101.683 108.657C102.361 112.293 105.034 115.264 109.022 114.684C110.154 114.519 111.319 114.023 112.518 113.198C110.769 115.752 108.358 116.915 105.283 116.687C102.533 116.482 99.6361 115.799 96.9006 115.094C93.1808 114.134 89.4833 113.09 85.808 111.962C85.8012 111.96 85.7952 111.956 85.7908 111.951C85.7863 111.945 85.7837 111.938 85.7833 111.931C85.7828 111.924 85.7846 111.917 85.7883 111.911C85.7921 111.905 85.7976 111.901 85.8041 111.898C86.3677 111.629 85.9719 111.076 85.4266 111.132C83.5488 111.325 81.9532 111.526 80.6399 111.738C77.0756 112.314 73.4943 112.531 69.896 112.388C66.2456 112.244 62.6451 111.38 59.0511 111.127C58.6146 111.097 58.4862 111.695 58.8951 111.906C58.9406 111.929 58.9392 111.949 58.8912 111.963C54.682 113.267 50.552 114.425 46.501 115.437C44.1037 116.037 41.5714 116.548 39.0522 116.7C36.2722 116.868 33.8605 115.565 32.2745 113.268C33.6341 114.189 34.9274 114.678 36.1542 114.736C40.0221 114.92 42.3631 112.177 43.0224 108.64C43.032 108.585 43.0599 108.574 43.1062 108.607C44.8862 109.879 49.07 112.041 50.483 109.01C51.487 106.855 49.8735 103.025 49.1736 100.892C49.0399 100.485 48.9774 100.077 48.9861 99.6667C48.9866 99.637 48.9947 99.6079 49.0094 99.5821C49.0242 99.5563 49.0452 99.5346 49.0705 99.519C49.0959 99.5035 49.1247 99.4946 49.1544 99.4931C49.1841 99.4917 49.2137 99.4977 49.2404 99.5107C49.5668 99.6707 49.8866 99.8398 50.192 100.064C52.2585 101.577 54.4466 102.886 56.756 103.99C57.1977 104.201 58.0549 104.588 58.1611 103.792C58.2948 102.792 57.6146 101.118 57.241 100.169C55.8045 96.5218 54.343 93.0923 53.2486 89.1529C52.7365 87.3097 52.6395 85.5308 52.9576 83.816Z" fill="#CDC5D0"/>
<path d="M80.151 102.032L80.9807 100.809C82.5168 100.219 83.8315 98.4751 84.7005 97.1432C86.8199 93.8959 88.4085 90.1807 89.6786 86.5638C89.7528 86.3505 89.7629 86.3536 89.7087 86.573C88.9738 89.5287 87.9637 92.4299 86.6783 95.2764C85.9845 96.8128 85.1208 98.2452 84.0871 99.5737C83.0787 100.871 81.7667 101.69 80.151 102.032Z" fill="#CDC5D0"/>
<path d="M63.7854 100.802L64.598 102.019C63.6377 101.818 62.8465 101.495 62.2243 101.048C60.3867 99.7297 59.0262 97.2874 58.0864 95.199C56.8342 92.4163 55.8211 89.5484 55.0469 86.5953C55.039 86.5655 55.0407 86.5419 55.0521 86.5245C55.0705 86.4991 55.0844 86.5009 55.094 86.5297C56.2894 89.9867 57.7784 93.445 59.6816 96.5742C60.6358 98.1434 62.0736 100.073 63.7854 100.802Z" fill="#CDC5D0"/>
<path d="M68.1108 99.6235L68.2654 100.116C67.9054 101.197 67.1469 101.859 65.99 102.103C65.5287 101.872 65.0415 101.527 64.5286 101.068C66.1023 101.225 67.2964 100.744 68.1108 99.6235Z" fill="#CDC5D0"/>
<path d="M76.6697 99.6209C77.5663 100.821 78.7861 101.285 80.3292 101.013C79.805 101.478 79.2789 101.849 78.7511 102.125C77.6685 101.85 76.9131 101.202 76.4849 100.181L76.6697 99.6209Z" fill="#CDC5D0"/>
<path d="M68.2654 100.116L68.5748 101.191C68.5879 101.236 68.5822 101.278 68.5577 101.319C68.223 101.865 67.7752 102.291 67.2142 102.597C67.1723 102.62 67.1299 102.622 67.0871 102.602L65.99 102.103C67.1469 101.859 67.9054 101.197 68.2654 100.116Z" fill="white"/>
<path d="M76.4849 100.181C76.9131 101.202 77.6685 101.85 78.7511 102.125L77.7065 102.607C77.6681 102.624 77.6305 102.623 77.5938 102.605C77.0153 102.307 76.5553 101.883 76.2136 101.332C76.202 101.313 76.1944 101.292 76.1912 101.27C76.1881 101.248 76.1894 101.226 76.1952 101.204L76.4849 100.181Z" fill="white"/>
<path d="M35.8272 104.996C35.4479 104.993 35.0854 104.822 34.8193 104.521C34.5532 104.22 34.4054 103.813 34.4084 103.39C34.4113 102.967 34.5648 102.562 34.8351 102.265C35.1053 101.968 35.4702 101.802 35.8495 101.805C36.2287 101.808 36.5913 101.978 36.8573 102.279C37.1234 102.58 37.2712 102.987 37.2683 103.41C37.2653 103.833 37.1118 104.238 36.8416 104.535C36.5713 104.833 36.2064 104.998 35.8272 104.996Z" fill="#FE8081"/>
<path d="M108.922 104.996C108.735 104.998 108.548 104.959 108.374 104.881C108.199 104.803 108.04 104.688 107.906 104.541C107.771 104.395 107.663 104.22 107.589 104.028C107.515 103.835 107.476 103.628 107.473 103.419C107.468 102.996 107.613 102.589 107.878 102.287C108.142 101.985 108.504 101.812 108.883 101.808C109.071 101.805 109.258 101.844 109.432 101.922C109.606 102 109.766 102.116 109.9 102.262C110.035 102.409 110.142 102.583 110.216 102.775C110.291 102.968 110.33 103.175 110.333 103.384C110.338 103.807 110.192 104.214 109.928 104.516C109.663 104.819 109.302 104.991 108.922 104.996Z" fill="#FE8081"/>
<path d="M28.9925 109.264C26.7162 109.159 24.4723 108.906 22.2606 108.505C20.7874 108.238 19.3137 107.964 17.8396 107.685L17.8003 107.563C17.4726 105.288 16.0741 103.399 13.7423 102.921C13.7178 102.957 13.7034 102.919 13.699 102.806C15.6083 102.522 17.5311 102.43 19.4675 102.53C22.6525 102.694 25.8419 102.883 29.0357 103.098C29.0812 103.1 29.0991 103.124 29.0895 103.168C28.6386 105.143 28.6062 107.175 28.9925 109.264Z" fill="white"/>
<path d="M13.699 102.806C13.7034 102.919 13.7178 102.957 13.7423 102.921C13.5483 102.995 13.4033 102.988 13.3071 102.9L13.699 102.806Z" fill="#FFB781"/>
<path d="M13.3071 102.9C13.4033 102.988 13.5483 102.995 13.7423 102.921C16.0741 103.399 17.4726 105.288 17.8003 107.563C17.7229 107.612 17.6666 107.656 17.5709 107.633C16.0688 107.298 13.9795 106.981 12.6151 107.859C12.5957 107.871 12.5739 107.879 12.5513 107.882C12.5287 107.886 12.5057 107.884 12.484 107.877C12.2586 107.808 12.0449 107.827 11.8431 107.932C11.8041 107.953 11.7731 107.985 11.7553 108.025C11.1864 109.294 12.4159 110.502 13.6047 110.624C13.6449 110.628 13.6789 110.645 13.7069 110.675C13.9979 110.98 14.3505 110.828 14.6913 110.801C16.8736 111.177 19.0677 111.333 21.2632 111.63L21.7298 111.741C21.7309 111.741 21.7318 111.742 21.7325 111.743C21.7331 111.744 21.7335 111.745 21.7335 111.746C21.7335 111.748 21.7331 111.749 21.7325 111.75C21.7318 111.751 21.7309 111.752 21.7298 111.752C21.7184 111.756 21.7066 111.759 21.6944 111.763C21.6734 111.769 21.6721 111.779 21.6905 111.792C21.739 111.826 21.7704 111.864 21.8333 111.873C22.4481 111.962 23.0576 111.992 23.6474 112.13C24.4351 112.315 25.2333 112.466 25.9595 112.775C26.3693 112.95 26.7721 113.14 27.168 113.345C29.0947 114.344 30.37 116.436 30.2494 118.593C30.235 118.851 30.1485 119.096 29.948 119.238C26.8979 121.389 22.4258 121.678 18.8187 121.741C12.6544 121.849 5.07454 120.983 1.8528 114.787C1.67717 114.45 1.75188 114.13 1.72304 113.762C2.27616 107.462 7.50199 103.839 13.3071 102.9ZM8.409 109.422C7.86243 111.13 10.0906 112.46 11.404 112.758C15.5249 113.694 19.8004 113.205 23.9528 114.136C24.7506 114.315 25.4929 114.6 26.1797 114.992C26.1911 114.998 26.2042 115.001 26.2172 115C26.2302 114.998 26.2424 114.993 26.2522 114.984C26.262 114.975 26.2689 114.964 26.2718 114.951C26.2748 114.939 26.2738 114.925 26.2688 114.913C25.6528 113.474 23.6067 112.926 22.2226 112.687C20.0285 112.308 17.8042 112.08 15.6009 111.759C13.4002 111.438 8.69474 110.569 11.4721 107.068C11.4768 107.063 11.4795 107.056 11.4797 107.048C11.4798 107.041 11.4775 107.034 11.4731 107.028C11.4687 107.022 11.4624 107.017 11.4551 107.015C11.4479 107.012 11.44 107.012 11.4328 107.015C10.3974 107.386 8.7629 108.319 8.409 109.422Z" fill="#FF6F04"/>
<path d="M39.4023 105.844C39.2338 105.844 39.067 105.806 38.9114 105.734C38.7559 105.662 38.6146 105.556 38.4957 105.423C38.3767 105.289 38.2825 105.131 38.2183 104.957C38.1541 104.783 38.1213 104.597 38.1216 104.409C38.1219 104.221 38.1554 104.034 38.2202 103.861C38.285 103.687 38.3798 103.529 38.4992 103.396C38.6186 103.263 38.7602 103.158 38.916 103.086C39.0719 103.015 39.2388 102.978 39.4073 102.978C39.5758 102.978 39.7426 103.016 39.8982 103.088C40.0537 103.16 40.195 103.266 40.3139 103.399C40.4328 103.533 40.5271 103.691 40.5913 103.865C40.6554 104.039 40.6883 104.225 40.688 104.413C40.6876 104.601 40.6541 104.788 40.5893 104.961C40.5246 105.135 40.4298 105.293 40.3104 105.426C40.191 105.559 40.0493 105.664 39.8935 105.736C39.7377 105.807 39.5708 105.844 39.4023 105.844Z" fill="#FE8081"/>
<path d="M105.34 105.848C104.999 105.849 104.672 105.699 104.43 105.431C104.189 105.162 104.052 104.798 104.051 104.417C104.049 104.036 104.183 103.671 104.423 103.401C104.663 103.13 104.989 102.978 105.33 102.977C105.671 102.976 105.998 103.126 106.24 103.394C106.482 103.663 106.618 104.027 106.62 104.408C106.621 104.789 106.487 105.154 106.247 105.424C106.007 105.694 105.681 105.847 105.34 105.848Z" fill="#FE8081"/>
<path d="M32.6374 106.433C32.4686 106.433 32.3013 106.396 32.1452 106.324C31.9891 106.252 31.8471 106.147 31.7275 106.014C31.6079 105.881 31.5129 105.723 31.448 105.548C31.383 105.374 31.3495 105.188 31.3491 104.999C31.3488 104.811 31.3817 104.624 31.4461 104.45C31.5104 104.276 31.6048 104.117 31.724 103.984C31.8431 103.85 31.9847 103.744 32.1406 103.672C32.2965 103.599 32.4636 103.562 32.6324 103.562C32.8013 103.561 32.9686 103.598 33.1247 103.67C33.2808 103.742 33.4228 103.847 33.5424 103.98C33.662 104.114 33.757 104.272 33.8219 104.446C33.8868 104.62 33.9204 104.806 33.9208 104.995C33.9211 105.183 33.8882 105.37 33.8238 105.544C33.7595 105.719 33.6651 105.877 33.5459 106.011C33.4268 106.144 33.2852 106.25 33.1293 106.322C32.9734 106.395 32.8063 106.432 32.6374 106.433Z" fill="#FE8081"/>
<path d="M112.127 106.43C111.787 106.435 111.458 106.289 111.214 106.024C110.969 105.759 110.828 105.396 110.822 105.016C110.819 104.828 110.849 104.641 110.911 104.466C110.973 104.291 111.065 104.131 111.182 103.996C111.299 103.861 111.439 103.753 111.593 103.679C111.748 103.604 111.914 103.564 112.082 103.562C112.423 103.556 112.751 103.702 112.996 103.968C113.241 104.233 113.382 104.595 113.388 104.976C113.391 105.164 113.361 105.351 113.299 105.526C113.237 105.701 113.145 105.86 113.028 105.995C112.911 106.131 112.771 106.238 112.617 106.313C112.462 106.387 112.296 106.427 112.127 106.43Z" fill="#FE8081"/>
<path d="M36.1235 113.429C35.1943 113.426 34.3046 113.011 33.6502 112.276C32.9957 111.541 32.63 110.545 32.6337 109.509C32.6373 108.472 33.0099 107.48 33.6695 106.749C34.3291 106.019 35.2216 105.61 36.1508 105.613C37.08 105.616 37.9697 106.031 38.6242 106.766C39.2787 107.502 39.6443 108.497 39.6407 109.533C39.6371 110.57 39.2645 111.563 38.6049 112.293C37.9453 113.024 37.0527 113.432 36.1235 113.429Z" fill="#FE8081"/>
<path d="M108.595 113.428C108.135 113.427 107.679 113.325 107.255 113.128C106.83 112.931 106.445 112.643 106.12 112.279C105.796 111.916 105.538 111.485 105.363 111.011C105.188 110.536 105.098 110.028 105.099 109.515C105.1 109.002 105.192 108.494 105.368 108.021C105.545 107.547 105.804 107.117 106.13 106.754C106.456 106.392 106.842 106.105 107.267 105.91C107.693 105.714 108.148 105.614 108.608 105.615C109.068 105.615 109.523 105.717 109.948 105.914C110.372 106.111 110.758 106.4 111.083 106.763C111.407 107.126 111.664 107.558 111.84 108.032C112.015 108.506 112.104 109.014 112.104 109.527C112.103 110.04 112.011 110.548 111.834 111.022C111.658 111.495 111.399 111.926 111.073 112.288C110.747 112.65 110.361 112.937 109.935 113.133C109.51 113.328 109.054 113.429 108.595 113.428Z" fill="#FE8081"/>
<path d="M11.404 112.758C10.0906 112.46 7.86243 111.13 8.409 109.422C8.7629 108.319 10.3974 107.386 11.4328 107.015C11.44 107.012 11.4479 107.012 11.4551 107.015C11.4624 107.017 11.4687 107.022 11.4731 107.028C11.4775 107.034 11.4798 107.041 11.4797 107.048C11.4795 107.056 11.4768 107.063 11.4721 107.068C8.69474 110.569 13.4002 111.438 15.6009 111.759C17.8042 112.08 20.0285 112.308 22.2226 112.687C23.6067 112.926 25.6528 113.474 26.2688 114.913C26.2738 114.925 26.2748 114.939 26.2718 114.951C26.2689 114.964 26.262 114.975 26.2522 114.984C26.2424 114.993 26.2302 114.998 26.2172 115C26.2042 115.001 26.1911 114.998 26.1797 114.992C25.4929 114.6 24.7506 114.315 23.9528 114.136C19.8004 113.205 15.5249 113.694 11.404 112.758Z" fill="#FFB781"/>
<path d="M17.8003 107.563L17.8396 107.685C17.9663 108.553 18.0187 109.402 17.9969 110.232C16.6215 110.154 15.2435 109.966 13.8629 109.669C13.2482 109.537 12.5364 109.182 12.6256 108.358C12.6754 107.884 11.9099 107.764 11.8234 108.375C11.6098 109.914 13.4317 110.595 14.6913 110.801C14.3505 110.828 13.9979 110.98 13.7069 110.675C13.6789 110.645 13.6449 110.628 13.6047 110.624C12.4159 110.502 11.1864 109.294 11.7553 108.025C11.7731 107.985 11.8041 107.953 11.8431 107.932C12.0449 107.827 12.2586 107.808 12.484 107.877C12.5057 107.884 12.5287 107.886 12.5513 107.882C12.5739 107.879 12.5957 107.871 12.6151 107.859C13.9795 106.981 16.0688 107.298 17.5709 107.633C17.6666 107.656 17.7229 107.612 17.8003 107.563Z" fill="#CD5B15"/>
<path d="M28.9925 109.264C29.307 110.898 29.9226 112.457 30.8393 113.942C30.8655 113.985 30.8537 114.011 30.8039 114.019C30.5168 114.062 30.3019 114.037 30.0882 113.809C27.0212 110.531 22.182 110.449 17.9969 110.232C18.0187 109.402 17.9663 108.553 17.8396 107.685C19.3137 107.964 20.7874 108.238 22.2606 108.505C24.4723 108.906 26.7162 109.159 28.9925 109.264Z" fill="#CDC5D0"/>
<path d="M21.2632 111.63C24.4626 111.861 28.7028 112.867 30.0384 116.242C30.9114 118.447 30.2547 120.789 28.4826 122.361C26.9871 123.687 25.0158 124.421 23.0471 124.853C16.9457 126.187 4.7141 125.874 2.25257 118.297C1.77285 116.82 1.59634 115.308 1.72304 113.762C1.75188 114.13 1.67717 114.45 1.8528 114.787C5.07454 120.983 12.6544 121.849 18.8187 121.741C22.4258 121.678 26.8979 121.389 29.948 119.238C30.1485 119.096 30.235 118.851 30.2494 118.593C30.37 116.436 29.0947 114.344 27.168 113.345C26.7721 113.14 26.3693 112.95 25.9595 112.775C25.2333 112.466 24.4351 112.315 23.6474 112.13C23.0576 111.992 22.4481 111.962 21.8333 111.873C21.7704 111.864 21.739 111.826 21.6905 111.792C21.6721 111.779 21.6734 111.769 21.6944 111.763C21.7066 111.759 21.7184 111.756 21.7298 111.752C21.7309 111.752 21.7318 111.751 21.7325 111.75C21.7331 111.749 21.7335 111.748 21.7335 111.746C21.7335 111.745 21.7331 111.744 21.7325 111.743C21.7318 111.742 21.7309 111.741 21.7298 111.741L21.2632 111.63Z" fill="#CD5B15"/>
</svg>
